<?xml version="1.0" encoding="UTF-8"?>
<svg width="120px" height="148px" viewBox="0 0 120 148" version="1.1" xmlns="http://www.w3.org/2000/svg" xmlns:xlink="http://www.w3.org/1999/xlink">
    <!-- Generator: Sketch 59.1 (86144) - https://sketch.com -->
    <title>home_bankrupt</title>
    <desc>Created with Sketch.</desc>
    <defs>
        <path d="M75.862589,103.766699 C96.1162985,90.5518357 107.925447,75.4301621 111.290036,58.4016785 C116.417439,32.4514269 104.228943,16.5813123 86.7280298,6.99173196 C69.2271166,-2.59784835 47.307246,-2.48206479 30.0920972,8.3252911 C12.8769483,19.132647 -1.91846539e-13,32.6603348 -1.91846539e-13,52.1205875 C-1.91846539e-13,71.5808403 12.3427689,80.4972087 13.7425718,84.3519301 C15.1423748,88.2066514 14.816021,88.1689597 14.816021,92.9203535 C14.816021,96.0879494 14.816021,99.5594914 14.816021,103.33498 C21.7335126,103.343518 25.1922584,99.6489483 25.1922584,92.2512699 C25.1922584,81.1547524 19.3037716,81.6145269 20.6066715,74.5809818 C21.9095715,67.5474368 27.2133289,65.3234371 31.23512,62.9290446 C34.086499,66.3382623 37.4864998,71.3024735 41.4351224,77.8216783 L57.1184546,61.6138714 C59.4519711,64.2730976 60.6187294,68.5954677 60.6187294,74.5809818 C60.6187294,83.559253 59.3967908,87.4759755 58.7408656,90.8369888 C62.0057214,90.1176094 65.0209673,89.2875002 70.5731479,86.8369358 C74.2746017,85.2032262 78.1554506,82.8444655 82.2156946,79.7606537 C81.6981741,86.6692869 80.7072131,91.6941454 79.2428116,94.8352292 C77.9248502,97.6622045 76.6169082,100.526785 75.3189855,103.428972 L75.6297963,103.567973 C75.5938283,103.648399 75.6298681,103.742754 75.7102935,103.778722 C75.7598019,103.800864 75.8171682,103.796335 75.862589,103.766699 Z" id="path-1"></path>
        <path d="M11.5295495,42.388401 C9.25319483,41.4469027 6.94930322,37.7336181 4.61787464,31.248547 C4.52234985,30.9828365 2.54357105,26.899447 2.45112795,26.6392925 C0.287355842,20.5499782 -0.367610561,15.8093832 0.187561076,11.3557468 C0.742732714,6.90211039 2.9117604,0.270685415 11.0884065,0.00701767742 C19.2650525,-0.25665006 19.9973461,6.99718926 23.3057611,6.99718926 C26.6141761,6.99718926 27.3123987,4.85763354 29.9708638,4.85763354 C32.6293288,4.85763354 35.1909379,8.28336381 35.1909379,14.4010755 C35.1909379,20.5187872 32.0912853,28.5132947 28.8773076,32.5749079 C25.66333,36.6365211 23.3057611,39.6768108 19.7051977,42.388401 C17.3048221,44.1961278 14.579606,44.1961278 11.5295495,42.388401 Z" id="path-3"></path>
    </defs>
    <g id="页面-1" stroke="none" stroke-width="1" fill="none" fill-rule="evenodd">
        <g id="已破产_已登录_en" transform="translate(-128.000000, -294.000000)">
            <g id="编组-13备份-5" transform="translate(15.000000, 282.000000)">
                <g id="编组-11" transform="translate(113.000000, 12.000000)">
                    <g id="编组-19备份-3">
                        <ellipse id="椭圆形" fill="#23232D" cx="60" cy="118.115385" rx="60" ry="29.8846154"></ellipse>
                        <g id="路径-5" transform="translate(3.041499, 28.859533)">
                            <g id="编组-18" transform="translate(8.387072, 55.102005)">
                                <g id="编组-17" transform="translate(0.000000, 39.846154)">
                                    <ellipse id="椭圆形" fill="#F9B200" cx="12.8571429" cy="11.3846154" rx="12.8571429" ry="11.3846154"></ellipse>
                                    <ellipse id="椭圆形备份" stroke="#303040" stroke-width="0.5" cx="12.8571429" cy="11.3846154" rx="9.03571429" ry="7.57692308"></ellipse>
                                    <g id="编组-16" transform="translate(8.571429, 5.692308)" fill="#FFFFFF">
                                        <path d="M4.23428571,0.637538462 C5.26285714,0.637538462 6.08571429,0.868076923 6.67714286,1.34196154 C7.29428571,1.82865385 7.64142857,2.55869231 7.73142857,3.51926923 L6.69,3.51926923 C6.57428571,2.85326923 6.31714286,2.36657692 5.91857143,2.04638462 C5.50714286,1.71338462 4.92857143,1.55969231 4.18285714,1.55969231 C3.50142857,1.55969231 2.97428571,1.66215385 2.58857143,1.89269231 C2.15142857,2.14884615 1.93285714,2.53307692 1.93285714,3.05819231 C1.93285714,3.51926923 2.19,3.89069231 2.71714286,4.17246154 C2.87142857,4.25784615 3.17428571,4.37169231 3.62190476,4.514 L4.40142857,4.74880769 C5.61,5.10742308 6.40714286,5.402 6.79285714,5.63253846 C7.55142857,6.09361538 7.93714286,6.734 7.93714286,7.5665 C7.93714286,8.36057692 7.61571429,9.00096154 6.97285714,9.46203846 C6.33,9.91030769 5.46857143,10.1408462 4.37571429,10.1408462 C3.29571429,10.1408462 2.44714286,9.91030769 1.83,9.44923077 C1.11,8.8985 0.711428571,8.066 0.634285714,6.93892308 L1.67571429,6.93892308 C1.76571429,7.733 2.04857143,8.32215385 2.51142857,8.69357692 C2.93571429,9.02657692 3.55285714,9.20588462 4.37571429,9.20588462 C5.12142857,9.20588462 5.73857143,9.065 6.20142857,8.78323077 C6.66428571,8.50146154 6.89571429,8.11723077 6.89571429,7.63053846 C6.89571429,7.05419231 6.58714286,6.60592308 5.98285714,6.28573077 C5.72571429,6.13203846 5.07,5.91430769 4.04142857,5.61973077 L3.47791671,5.44586947 C2.69217237,5.19697107 2.17480519,5.00263287 1.93285714,4.87688462 C1.22571429,4.46703846 0.878571429,3.87788462 0.878571429,3.10942308 C0.878571429,2.31534615 1.21285714,1.68776923 1.89428571,1.25230769 C2.49857143,0.842461538 3.28285714,0.637538462 4.23428571,0.637538462 Z" id="S" fill-rule="nonzero"></path>
                                        <rect id="矩形" x="3.71428571" y="0" width="1.14285714" height="11.3846154"></rect>
                                    </g>
                                </g>
                                <g id="编组-17备份-2" transform="translate(24.285714, 27.038462)">
                                    <ellipse id="椭圆形" fill="#F9B200" cx="12.8571429" cy="11.3846154" rx="12.8571429" ry="11.3846154"></ellipse>
                                    <ellipse id="椭圆形备份" stroke="#303040" stroke-width="0.5" cx="12.8571429" cy="11.3846154" rx="9.03571429" ry="7.57692308"></ellipse>
                                    <g id="编组-16" transform="translate(12.857143, 11.384615) rotate(90.000000) translate(-12.857143, -11.384615) translate(8.571429, 5.692308)" fill="#FFFFFF">
                                        <path d="M4.23428571,0.637538462 C5.26285714,0.637538462 6.08571429,0.868076923 6.67714286,1.34196154 C7.29428571,1.82865385 7.64142857,2.55869231 7.73142857,3.51926923 L6.69,3.51926923 C6.57428571,2.85326923 6.31714286,2.36657692 5.91857143,2.04638462 C5.50714286,1.71338462 4.92857143,1.55969231 4.18285714,1.55969231 C3.50142857,1.55969231 2.97428571,1.66215385 2.58857143,1.89269231 C2.15142857,2.14884615 1.93285714,2.53307692 1.93285714,3.05819231 C1.93285714,3.51926923 2.19,3.89069231 2.71714286,4.17246154 C2.87142857,4.25784615 3.17428571,4.37169231 3.62190476,4.514 L4.40142857,4.74880769 C5.61,5.10742308 6.40714286,5.402 6.79285714,5.63253846 C7.55142857,6.09361538 7.93714286,6.734 7.93714286,7.5665 C7.93714286,8.36057692 7.61571429,9.00096154 6.97285714,9.46203846 C6.33,9.91030769 5.46857143,10.1408462 4.37571429,10.1408462 C3.29571429,10.1408462 2.44714286,9.91030769 1.83,9.44923077 C1.11,8.8985 0.711428571,8.066 0.634285714,6.93892308 L1.67571429,6.93892308 C1.76571429,7.733 2.04857143,8.32215385 2.51142857,8.69357692 C2.93571429,9.02657692 3.55285714,9.20588462 4.37571429,9.20588462 C5.12142857,9.20588462 5.73857143,9.065 6.20142857,8.78323077 C6.66428571,8.50146154 6.89571429,8.11723077 6.89571429,7.63053846 C6.89571429,7.05419231 6.58714286,6.60592308 5.98285714,6.28573077 C5.72571429,6.13203846 5.07,5.91430769 4.04142857,5.61973077 L3.47791671,5.44586947 C2.69217237,5.19697107 2.17480519,5.00263287 1.93285714,4.87688462 C1.22571429,4.46703846 0.878571429,3.87788462 0.878571429,3.10942308 C0.878571429,2.31534615 1.21285714,1.68776923 1.89428571,1.25230769 C2.49857143,0.842461538 3.28285714,0.637538462 4.23428571,0.637538462 Z" id="S" fill-rule="nonzero"></path>
                                        <rect id="矩形" x="3.71428571" y="0" width="1.14285714" height="11.3846154"></rect>
                                    </g>
                                </g>
                                <g id="编组-17备份-4" transform="translate(38.571429, 9.961538)">
                                    <ellipse id="椭圆形" fill="#F9B200" cx="12.8571429" cy="11.3846154" rx="12.8571429" ry="11.3846154"></ellipse>
                                    <ellipse id="椭圆形备份" stroke="#303040" stroke-width="0.5" cx="12.8571429" cy="11.3846154" rx="9.03571429" ry="7.57692308"></ellipse>
                                    <g id="编组-16" transform="translate(12.857143, 11.384615) rotate(90.000000) translate(-12.857143, -11.384615) translate(8.571429, 5.692308)" fill="#FFFFFF">
                                        <path d="M4.23428571,0.637538462 C5.26285714,0.637538462 6.08571429,0.868076923 6.67714286,1.34196154 C7.29428571,1.82865385 7.64142857,2.55869231 7.73142857,3.51926923 L6.69,3.51926923 C6.57428571,2.85326923 6.31714286,2.36657692 5.91857143,2.04638462 C5.50714286,1.71338462 4.92857143,1.55969231 4.18285714,1.55969231 C3.50142857,1.55969231 2.97428571,1.66215385 2.58857143,1.89269231 C2.15142857,2.14884615 1.93285714,2.53307692 1.93285714,3.05819231 C1.93285714,3.51926923 2.19,3.89069231 2.71714286,4.17246154 C2.87142857,4.25784615 3.17428571,4.37169231 3.62190476,4.514 L4.40142857,4.74880769 C5.61,5.10742308 6.40714286,5.402 6.79285714,5.63253846 C7.55142857,6.09361538 7.93714286,6.734 7.93714286,7.5665 C7.93714286,8.36057692 7.61571429,9.00096154 6.97285714,9.46203846 C6.33,9.91030769 5.46857143,10.1408462 4.37571429,10.1408462 C3.29571429,10.1408462 2.44714286,9.91030769 1.83,9.44923077 C1.11,8.8985 0.711428571,8.066 0.634285714,6.93892308 L1.67571429,6.93892308 C1.76571429,7.733 2.04857143,8.32215385 2.51142857,8.69357692 C2.93571429,9.02657692 3.55285714,9.20588462 4.37571429,9.20588462 C5.12142857,9.20588462 5.73857143,9.065 6.20142857,8.78323077 C6.66428571,8.50146154 6.89571429,8.11723077 6.89571429,7.63053846 C6.89571429,7.05419231 6.58714286,6.60592308 5.98285714,6.28573077 C5.72571429,6.13203846 5.07,5.91430769 4.04142857,5.61973077 L3.47791671,5.44586947 C2.69217237,5.19697107 2.17480519,5.00263287 1.93285714,4.87688462 C1.22571429,4.46703846 0.878571429,3.87788462 0.878571429,3.10942308 C0.878571429,2.31534615 1.21285714,1.68776923 1.89428571,1.25230769 C2.49857143,0.842461538 3.28285714,0.637538462 4.23428571,0.637538462 Z" id="S" fill-rule="nonzero"></path>
                                        <rect id="矩形" x="3.71428571" y="0" width="1.14285714" height="11.3846154"></rect>
                                    </g>
                                </g>
                                <g id="编组-17备份" transform="translate(83.685576, 44.852586) rotate(165.000000) translate(-83.685576, -44.852586) translate(70.828434, 33.467970)">
                                    <ellipse id="椭圆形" fill="#F9B200" cx="12.8571429" cy="11.3846154" rx="12.8571429" ry="11.3846154"></ellipse>
                                    <ellipse id="椭圆形备份" stroke="#303040" stroke-width="0.5" cx="12.8571429" cy="11.3846154" rx="9.03571429" ry="7.57692308"></ellipse>
                                    <g id="编组-16" transform="translate(8.571429, 5.692308)" fill="#FFFFFF">
                                        <path d="M4.23428571,0.637538462 C5.26285714,0.637538462 6.08571429,0.868076923 6.67714286,1.34196154 C7.29428571,1.82865385 7.64142857,2.55869231 7.73142857,3.51926923 L6.69,3.51926923 C6.57428571,2.85326923 6.31714286,2.36657692 5.91857143,2.04638462 C5.50714286,1.71338462 4.92857143,1.55969231 4.18285714,1.55969231 C3.50142857,1.55969231 2.97428571,1.66215385 2.58857143,1.89269231 C2.15142857,2.14884615 1.93285714,2.53307692 1.93285714,3.05819231 C1.93285714,3.51926923 2.19,3.89069231 2.71714286,4.17246154 C2.87142857,4.25784615 3.17428571,4.37169231 3.62190476,4.514 L4.40142857,4.74880769 C5.61,5.10742308 6.40714286,5.402 6.79285714,5.63253846 C7.55142857,6.09361538 7.93714286,6.734 7.93714286,7.5665 C7.93714286,8.36057692 7.61571429,9.00096154 6.97285714,9.46203846 C6.33,9.91030769 5.46857143,10.1408462 4.37571429,10.1408462 C3.29571429,10.1408462 2.44714286,9.91030769 1.83,9.44923077 C1.11,8.8985 0.711428571,8.066 0.634285714,6.93892308 L1.67571429,6.93892308 C1.76571429,7.733 2.04857143,8.32215385 2.51142857,8.69357692 C2.93571429,9.02657692 3.55285714,9.20588462 4.37571429,9.20588462 C5.12142857,9.20588462 5.73857143,9.065 6.20142857,8.78323077 C6.66428571,8.50146154 6.89571429,8.11723077 6.89571429,7.63053846 C6.89571429,7.05419231 6.58714286,6.60592308 5.98285714,6.28573077 C5.72571429,6.13203846 5.07,5.91430769 4.04142857,5.61973077 L3.47791671,5.44586947 C2.69217237,5.19697107 2.17480519,5.00263287 1.93285714,4.87688462 C1.22571429,4.46703846 0.878571429,3.87788462 0.878571429,3.10942308 C0.878571429,2.31534615 1.21285714,1.68776923 1.89428571,1.25230769 C2.49857143,0.842461538 3.28285714,0.637538462 4.23428571,0.637538462 Z" id="S" fill-rule="nonzero"></path>
                                        <rect id="矩形" x="3.71428571" y="0" width="1.14285714" height="11.3846154"></rect>
                                    </g>
                                </g>
                                <g id="编组-17备份-3" transform="translate(17.142857, 17.076923) rotate(145.000000) translate(-17.142857, -17.076923) translate(4.285714, 5.692308)">
                                    <ellipse id="椭圆形" fill="#F9B200" cx="12.8571429" cy="11.3846154" rx="12.8571429" ry="11.3846154"></ellipse>
                                    <ellipse id="椭圆形备份" stroke="#303040" stroke-width="0.5" cx="12.8571429" cy="11.3846154" rx="9.03571429" ry="7.57692308"></ellipse>
                                    <g id="编组-16" transform="translate(8.571429, 5.692308)" fill="#FFFFFF">
                                        <path d="M4.23428571,0.637538462 C5.26285714,0.637538462 6.08571429,0.868076923 6.67714286,1.34196154 C7.29428571,1.82865385 7.64142857,2.55869231 7.73142857,3.51926923 L6.69,3.51926923 C6.57428571,2.85326923 6.31714286,2.36657692 5.91857143,2.04638462 C5.50714286,1.71338462 4.92857143,1.55969231 4.18285714,1.55969231 C3.50142857,1.55969231 2.97428571,1.66215385 2.58857143,1.89269231 C2.15142857,2.14884615 1.93285714,2.53307692 1.93285714,3.05819231 C1.93285714,3.51926923 2.19,3.89069231 2.71714286,4.17246154 C2.87142857,4.25784615 3.17428571,4.37169231 3.62190476,4.514 L4.40142857,4.74880769 C5.61,5.10742308 6.40714286,5.402 6.79285714,5.63253846 C7.55142857,6.09361538 7.93714286,6.734 7.93714286,7.5665 C7.93714286,8.36057692 7.61571429,9.00096154 6.97285714,9.46203846 C6.33,9.91030769 5.46857143,10.1408462 4.37571429,10.1408462 C3.29571429,10.1408462 2.44714286,9.91030769 1.83,9.44923077 C1.11,8.8985 0.711428571,8.066 0.634285714,6.93892308 L1.67571429,6.93892308 C1.76571429,7.733 2.04857143,8.32215385 2.51142857,8.69357692 C2.93571429,9.02657692 3.55285714,9.20588462 4.37571429,9.20588462 C5.12142857,9.20588462 5.73857143,9.065 6.20142857,8.78323077 C6.66428571,8.50146154 6.89571429,8.11723077 6.89571429,7.63053846 C6.89571429,7.05419231 6.58714286,6.60592308 5.98285714,6.28573077 C5.72571429,6.13203846 5.07,5.91430769 4.04142857,5.61973077 L3.47791671,5.44586947 C2.69217237,5.19697107 2.17480519,5.00263287 1.93285714,4.87688462 C1.22571429,4.46703846 0.878571429,3.87788462 0.878571429,3.10942308 C0.878571429,2.31534615 1.21285714,1.68776923 1.89428571,1.25230769 C2.49857143,0.842461538 3.28285714,0.637538462 4.23428571,0.637538462 Z" id="S" fill-rule="nonzero"></path>
                                        <rect id="矩形" x="3.71428571" y="0" width="1.14285714" height="11.3846154"></rect>
                                    </g>
                                </g>
                            </g>
                            <path d="M71.7426723,89.1206742 C74.1130171,87.6384021 76.8858146,86.0133526 78.8348701,84.207487 C80.1342405,83.0035766 81.8463019,81.191829 83.9710544,78.7722441 C84.8357453,79.3736357 85.8343198,80.5042744 86.9667778,82.1641603 C88.6654648,84.6539891 83.6400587,86.7656936 80.6581268,87.7817044 C77.6761948,88.7977151 72.5317277,89.4499513 71.7426723,89.1206742 Z" id="路径-2" fill="#36364F"></path>
                            <path d="M20.4151511,76.4434958 C23.0318406,73.1300474 26.2402193,70.4511074 30.040287,68.4066758 C33.8403547,66.3622442 39.9680742,66.964076 48.4234453,70.2121712 L52.6970186,70.2121712 L49.7934655,74.4956565 L87.3089282,74.4956565 C88.6661895,82.8747555 87.8853457,88.7763867 84.9663968,92.20055 C82.047448,95.6247133 79.0711563,99.2944178 76.0375218,103.209663 C86.6343439,101.919417 94.1466209,99.9036844 98.5743526,97.1624667 C103.002084,94.421249 108.143541,90.8369926 113.998724,86.4096975 L86.3808786,54.808307 C65.4710109,45.800664 48.8818494,43.8793731 36.6133942,49.0444345 C18.2107114,56.7920266 9.16165188,58.8679309 11.3580255,65.0746396 C12.8222747,69.2124454 15.8413165,73.0020641 20.4151511,76.4434958 Z" id="路径-3" fill="#23232D" opacity="0.901828"></path>
                            <path d="M20.4151511,76.4434958 C23.0318406,73.1300474 26.2402193,70.4511074 30.040287,68.4066758 C33.8403547,66.3622442 39.9680742,66.964076 48.4234453,70.2121712 L52.6970186,70.2121712 L49.7934655,74.4956565 L87.3089282,74.4956565 C84.185553,88.4836557 83.4047092,94.3852869 84.9663968,92.20055 C86.5280844,90.0158131 89.8111668,84.7760971 94.8156439,76.481402 L86.3808786,54.808307 C65.4710109,45.800664 48.8818494,43.8793731 36.6133942,49.0444345 C18.2107114,56.7920266 9.16165188,58.8679309 11.3580255,65.0746396 C12.8222747,69.2124454 15.8413165,73.0020641 20.4151511,76.4434958 Z" id="路径-3备份" fill="#36364F"></path>
                            <mask id="mask-2" fill="white">
                                <use xlink:href="#path-1"></use>
                            </mask>
                            <use id="蒙版" fill="#45456A" xlink:href="#path-1"></use>
                            <path d="M15.2622784,103.47711 C20.0261496,98.8887653 22.5988323,94.8598841 22.9803264,91.3904667 C23.3618205,87.9210492 22.6161526,83.74429 20.7433228,78.8601891 C22.0520688,78.1003581 25.6476562,78.345472 31.5300851,79.5955309 C40.3537284,81.4706193 41.5759845,95.6254491 38.2132716,99.5512797 C34.8505587,103.47711 19.589454,114.662188 17.4258662,110.155965 C15.9834744,107.151816 15.2622784,104.925531 15.2622784,103.47711 Z" fill="#36364F" mask="url(#mask-2)"></path>
                        </g>
                        <path d="M44.6600421,34.8554204 C63.4908331,36.0321205 76.399604,39.6549364 83.3863549,45.723868 C93.8664811,54.8272654 94.9736039,56.095063 99.412319,62.4709162 C103.851034,68.8467694 106.717667,74.9303727 107.773187,82.5428476 C108.476868,87.6178309 108.751562,91.1578856 108.59727,93.1630119" id="路径-11" stroke="#272736" stroke-linecap="round"></path>
                        <path d="M65.7650455,40.9986383 C71.5833492,45.0203724 74.492501,49.0319095 74.492501,53.0332495 C74.492501,59.0352595 69.2508471,70.8768605 72.1755653,78.1521152 C74.1253774,83.002285 78.1530956,87.3690286 84.2587201,91.2523458" id="路径-8" stroke="#616184" stroke-linecap="round"></path>
                        <path d="M70.4816502,26.1274705 C76.4001947,27.6394727 77.2537631,31.0009271 77.7728163,34.9364055 C78.2918695,38.871884 73.4507223,43.9000574 68.7235225,44.1277319 C63.9963227,44.3554063 59.6354889,41.0050416 59.6354889,34.5564211 C59.6354889,28.1078006 64.5631057,24.6154683 70.4816502,26.1274705 Z" id="路径-7" stroke="#616184"></path>
                        <g id="路径-9-+-路径-10-蒙版" transform="translate(52.886181, 0.155861)">
                            <mask id="mask-4" fill="white">
                                <use xlink:href="#path-3"></use>
                            </mask>
                            <use id="蒙版" fill="#45456A" xlink:href="#path-3"></use>
                            <path d="M30.9921991,29.3080242 C30.3155687,30.5515558 29.599323,31.6624724 28.8773076,32.5749079 C25.66333,36.6365211 23.3057611,39.6768108 19.7051977,42.388401 C17.3048221,44.1961278 14.579606,44.1961278 11.5295495,42.388401 C9.25319483,41.4469027 6.94930322,37.7336181 4.61787464,31.248547 C4.52234985,30.9828365 2.54357105,26.899447 2.45112795,26.6392925" id="路径" stroke="#272736" stroke-width="1.6" stroke-linecap="round" stroke-linejoin="round" mask="url(#mask-4)"></path>
                            <path d="M11.5295495,21.0415487 C9.25319483,20.1000504 6.94930322,16.3867658 4.61787464,9.90169471 C4.52234985,9.63598418 2.54357105,5.55259474 2.45112795,5.2924402 C0.287355842,-0.796874078 -1.22114803,-4.09082208 -0.665976394,-8.54445849 C-0.110804757,-12.9980949 2.9117604,-21.0761669 11.0884065,-21.3398346 C19.2650525,-21.6035024 21.0122638,-13.5284303 24.3206788,-13.5284303 C27.6290938,-13.5284303 28.8266077,-15.1772519 31.4850727,-15.1772519 C34.1435378,-15.1772519 35.7093445,-12.3402103 35.7093445,-6.22249865 C35.7093445,-0.104786982 32.0912853,7.16644237 28.8773076,11.2280556 C25.66333,15.2896688 23.3057611,18.3299586 19.7051977,21.0415487 C17.3048221,22.8492755 14.579606,22.8492755 11.5295495,21.0415487 Z" id="路径-4备份" fill="#36364F" mask="url(#mask-4)" transform="translate(17.463833, 0.525595) scale(1, -1) translate(-17.463833, -0.525595) "></path>
                            <line x1="18.5785331" y1="28.4029031" x2="15.2005403" y2="43.2712139" id="路径-10" stroke="#272736" stroke-linecap="round" mask="url(#mask-4)"></line>
                        </g>
                    </g>
                </g>
            </g>
        </g>
    </g>
</svg>