<?xml version="1.0" encoding="UTF-8"?>
<svg width="120px" height="148px" viewBox="0 0 120 148" version="1.1" xmlns="http://www.w3.org/2000/svg" xmlns:xlink="http://www.w3.org/1999/xlink">
    <!-- Generator: Sketch 59.1 (86144) - https://sketch.com -->
    <title>home_loudou_over</title>
    <desc>Created with Sketch.</desc>
    <g id="页面-1" stroke="none" stroke-width="1" fill="none" fill-rule="evenodd">
        <g id="已结束_en" transform="translate(-128.000000, -294.000000)" fill-rule="nonzero">
            <g id="编组-13备份-3" transform="translate(15.000000, 282.000000)">
                <g id="编组-11" transform="translate(113.000000, 12.000000)">
                    <g id="loudou备份-3">
                        <path d="M7.58782206,136.16 L114.379391,136.16 C117.483568,136.16 120,138.810474 120,142.08 C120,145.349526 117.483568,148 114.379391,148 L7.58782206,148 C4.48364545,148 1.96721311,145.349526 1.96721311,142.08 C1.96721311,138.810474 4.48364545,136.16 7.58782206,136.16 L7.58782206,136.16 Z" id="路径" fill="#434368"></path>
                        <path d="M12.8648405,8.27972028 L111.046922,8.27972028 C111.270127,9.28374528 111.43753,10.2970668 111.549133,11.3196849 C115.566814,45.9306587 89.8982955,74.5174825 62.5557437,74.5174825 C35.2131918,74.5174825 5.19218571,50.6439985 12.3347298,11.0407891 C12.4463321,10.1297293 12.6230356,9.20937304 12.8648405,8.27972028 Z" id="路径" fill="#36364F"></path>
                        <path d="M6.94322076,0 L112.987996,0 C116.070465,0 118.5693,2.59486999 118.5693,5.7958042 C118.5693,8.9967384 116.070465,11.5916084 112.987996,11.5916084 L6.94322076,11.5916084 C3.86075168,11.5916084 1.36191677,8.99673847 1.36191677,5.7958042 C1.36191677,2.59486993 3.86075168,0 6.94322076,0 L6.94322076,0 Z" id="路径" fill="#434368"></path>
                        <path d="M10.0544765,139.099301 L10.0544765,138.683644 C6.16547371,104.045597 28.7667794,82.2929035 53.1434994,79.1616241 C57.1170456,78.1640483 57.3143139,75.7532403 53.1434994,73.9797722 C52.0162522,72.4834086 70.390381,72.3448563 65.853211,74.4508496 C61.3160411,76.5568429 62.7532813,78.6628362 65.853211,78.9953615 C91.4699028,81.1290653 114.550289,104.682937 111.732171,139.07159 L10.0544765,139.07159 L10.0544765,139.099301 Z" id="路径" fill="#36364F"></path>
                        <path d="M111.855126,139.099301 L9.8,139.099301 C18.4856889,134.43952 24.725505,131.091293 28.5194483,129.054619 C40.4670229,122.640892 47.0701997,118.647087 61.8054714,118.647087 C75.6122699,118.647087 82.2637677,122.842672 94.5939569,129.42754 C98.4184051,131.469966 104.172128,134.693886 111.855126,139.099301 Z" id="路径" fill="#3D3D60"></path>
                        <path d="M21.1716153,39.5593398 C30.6636582,32.8628042 42.8325338,31.2786473 53.7143284,35.3228954 C64.596123,39.3671435 72.7980084,48.5221483 75.6482861,59.8057404 C66.1485261,66.5018169 53.9716209,68.0788582 43.0877871,64.0226782 C32.2039533,59.9664981 24.0077906,50.7968354 21.1716153,39.5034106 L21.1716153,39.5593398 Z" id="路径" fill="#45456A"></path>
                        <path d="M100.410409,34.7944618 C90.8909717,30.0596106 79.6879112,30.3885103 70.4534081,35.6739401 C61.2189049,40.9593698 55.1360257,50.5241934 54.1877794,61.2502935 C63.707217,65.9851446 74.9102774,65.6562449 84.1447806,60.3708152 C93.3792838,55.0853855 99.462163,45.5205618 100.410409,34.7944618 L100.410409,34.7944618 Z" id="路径" fill="#45456A"></path>
                        <path d="M64.3007786,37.8660153 C65.3431454,41.830915 70.2001456,44.432048 77.0420195,44.6894992 C83.8838934,44.9469503 91.6710791,42.8216021 97.4699387,39.1141292 C103.268798,35.4066563 106.198247,30.6803762 105.154684,26.7158029 C104.112317,22.7509032 99.255317,20.1497702 92.4134431,19.892319 C85.5715692,19.6348679 77.7843835,21.7602161 71.9855238,25.467689 C66.1866642,29.1751619 63.2572156,33.901442 64.3007786,37.8660153 L64.3007786,37.8660153 Z" id="路径" fill="#3D3D60"></path>
                    </g>
                </g>
            </g>
        </g>
    </g>
</svg>