<?xml version="1.0" encoding="UTF-8"?>
<svg width="60px" height="74px" viewBox="0 0 60 74" version="1.1" xmlns="http://www.w3.org/2000/svg" xmlns:xlink="http://www.w3.org/1999/xlink">
    <!-- Generator: Sketch 59.1 (86144) - https://sketch.com -->
    <title>home_loudou_not start</title>
    <desc>Created with Sketch.</desc>
    <g id="页面-1" stroke="none" stroke-width="1" fill="none" fill-rule="evenodd">
        <g id="已登录_已激活_en" transform="translate(-158.000000, -294.000000)" fill-rule="nonzero">
            <g id="编组-26备份-6" transform="translate(15.000000, 282.000000)">
                <g id="编组-16" transform="translate(143.000000, 12.000000)">
                    <g id="loudou">
                        <path d="M3.79391103,68.08 L57.1896956,68.08 C58.7417839,68.08 60,69.4052372 60,71.04 C60,72.6747628 58.7417839,74 57.1896956,74 L3.79391103,74 C2.24182273,74 0.983606557,72.6747629 0.983606557,71.04 C0.983606557,69.4052371 2.24182273,68.08 3.79391103,68.08 L3.79391103,68.08 Z" id="路径" fill="#434368"></path>
                        <path d="M6.43242023,4.13986014 L55.5234612,4.13986014 C55.6350635,4.64187264 55.7187652,5.14853341 55.7745663,5.65984245 C57.7834069,22.9653294 44.9491478,37.2587413 31.2778718,37.2587413 C17.6065959,37.2587413 2.59609286,25.3219992 6.16736491,5.52039454 C6.22316603,5.06486465 6.3115178,4.60468652 6.43242023,4.13986014 Z" id="路径" fill="#36364F"></path>
                        <path d="M3.47161038,0 L56.4939979,0 C58.0352324,0 59.2846498,1.29743499 59.2846498,2.8979021 C59.2846498,4.4983692 58.0352324,5.7958042 56.4939979,5.7958042 L3.47161038,5.7958042 C1.93037584,5.7958042 0.680958386,4.49836923 0.680958386,2.8979021 C0.680958386,1.29743496 1.93037584,0 3.47161038,0 L3.47161038,0 Z" id="路径" fill="#434368"></path>
                        <path d="M5.02723823,69.5496503 L5.02723823,69.341822 C3.08273685,52.0227985 14.3833897,41.1464518 26.5717497,39.580812 C28.5585228,39.0820241 28.6571569,37.8766201 26.5717497,36.9898861 C26.0081261,36.2417043 35.1951905,36.1724282 32.9266055,37.2254248 C30.6580205,38.2784214 31.3766407,39.3314181 32.9266055,39.4976808 C45.7349514,40.5645326 57.2751443,52.3414686 55.8660853,69.5357951 L5.02723823,69.5357951 L5.02723823,69.5496503 Z" id="路径" fill="#36364F"></path>
                        <path d="M10.5858076,19.7796699 C15.3318291,16.4314021 21.4162669,15.6393236 26.8571642,17.6614477 C32.2980615,19.6835717 36.3990042,24.2610742 37.8241431,29.9028702 C33.074263,33.2509085 26.9858105,34.0394291 21.5438935,32.0113391 C16.1019766,29.9832491 12.0038953,25.3984177 10.5858076,19.7517053 L10.5858076,19.7796699 Z" id="路径" fill="#45456A"></path>
                        <path d="M50.2052046,17.3972309 C45.4454858,15.0298053 39.8439556,15.1942552 35.226704,17.83697 C30.6094525,20.4796849 27.5680128,25.2620967 27.0938897,30.6251467 C31.8536085,32.9925723 37.4551387,32.8281225 42.0723903,30.1854076 C46.6896419,27.5426927 49.7310815,22.7602809 50.2052046,17.3972309 L50.2052046,17.3972309 Z" id="路径" fill="#45456A"></path>
                        <path d="M32.1503893,18.9330076 C32.6715727,20.9154575 35.1000728,22.216024 38.5210098,22.3447496 C41.9419467,22.4734752 45.8355395,21.4108011 48.7349694,19.5570646 C51.6343992,17.7033281 53.0991235,15.3401881 52.577342,13.3579015 C52.0561586,11.3754516 49.6276585,10.0748851 46.2067215,9.94615951 C42.7857846,9.81743394 38.8921918,10.880108 35.9927619,12.7338445 C33.0933321,14.587581 31.6286078,16.950721 32.1503893,18.9330076 L32.1503893,18.9330076 Z" id="路径" fill="#3D3D60"></path>
                    </g>
                </g>
            </g>
        </g>
    </g>
</svg>