<?xml version="1.0" encoding="UTF-8"?>
<svg width="66px" height="8px" viewBox="0 0 66 8" version="1.1" xmlns="http://www.w3.org/2000/svg" xmlns:xlink="http://www.w3.org/1999/xlink">
    <!-- Generator: Sketch 59.1 (86144) - https://sketch.com -->
    <title>Invite_you</title>
    <desc>Created with Sketch.</desc>
    <defs>
        <linearGradient x1="50%" y1="14.8505681%" x2="50%" y2="71.1855596%" id="linearGradient-1">
            <stop stop-color="#17E398" offset="0%"></stop>
            <stop stop-color="#14B67A" offset="100%"></stop>
        </linearGradient>
        <linearGradient x1="50%" y1="13.9421594%" x2="50%" y2="71.3962009%" id="linearGradient-2">
            <stop stop-color="#14CC88" offset="0%"></stop>
            <stop stop-color="#14B67A" offset="100%"></stop>
        </linearGradient>
        <linearGradient x1="0%" y1="50%" x2="94.3246492%" y2="50%" id="linearGradient-3">
            <stop stop-color="#14B67A" offset="0%"></stop>
            <stop stop-color="#14B67A" stop-opacity="0" offset="100%"></stop>
        </linearGradient>
    </defs>
    <g id="页面-1" stroke="none" stroke-width="1" fill="none" fill-rule="evenodd">
        <g id="二级_邀请页_cn" transform="translate(-232.000000, -411.000000)">
            <g id="编组-26" transform="translate(73.000000, 404.000000)">
                <g id="编组-16" transform="translate(0.000000, 6.000000)">
                    <g id="编组-22" transform="translate(159.000000, 0.000000)">
                        <g id="现在已满备份-2" stroke-linejoin="round">
                            <polygon id="矩形" fill="url(#linearGradient-1)" points="3 4.33651037 5.79158401 2.95581732 5.79158401 6.55030441 3 7.89477807"></polygon>
                            <polygon id="矩形" fill="url(#linearGradient-2)" transform="translate(1.606397, 5.425298) scale(-1, 1) translate(-1.606397, -5.425298) " points="0.212793255 4.33651037 3 2.95581732 3 6.55030441 0.212793255 7.89477807"></polygon>
                            <polygon id="矩形" fill="#17E398" transform="translate(3.002189, 2.955817) rotate(-315.000000) translate(-3.002189, -2.955817) " points="2.00077628 1.95750016 4.97458902 0.983416936 3.97693845 3.93366234 1.02978825 4.92821771"></polygon>
                        </g>
                        <polygon id="矩形" fill="url(#linearGradient-3)" points="10 4 70 5 10 6"></polygon>
                    </g>
                </g>
            </g>
        </g>
    </g>
</svg>