<?xml version="1.0" encoding="UTF-8"?>
<svg width="164px" height="61px" viewBox="0 0 164 61" version="1.1" xmlns="http://www.w3.org/2000/svg" xmlns:xlink="http://www.w3.org/1999/xlink">
    <!-- Generator: Sketch 59.1 (86144) - https://sketch.com -->
    <title>logo</title>
    <desc>Created with Sketch.</desc>
    <g id="页面-1" stroke="none" stroke-width="1" fill="none" fill-rule="evenodd">
        <g id="加载中" transform="translate(-106.000000, -612.000000)">
            <g id="编组备份" transform="translate(106.000000, 612.000000)">
                <path d="M88,57.4348652 L88,59.4348652 L76,59.4348652 L76,57.4348652 L88,57.4348652 Z M123,57.4348652 L123,59.4348652 L111,59.4348652 L111,57.4348652 L123,57.4348652 Z M163,15.4325785 L163,59.4325785 L157,59.4325785 L157,19.4325785 L150.656,19.4325785 L136.276938,33.8077132 L136.273806,33.8028652 L135.99551,34.0815697 L121.338,19.4345785 L113.493,19.4343939 L117.493,15.4343939 L123,15.4348652 L135.998806,28.4288652 L148.997379,15.4350199 L163,15.4325785 Z M46,23.4325785 L50,27.4225785 L63.005,40.4255785 L76,27.4415785 L76,27.4348652 L93.4981045,27.4334813 L95.4981045,29.4334813 L76.001,29.4345785 L76,32.9749523 L63.0044899,46.0815697 L50,33.0755785 L50,59.4325785 L46,59.4325785 L46,23.4325785 Z M153,23.4325785 L153,59.4325785 L149,59.4325785 L149,33.0755785 L135.99551,46.0815697 L123,32.9749523 L122.998,29.4345785 L103.492104,29.4334813 L105.492104,27.4334813 L123,27.4348652 L123,27.4425785 L135.995,40.4255785 L149,27.4225785 L153,23.4325785 Z M21,59.4325785 C9.954305,59.4325785 1,50.4782735 1,39.4325785 C1,28.3868835 9.954305,19.4325785 21,19.4325785 L27.999,19.4315785 L27.9990628,9.66857851 L31.9980628,5.66957851 L32,49.4325785 L21,49.4325785 C15.4771525,49.4325785 11,44.955426 11,39.4325785 C11,33.909731 15.4771525,29.4325785 21,29.4325785 L26,29.4315785 L26,33.4315785 L21,33.4325785 C17.6862915,33.4325785 15,36.11887 15,39.4325785 C15,42.6709755 17.5655749,45.3101503 20.7750617,45.42844 L21,45.4325785 L28,45.4315785 L27.999,25.4315785 L21,25.4325785 C13.3724998,25.4325785 7.16967311,31.5323309 7.00342205,39.1199335 L7,39.4325785 C7,47.0600787 13.0997524,53.2629054 20.687355,53.4291565 L21,53.4325785 L36,53.4325785 L36,15.4325785 L50.0026215,15.4350199 L63.0011943,28.4288652 L76,15.4348652 L81.498,15.4343939 L85.498,19.4343939 L77.661,19.4345785 L63.0044899,34.0815697 L62.7261943,33.8028652 L62.7230619,33.8077132 L48.344,19.4325785 L42,19.4325785 L42,59.4325785 L21,59.4325785 Z M123,52.4348652 L123,54.4348652 L111,54.4348652 L111,52.4348652 L123,52.4348652 Z M88,52.4348652 L88,54.4348652 L76,54.4348652 L76,52.4348652 L88,52.4348652 Z M88,47.4348652 L88,49.4348652 L76,49.4348652 L76,47.4348652 L88,47.4348652 Z M123,47.4348652 L123,49.4348652 L111,49.4348652 L111,47.4348652 L123,47.4348652 Z M101.499104,46.4334813 L99.4991045,48.4334813 L97.4991045,46.4334813 L101.499104,46.4334813 Z M123,42.4348652 L123,44.4348652 L111,44.4348652 L111,42.4348652 L123,42.4348652 Z M88,42.4348652 L88,44.4348652 L76,44.4348652 L76,42.4348652 L88,42.4348652 Z M107.499104,42.4334813 L105.499104,44.4334813 L93.4991045,44.4334813 L91.4991045,42.4334813 L107.499104,42.4334813 Z M123,37.4334813 L123,39.4334813 L76,39.4348652 L76,37.4348652 L123,37.4334813 Z M100.493104,32.4324813 L122.999104,32.4334813 L122.999104,34.4334813 L76,34.4348652 L76,32.4348652 L98.4971045,32.4324813 L99.4958612,33.4311702 L100.493104,32.4324813 Z M88.4981045,22.4334813 L90.4981045,24.4334813 L76,24.4348652 L76,22.4348652 L88.4981045,22.4334813 Z M110.493104,22.4334813 L123,22.4348652 L123,24.4348652 L108.492104,24.4334813 L110.493104,22.4334813 Z" id="形状" fill="#14B67A"></path>
                <polygon id="路径" fill="#EC4342" points="155.258623 1 153.727076 8.94707212 153.724807 8.94596538 152.678978 14.371521 150.662897 10.137 136.006623 24.794092 120.253897 9.03941433 99.5001106 29.7910361 85.131897 15.4325785 99.487897 26.8764143 118.167897 6.95341433 118.143646 6.92911477 120.25 4.73257851 136.395897 19.2914143 146.675897 6.629 142.299698 5.19158837"></polygon>
            </g>
        </g>
    </g>
</svg>