<?xml version="1.0" standalone="no"?><!DOCTYPE svg PUBLIC "-//W3C//DTD SVG 1.1//EN" "http://www.w3.org/Graphics/SVG/1.1/DTD/svg11.dtd" ><svg xmlns="http://www.w3.org/2000/svg"><metadata></metadata><defs><font id="San Francisco Text Medium; 10.0d80e1; 2015-03-03" horiz-adv-x="2104"><font-face font-family="San Francisco Text" font-weight="500" font-stretch="normal" units-per-em="2048" panose-1="2 1 6 4 3 2 2 6 2 4" ascent="1950" descent="-494" x-height="4" bbox="-511 -495 2063 1956" underline-thickness="102" underline-position="-110" unicode-range="U+0020-fb02" /><missing-glyph horiz-adv-x="1293" d="M120 0 l0 1365 l1053 0 l0 -1365 l-1053 0 ZM501 313 q0 -47 33.5 -77 q33.5 -30 86.5 -30 q55 0 88.5 29.5 q33.5 29.5 33.5 77.5 q0 49 -33.5 78.5 q-33.5 29.5 -88.5 29.5 q-54 0 -87 -30 q-33 -30 -33 -78 ZM339 888 l169 0 q1 59 34.5 94.5 q33.5 35.5 90.5 35.5 q54 0 87 -30 q33 -30 33 -80 q0 -38 -20.5 -65.5 q-20.5 -27.5 -82.5 -72.5 q-69 -48 -96 -100 q-27 -52 -22 -121 l1 -18 l166 0 l0 15 q0 48 19 76 q19 28 88 77 q73 52 103 102 q30 50 30 116 q0 113 -81 181.5 q-81 68.5 -215 68.5 q-143 0 -225.5 -76 q-82.5 -76 -78.5 -203 Z" /><glyph glyph-name="space" unicode=" " d="" /><glyph glyph-name="exclam" unicode="!" d="M139 126 q0 65 43 106.5 q43 41.5 108 41.5 q68 0 111.5 -41.5 q43.5 -41.5 43.5 -106.5 q0 -63 -43.5 -103.5 q-43.5 -40.5 -111.5 -40.5 q-65 0 -108 40.5 q-43 40.5 -43 103.5 ZM179 1365 l226 0 l-25 -888 l-177 0 l-24 888 Z" /><glyph glyph-name="quotedbl" unicode="&quot;" d="M133 1365 l223 0 l-29 -525 l-165 0 l-29 525 ZM552 1365 l223 0 l-29 -525 l-165 0 l-29 525 Z" /><glyph glyph-name="numbersign" unicode="#" d="M1176 834 l-216 0 l-61 -290 l203 0 l-31 -165 l-204 0 l-77 -379 l-158 0 l77 379 l-269 0 l-77 -379 l-159 0 l77 379 l-202 0 l32 165 l203 0 l61 290 l-193 0 l31 164 l194 0 l74 367 l160 0 l-76 -367 l269 0 l75 367 l158 0 l-75 -367 l214 0 l-30 -164 ZM528 845 l-65 -312 l283 0 l65 312 l-283 0 Z" /><glyph glyph-name="dollar" unicode="$" d="M306 1017 q0 -127 161 -185 q40 -12 52 -15 l0 399 q-95 -11 -154 -62.5 q-59 -51.5 -59 -136.5 ZM895 377 q0 76 -47.5 126 q-47.5 50 -163.5 83 q-5 2 -16 4.5 q-11 2.5 -14 3.5 l0 -431 q109 9 175 65.5 q66 56.5 66 148.5 ZM655 -129 l-138 0 l1 126 q-208 16 -317.5 125.5 q-109.5 109.5 -111.5 259.5 l184 0 q6 -86 69.5 -144.5 q63.5 -58.5 176.5 -73.5 l0 460 l-77 20 q-65 16 -119.5 43.5 q-54.5 27.5 -101.5 69.5 q-47 42 -73.5 105 q-26.5 63 -26.5 141 q0 85 30.5 153.5 q30.5 68.5 85 115 q54.5 46.5 125.5 74.5 q71 28 156 36 l0 131 l137 0 l0 -131 q173 -17 284.5 -117.5 q111.5 -100.5 115.5 -257.5 l-181 0 q-2 80 -61 138 q-59 58 -159 71 l0 -433 l81 -19 q167 -41 255.5 -127.5 q88.5 -86.5 88.5 -243.5 q0 -175 -116.5 -276.5 q-116.5 -101.5 -307.5 -117.5 l0 -128 Z" /><glyph glyph-name="percent" unicode="%" d="M182 1037 l0 -9 q0 -99 37 -157 q37 -58 105 -58 q66 0 104 57.5 q38 57.5 38 155.5 l0 9 q0 98 -37 155 q-37 57 -105 57 q-69 0 -105.5 -57.5 q-36.5 -57.5 -36.5 -152.5 ZM41 1018 l0 29 q0 142 76.5 236.5 q76.5 94.5 206.5 94.5 q130 0 206.5 -94.5 q76.5 -94.5 76.5 -239.5 l0 -28 q0 -142 -77 -238.5 q-77 -96.5 -209 -96.5 q-130 0 -205 95.5 q-75 95.5 -75 241.5 ZM983 344 l0 -9 q0 -99 37.5 -157 q37.5 -58 104.5 -58 q67 0 105 57 q38 57 38 155 l0 9 q0 98 -37 155.5 q-37 57.5 -105 57.5 q-69 0 -106 -57.5 q-37 -57.5 -37 -152.5 ZM843 325 l0 28 q0 142 76.5 237 q76.5 95 206.5 95 q130 0 206.5 -95 q76.5 -95 76.5 -239 l0 -29 q0 -141 -77 -237.5 q-77 -96.5 -209 -96.5 q-130 0 -205 95.5 q-75 95.5 -75 241.5 ZM284 0 l-167 0 l533 698 l511 667 l166 0 l-530 -693 l-513 -672 Z" /><glyph glyph-name="ampersand" unicode="&amp;" d="M1114 0 l-119 124 q-91 -77 -203.5 -114 q-112.5 -37 -225.5 -37 q-201 0 -331 104.5 q-130 104.5 -130 280.5 q0 125 68.5 213.5 q68.5 88.5 193.5 156.5 q30 18 54 29 q-82 87 -125 157.5 q-43 70.5 -43 154.5 q0 131 100.5 219.5 q100.5 88.5 254.5 88.5 q151 0 253 -84.5 q102 -84.5 102 -223.5 q0 -61 -22 -113.5 q-22 -52.5 -64.5 -95 q-42.5 -42.5 -89 -74.5 q-46.5 -32 -110.5 -65 l311 -329 q59 104 59 329 l0 53 l178 0 l0 -60 q0 -294 -111 -458 l240 -256 l-240 0 ZM480 616 q-88 -46 -135 -104 q-47 -58 -47 -139 q0 -112 83.5 -173 q83.5 -61 202.5 -61 q81 0 163 28.5 q82 28.5 137 84.5 l-361 385 q-21 -8 -43 -21 ZM575 830 q104 51 156 102.5 q52 51.5 52 126.5 q0 74 -49 119.5 q-49 45.5 -125 45.5 q-77 0 -125 -46.5 q-48 -46.5 -48 -119.5 q0 -52 30.5 -102 q30.5 -50 108.5 -126 Z" /><glyph glyph-name="quotesingle" unicode="&#39;" d="M133 1365 l223 0 l-29 -525 l-165 0 l-29 525 Z" /><glyph glyph-name="parenleft" unicode="(" d="M411 1363 l174 0 q-35 -40 -71 -104 q-36 -64 -75.5 -161.5 q-39.5 -97.5 -64 -237 q-24.5 -139.5 -24.5 -292.5 q0 -124 17.5 -240.5 q17.5 -116.5 38.5 -194.5 q21 -78 59.5 -166 q38.5 -88 59 -125.5 q20.5 -37.5 58.5 -103.5 l-182 0 q-46 56 -85.5 125 q-39.5 69 -80 170.5 q-40.5 101.5 -64.5 239.5 q-24 138 -24 293 q0 127 17 238 q17 111 40.5 187.5 q23.5 76.5 62.5 152 q39 75.5 69 119 q30 43.5 75 100.5 Z" /><glyph glyph-name="parenright" unicode=")" d="M89 1363 l173 0 q45 -57 75 -100 q30 -43 70 -119 q40 -76 63.5 -152.5 q23.5 -76.5 40.5 -187.5 q17 -111 17 -238 q0 -155 -24.5 -293 q-24.5 -138 -66 -239.5 q-41.5 -101.5 -81 -170 q-39.5 -68.5 -85.5 -125.5 l-180 0 q39 67 58.5 103.5 q19.5 36.5 58.5 125.5 q39 89 59.5 166 q20.5 77 38 194 q17.5 117 17.5 241 q0 153 -24.5 292.5 q-24.5 139.5 -64 237 q-39.5 97.5 -75 161.5 q-35.5 64 -70.5 104 Z" /><glyph glyph-name="asterisk" unicode="*" d="M565 579 l-151 0 l25 318 l-266 -182 l-75 138 l291 136 l-291 135 l75 138 l266 -184 l-25 320 l151 0 l-24 -320 l266 184 l75 -138 l-291 -135 l291 -136 l-75 -138 l-266 182 l24 -318 Z" /><glyph glyph-name="plus" unicode="+" d="M668 456 l0 -436 l-169 0 l0 436 l-403 0 l0 181 l403 0 l0 415 l169 0 l0 -415 l405 0 l0 -181 l-405 0 Z" /><glyph glyph-name="comma" unicode="," d="M198 -363 l-158 0 l128 582 l221 0 l-191 -582 Z" /><glyph glyph-name="hyphen" unicode="-" d="M735 464 l-630 0 l0 192 l630 0 l0 -192 Z" /><glyph glyph-name="period" unicode="." d="M150 134 q0 68 44 112 q44 44 107 44 q66 0 110 -43.5 q44 -43.5 44 -112.5 q0 -67 -44 -109.5 q-44 -42.5 -110 -42.5 q-63 0 -107 43 q-44 43 -44 109 Z" /><glyph glyph-name="slash" unicode="/" d="M216 -299 l-179 0 l489 1736 l180 0 l-490 -1736 Z" /><glyph glyph-name="zero" unicode="0" d="M338 708 l0 -52 q0 -235 78.5 -366.5 q78.5 -131.5 212.5 -131.5 q134 0 212.5 131.5 q78.5 131.5 78.5 366.5 l0 52 q0 235 -78.5 366.5 q-78.5 131.5 -212.5 131.5 q-134 0 -212.5 -131.5 q-78.5 -131.5 -78.5 -366.5 ZM133 654 l0 55 q0 311 132 497 q132 186 366 186 q233 0 363 -185 q130 -185 130 -498 l0 -55 q0 -201 -56 -353.5 q-56 -152.5 -169.5 -240.5 q-113.5 -88 -270.5 -88 q-233 0 -364 185.5 q-131 185.5 -131 496.5 Z" /><glyph glyph-name="one" unicode="1" d="M681 0 l-203 0 l0 1141 l-10 0 l-315 -225 l0 212 l325 237 l203 0 l0 -1365 Z" /><glyph glyph-name="two" unicode="2" d="M340 973 l-198 0 l0 10 q0 79 28.5 151.5 q28.5 72.5 82 130.5 q53.5 58 139.5 92.5 q86 34.5 192 34.5 q195 0 316 -106.5 q121 -106.5 121 -270.5 q0 -52 -14 -102 q-14 -50 -30.5 -85 q-16.5 -35 -55.5 -86.5 q-39 -51.5 -60.5 -76 q-21.5 -24.5 -74.5 -83.5 l-349 -384 l0 -12 l608 0 l0 -186 l-897 0 l0 138 l510 565 q36 39 57.5 65.5 q21.5 26.5 47 65.5 q25.5 39 38 79.5 q12.5 40.5 12.5 82.5 q0 96 -66 154.5 q-66 58.5 -168 58.5 q-109 0 -174 -65.5 q-65 -65.5 -65 -159.5 l0 -11 Z" /><glyph glyph-name="three" unicode="3" d="M429 614 l0 179 l142 0 q103 0 171 60.5 q68 60.5 67 153.5 q0 91 -67 149 q-67 58 -172 58 q-101 0 -167 -53.5 q-66 -53.5 -72 -128.5 l-194 0 q5 152 120 255.5 q115 103.5 316 104.5 q196 1 316.5 -98.5 q120.5 -99.5 124.5 -252.5 q2 -69 -22.5 -129 q-24.5 -60 -64 -98.5 q-39.5 -38.5 -82.5 -62.5 q-43 -24 -83 -31 l0 -12 q47 -5 95.5 -26.5 q48.5 -21.5 94.5 -59.5 q46 -38 76 -101 q30 -63 31 -141 q3 -182 -137 -295 q-140 -113 -355 -113 q-205 0 -329.5 104 q-124.5 104 -131.5 260 l191 0 q8 -78 84.5 -130.5 q76.5 -52.5 188.5 -53.5 q128 -1 206 65 q78 66 76 169 q-1 101 -77 164.5 q-76 63.5 -197 63.5 l-149 0 Z" /><glyph glyph-name="four" unicode="4" d="M658 1365 l301 0 l0 -912 l175 0 l0 -185 l-175 0 l0 -268 l-195 0 l0 268 l-663 0 l0 188 q59 107 135.5 234 q76.5 127 131 214.5 q54.5 87.5 151 239.5 q96.5 152 139.5 221 ZM299 453 l465 0 l0 734 l-11 0 q-277 -415 -454 -725 l0 -9 Z" /><glyph glyph-name="five" unicode="5" d="M149 332 l194 0 q18 -88 94.5 -133 q76.5 -45 175.5 -45 q111 0 194.5 78.5 q83.5 78.5 83.5 212.5 q0 121 -82 195.5 q-82 74.5 -198 74.5 q-93 0 -159 -42 q-66 -42 -98 -97 l-176 0 l60 789 l787 0 l0 -185 l-616 0 l-35 -404 l10 0 q28 42 100.5 79 q72.5 37 174.5 37 q185 0 310.5 -119 q125.5 -119 125.5 -322 q0 -215 -136 -347 q-136 -132 -355 -132 q-194 0 -320 102 q-126 102 -135 258 Z" /><glyph glyph-name="six" unicode="6" d="M1087 1068 l-203 0 q-14 55 -73.5 98 q-59.5 43 -159.5 43 q-143 0 -231 -138 q-88 -138 -87 -386 l11 0 q34 81 121 139.5 q87 58.5 222 58.5 q82 0 157.5 -28.5 q75.5 -28.5 136.5 -81.5 q61 -53 97.5 -138 q36.5 -85 36.5 -188 q0 -221 -134 -347.5 q-134 -126.5 -345 -126.5 q-271 0 -402 213 q-101 168 -101 451 q0 375 141 564 q141 189 383 189 q96 0 177.5 -28.5 q81.5 -28.5 134 -75 q52.5 -46.5 83.5 -103 q31 -56.5 35 -115.5 ZM360 437 q0 -130 80 -206.5 q80 -76.5 198 -76.5 q121 0 198.5 72.5 q77.5 72.5 77.5 209.5 q0 130 -80.5 201 q-80.5 71 -194.5 71 q-122 0 -200.5 -76 q-78.5 -76 -78.5 -195 Z" /><glyph glyph-name="seven" unicode="7" d="M115 1365 l890 0 l0 -192 l-558 -1173 l-216 0 l566 1167 l0 12 l-682 0 l0 186 Z" /><glyph glyph-name="eight" unicode="8" d="M410.5 210.5 q83.5 -67.5 210.5 -67.5 q127 0 211 67.5 q84 67.5 84 175.5 q0 108 -84 176 q-84 68 -211 68 q-127 0 -210.5 -68 q-83.5 -68 -83.5 -176 q0 -108 83.5 -175.5 ZM621 793 q107 0 176 60.5 q69 60.5 69 155.5 q0 94 -69 152.5 q-69 58.5 -176 58.5 q-107 0 -176 -58.5 q-69 -58.5 -69 -152.5 q0 -95 69.5 -155.5 q69.5 -60.5 175.5 -60.5 ZM617 -28 q-219 0 -356 111.5 q-137 111.5 -137 289.5 q0 77 26.5 140 q26.5 63 70 103 q43.5 40 89 64 q45.5 24 93.5 35 l0 11 q-41 13 -78.5 37 q-37.5 24 -71.5 60 q-34 36 -54.5 89.5 q-20.5 53.5 -20.5 116.5 q0 158 124.5 260.5 q124.5 102.5 318.5 102.5 q194 0 319 -102.5 q125 -102.5 125 -260.5 q0 -64 -21 -118 q-21 -54 -56 -90 q-35 -36 -72 -59 q-37 -23 -77 -36 l0 -11 q48 -11 94 -35 q46 -24 89 -64 q43 -40 69 -102.5 q26 -62.5 26 -138.5 q0 -178 -139.5 -290.5 q-139.5 -112.5 -360.5 -112.5 Z" /><glyph glyph-name="nine" unicode="9" d="M160 280 l203 0 q15 -51 73.5 -88 q58.5 -37 147.5 -37 q88 0 153.5 40.5 q65.5 40.5 103 113 q37.5 72.5 54 164.5 q16.5 92 13.5 203 l-12 0 q-34 -87 -119.5 -144.5 q-85.5 -57.5 -214.5 -57.5 q-121 0 -219.5 52.5 q-98.5 52.5 -158 157 q-59.5 104.5 -59.5 245.5 q0 142 64 248.5 q64 106.5 172.5 161.5 q108.5 55 246.5 55 q79 0 147.5 -19 q68.5 -19 134 -67.5 q65.5 -48.5 112 -124 q46.5 -75.5 75 -196.5 q28.5 -121 28.5 -277 q0 -735 -525 -735 q-95 0 -173.5 25.5 q-78.5 25.5 -129 69 q-50.5 43.5 -80.5 97.5 q-30 54 -37 113 ZM875 925 q0 135 -78 212 q-78 77 -200 77 q-115 0 -192.5 -77.5 q-77.5 -77.5 -77.5 -207.5 q0 -134 78.5 -206.5 q78.5 -72.5 195.5 -72.5 q115 0 194.5 72 q79.5 72 79.5 203 Z" /><glyph glyph-name="colon" unicode=":" d="M166 804 q0 69 43.5 112.5 q43.5 43.5 106.5 43.5 q67 0 111 -44 q44 -44 44 -112 q0 -67 -44 -110 q-44 -43 -111 -43 q-63 0 -106.5 43.5 q-43.5 43.5 -43.5 109.5 ZM166 134 q0 69 43.5 112.5 q43.5 43.5 106.5 43.5 q67 0 111 -43.5 q44 -43.5 44 -112.5 q0 -67 -44 -109.5 q-44 -42.5 -111 -42.5 q-63 0 -106.5 43 q-43.5 43 -43.5 109 Z" /><glyph glyph-name="semicolon" unicode=";" d="M167 808 q0 68 43.5 112 q43.5 44 107.5 44 q66 0 110 -44 q44 -44 44 -112 q0 -67 -44 -110 q-44 -43 -110 -43 q-63 0 -107 43 q-44 43 -44 110 ZM227 -411 l-172 0 l142 617 l242 0 l-212 -617 Z" /><glyph glyph-name="less" unicode="&lt;" d="M145 440 l0 157 l876 513 l0 -223 l-656 -357 l0 -11 l656 -342 l0 -221 l-876 484 Z" /><glyph glyph-name="equal" unicode="=" d="M1017 265 l-866 0 l0 172 l866 0 l0 -172 ZM1017 658 l-866 0 l0 174 l866 0 l0 -174 Z" /><glyph glyph-name="greater" unicode="&gt;" d="M1023 597 l0 -157 l-877 -484 l0 221 l657 342 l0 11 l-657 357 l0 223 l877 -513 Z" /><glyph glyph-name="question" unicode="?" d="M332 126 q0 65 43 106.5 q43 41.5 108 41.5 q68 0 111.5 -41.5 q43.5 -41.5 43.5 -106.5 q0 -63 -43.5 -103.5 q-43.5 -40.5 -111.5 -40.5 q-65 0 -108 40.5 q-43 40.5 -43 103.5 ZM85 997 q-1 86 24 155 q25 69 66.5 113.5 q41.5 44.5 98 74.5 q56.5 30 115.5 42.5 q59 12.5 122 12.5 q82 0 155 -22 q73 -22 131.5 -64 q58.5 -42 92.5 -111 q34 -69 34 -155 q0 -60 -15.5 -110 q-15.5 -50 -48 -90 q-32.5 -40 -59.5 -64.5 q-27 -24.5 -72 -58.5 q-53 -41 -75.5 -60 q-22.5 -19 -45.5 -47.5 q-23 -28.5 -30 -57 q-7 -28.5 -7 -70.5 l0 -57 l-191 0 l-1 74 q-3 100 46.5 172 q49.5 72 140.5 141 q43 33 64 50.5 q21 17.5 45 45 q24 27.5 33.5 56 q9.5 28.5 9.5 64.5 q0 93 -62.5 140 q-62.5 47 -154.5 47 q-108 0 -166.5 -62 q-58.5 -62 -58.5 -159 l-191 0 Z" /><glyph glyph-name="at" unicode="@" d="M1281 133 q-99 0 -161 40.5 q-62 40.5 -74 100.5 l-10 0 q-15 -57 -76.5 -99 q-61.5 -42 -145.5 -42 q-125 0 -195.5 89 q-70.5 89 -70.5 239 l0 100 q0 146 72.5 234.5 q72.5 88.5 200.5 88.5 q81 0 133 -40 q52 -40 68 -92 l8 0 l0 117 l155 0 l0 -491 q0 -54 32.5 -83.5 q32.5 -29.5 84.5 -29.5 q76 0 128 85 q52 85 52 249 l0 33 q0 110 -39.5 208.5 q-39.5 98.5 -112.5 174 q-73 75.5 -185 119.5 q-112 44 -248 44 l-8 0 q-132 0 -246 -45 q-114 -45 -196.5 -126.5 q-82.5 -81.5 -129.5 -202.5 q-47 -121 -47 -266 l0 -44 q0 -155 49 -276 q49 -121 133.5 -196 q84.5 -75 193.5 -113.5 q109 -38.5 235 -38.5 l9 0 q205 0 314 48 l0 -140 q-97 -45 -318 -45 l-8 0 q-160 0 -296.5 48.5 q-136.5 48.5 -240.5 141 q-104 92.5 -163 238 q-59 145.5 -59 327.5 l0 56 q0 231 100 407.5 q100 176.5 274.5 270.5 q174.5 94 395.5 94 l8 0 q138 0 257.5 -36.5 q119.5 -36.5 205.5 -100.5 q86 -64 147.5 -150 q61.5 -86 91.5 -185.5 q30 -99.5 30 -205.5 l0 -50 q0 -204 -97 -329.5 q-97 -125.5 -251 -125.5 ZM710 484 q0 -106 42 -156.5 q42 -50.5 115 -50.5 q72 0 114 47.5 q42 47.5 42 150.5 l0 81 q0 93 -44.5 142.5 q-44.5 49.5 -113.5 49.5 q-69 0 -112 -51.5 q-43 -51.5 -43 -152.5 l0 -60 Z" /><glyph glyph-name="A" unicode="a" d="M257 0 l-208 0 l476 1365 l223 0 l475 -1365 l-220 0 l-128 381 l-490 0 l-128 -381 ZM635 1132 l-8 0 l-192 -581 l392 0 l-192 581 Z" /><glyph glyph-name="B" unicode="b" d="M184 0 l0 1365 l531 0 q175 0 281 -89.5 q106 -89.5 106 -246.5 q0 -121 -60.5 -196.5 q-60.5 -75.5 -162.5 -103.5 l0 -10 q139 -16 219 -104.5 q80 -88.5 80 -230.5 q0 -183 -131.5 -283.5 q-131.5 -100.5 -345.5 -100.5 l-517 0 ZM389 1188 l0 -401 l199 0 q155 0 232 49.5 q77 49.5 77 154.5 q0 97 -61 147 q-61 50 -160 50 l-287 0 ZM389 618 l0 -441 l225 0 q82 0 143 9.5 q61 9.5 110 33 q49 23.5 74.5 66.5 q25.5 43 25.5 105 q0 111 -73.5 169 q-73.5 58 -199.5 58 l-305 0 Z" /><glyph glyph-name="C" unicode="c" d="M338 770 l0 -182 q0 -211 91.5 -317.5 q91.5 -106.5 252.5 -106.5 q146 0 227 78.5 q81 78.5 81 195.5 l201 0 l0 -15 q0 -66 -19.5 -130 q-19.5 -64 -62 -122 q-42.5 -58 -102 -102.5 q-59.5 -44.5 -145.5 -70.5 q-86 -26 -187 -26 q-255 0 -400 160 q-145 160 -145 455 l0 185 q0 291 147 455.5 q147 164.5 400 164.5 q121 0 220.5 -39.5 q99.5 -39.5 162.5 -105.5 q63 -66 97 -149.5 q34 -83.5 34 -174.5 l0 -15 l-201 0 q0 118 -84 205.5 q-84 87.5 -228 87.5 q-156 0 -248 -111 q-92 -111 -92 -320 Z" /><glyph glyph-name="D" unicode="d" d="M184 1365 l458 0 q161 0 279 -49.5 q118 -49.5 188 -142 q70 -92.5 103 -213.5 q33 -121 33 -276 q0 -122 -19.5 -223 q-19.5 -101 -64.5 -187.5 q-45 -86.5 -114 -146.5 q-69 -60 -171.5 -93.5 q-102.5 -33.5 -233.5 -33.5 l-458 0 l0 1365 ZM390 1178 l0 -990 l233 0 q209 0 309.5 120 q100.5 120 100.5 373 q0 497 -410 497 l-233 0 Z" /><glyph glyph-name="E" unicode="e" d="M1023 188 l0 -188 l-839 0 l0 1365 l839 0 l0 -188 l-634 0 l0 -393 l598 0 l0 -180 l-598 0 l0 -416 l634 0 Z" /><glyph glyph-name="F" unicode="f" d="M390 0 l-206 0 l0 1365 l828 0 l0 -189 l-622 0 l0 -423 l569 0 l0 -186 l-569 0 l0 -567 Z" /><glyph glyph-name="G" unicode="g" d="M1203 939 l-202 0 q-17 127 -104.5 194.5 q-87.5 67.5 -211.5 67.5 q-155 0 -251.5 -106.5 q-96.5 -106.5 -96.5 -319.5 l0 -178 q0 -203 87.5 -318.5 q87.5 -115.5 258.5 -115.5 q143 0 234 77.5 q91 77.5 91 196.5 l0 110 l-329 0 l0 176 l528 0 l0 -277 q0 -62 -16 -124.5 q-16 -62.5 -55.5 -126.5 q-39.5 -64 -97.5 -113 q-58 -49 -150 -79.5 q-92 -30.5 -205 -30.5 q-182 0 -308 79.5 q-126 79.5 -185.5 217.5 q-59.5 138 -59.5 327 l0 181 q0 286 151 450.5 q151 164.5 408 164.5 q119 0 216 -37.5 q97 -37.5 159.5 -101 q62.5 -63.5 98 -144 q35.5 -80.5 40.5 -170.5 Z" /><glyph glyph-name="H" unicode="h" d="M1246 0 l-206 0 l0 607 l-650 0 l0 -607 l-206 0 l0 1365 l206 0 l0 -568 l650 0 l0 568 l206 0 l0 -1365 Z" /><glyph glyph-name="I" unicode="i" d="M390 0 l-206 0 l0 1365 l206 0 l0 -1365 Z" /><glyph glyph-name="J" unicode="j" d="M51 351 l200 0 q3 -83 60 -131.5 q57 -48.5 139 -48.5 q101 0 158.5 57 q57.5 57 57.5 175 l0 962 l206 0 l0 -950 q0 -218 -113.5 -330.5 q-113.5 -112.5 -307.5 -112.5 q-183 0 -291.5 107 q-108.5 107 -108.5 272 Z" /><glyph glyph-name="K" unicode="k" d="M1203 1365 l-501 -584 l526 -781 l-255 0 l-424 631 l-159 -171 l0 -460 l-206 0 l0 1365 l206 0 l0 -636 l9 0 l569 636 l235 0 Z" /><glyph glyph-name="L" unicode="l" d="M1003 193 l0 -193 l-819 0 l0 1365 l206 0 l0 -1172 l613 0 Z" /><glyph glyph-name="M" unicode="m" d="M374 0 l-186 0 l0 1365 l205 0 l430 -977 l8 0 l429 977 l205 0 l0 -1365 l-187 0 l0 956 l-11 0 l-362 -814 l-157 0 l-364 814 l-10 0 l0 -956 Z" /><glyph glyph-name="N" unicode="n" d="M384 0 l-200 0 l0 1365 l187 0 l656 -988 l10 0 l0 988 l200 0 l0 -1365 l-187 0 l-657 991 l-9 0 l0 -991 Z" /><glyph glyph-name="O" unicode="o" d="M338 772 l0 -190 q0 -206 96.5 -312.5 q96.5 -106.5 253.5 -106.5 q158 0 255 106.5 q97 106.5 97 312.5 l0 190 q0 207 -97.5 318.5 q-97.5 111.5 -254.5 111.5 q-156 0 -253 -111.5 q-97 -111.5 -97 -318.5 ZM130 583 l0 188 q0 289 151 455 q151 166 409 166 q258 0 408 -166 q150 -166 150 -455 l0 -188 q0 -287 -151.5 -449 q-151.5 -162 -410.5 -162 q-258 0 -407 161.5 q-149 161.5 -149 449.5 Z" /><glyph glyph-name="P" unicode="p" d="M184 1365 l513 0 q201 0 322.5 -123 q121.5 -123 121.5 -317 q0 -195 -121.5 -316 q-121.5 -121 -323.5 -121 l-306 0 l0 -488 l-206 0 l0 1365 ZM390 1180 l0 -509 l192 0 q87 0 147.5 11 q60.5 11 107.5 39 q47 28 70 78.5 q23 50.5 23 125.5 q0 122 -67.5 188.5 q-67.5 66.5 -190.5 66.5 l-282 0 Z" /><glyph glyph-name="Q" unicode="q" d="M131 589 l0 186 q0 287 151 452 q151 165 407 165 q256 0 408 -165 q152 -165 152 -452 l0 -186 q0 -312 -179 -477 l183 -257 l-219 0 l-118 159 q-107 -42 -227 -42 q-256 0 -407 165 q-151 165 -151 452 ZM335 775 l0 -187 q0 -210 97 -321 q97 -111 254 -113 q68 0 124 22 l-175 238 l214 0 l103 -130 q93 112 93 304 l0 187 q0 207 -99 317.5 q-99 110.5 -257 110.5 q-157 0 -255.5 -110.5 q-98.5 -110.5 -98.5 -317.5 Z" /><glyph glyph-name="R" unicode="r" d="M695 1365 q113 0 201 -33 q88 -33 141.5 -91.5 q53.5 -58.5 81 -133 q27.5 -74.5 27.5 -161.5 q0 -80 -22.5 -147.5 q-22.5 -67.5 -61 -113 q-38.5 -45.5 -80 -75 q-41.5 -29.5 -88.5 -46.5 l277 -564 l-233 0 l-248 526 l-301 0 l0 -526 l-205 0 l0 1365 l511 0 ZM389 704 l271 0 q133 0 203.5 60.5 q70.5 60.5 70.5 173.5 q0 119 -72 182 q-72 63 -195 63 l-278 0 l0 -479 Z" /><glyph glyph-name="S" unicode="s" d="M87 378 l203 0 q10 -95 93 -158 q83 -63 226 -63 q136 0 215 57.5 q79 57.5 79 156.5 q0 77 -53 123.5 q-53 46.5 -166 74.5 l-231 56 q-68 17 -124 45 q-56 28 -103.5 71 q-47.5 43 -74 107 q-26.5 64 -26.5 144 q0 95 39.5 172.5 q39.5 77.5 107 127 q67.5 49.5 154.5 76.5 q87 27 184 27 q129 0 236.5 -45 q107.5 -45 176.5 -136.5 q69 -91.5 71 -215.5 l-200 0 q-9 93 -82.5 153.5 q-73.5 60.5 -204.5 60.5 q-123 0 -198.5 -54 q-75.5 -54 -75.5 -149 q0 -139 190 -184 l229 -56 q171 -41 264.5 -128.5 q93.5 -87.5 93.5 -249.5 q0 -131 -68 -227 q-68 -96 -184 -144 q-116 -48 -267 -48 q-90 0 -166 17 q-76 17 -129.5 47.5 q-53.5 30.5 -94 69.5 q-40.5 39 -64.5 85.5 q-24 46.5 -36.5 92.5 q-12.5 46 -13.5 94 Z" /><glyph glyph-name="T" unicode="t" d="M657 0 l-206 0 l0 1175 l-405 0 l0 190 l1016 0 l0 -190 l-405 0 l0 -1175 Z" /><glyph glyph-name="U" unicode="u" d="M374 1365 l0 -877 q0 -150 87.5 -236.5 q87.5 -86.5 235.5 -86.5 q148 0 235.5 86.5 q87.5 86.5 87.5 236.5 l0 877 l206 0 l0 -891 q0 -226 -145.5 -364 q-145.5 -138 -383.5 -138 q-238 0 -383.5 139 q-145.5 139 -145.5 366 l0 888 l206 0 Z" /><glyph glyph-name="V" unicode="v" d="M747 0 l-227 0 l-479 1365 l236 0 l355 -1115 l11 0 l352 1115 l232 0 l-480 -1365 Z" /><glyph glyph-name="W" unicode="w" d="M595 0 l-187 0 l-370 1365 l232 0 l237 -1045 l10 0 l260 1045 l198 0 l258 -1045 l11 0 l237 1045 l232 0 l-371 -1365 l-188 0 l-274 1018 l-10 0 l-275 -1018 Z" /><glyph glyph-name="X" unicode="x" d="M1171 1365 l-447 -687 l439 -678 l-243 0 l-325 512 l-10 0 l-326 -512 l-229 0 l438 688 l-433 677 l246 0 l324 -516 l10 0 l321 516 l235 0 Z" /><glyph glyph-name="Y" unicode="y" d="M684 0 l-206 0 l0 554 l-456 811 l232 0 l323 -592 l10 0 l325 592 l228 0 l-456 -808 l0 -557 Z" /><glyph glyph-name="Z" unicode="z" d="M110 0 l0 149 l707 1016 l0 12 l-684 0 l0 188 l937 0 l0 -149 l-703 -1016 l0 -12 l721 0 l0 -188 l-978 0 Z" /><glyph glyph-name="bracketleft" unicode="[" d="M147 1365 l463 0 l0 -161 l-270 0 l0 -1271 l283 0 l0 -161 l-476 0 l0 1593 Z" /><glyph glyph-name="backslash" unicode="\" d="M706 -299 l-180 0 l-489 1736 l179 0 l490 -1736 Z" /><glyph glyph-name="bracketright" unicode="]" d="M98 1365 l463 0 l0 -1593 l-475 0 l0 161 l283 0 l0 1271 l-271 0 l0 161 Z" /><glyph glyph-name="asciicircum" unicode="^" d="M777 795 l-173 0 l-176 396 l-7 0 l-177 -396 l-173 0 l261 570 l185 0 l260 -570 Z" /><glyph glyph-name="underscore" unicode="_" d="M900 -271 l-901 0 l0 168 l901 0 l0 -168 Z" /><glyph glyph-name="grave" unicode="`" d="M674 1226 l-151 0 l-279 354 l192 0 l238 -354 Z" /><glyph glyph-name="a" unicode="a" d="M459 -17 q-154 0 -249.5 88.5 q-95.5 88.5 -95.5 235.5 q0 143 97 227.5 q97 84.5 275 84.5 l271 0 l0 100 q0 90 -55 135 q-55 45 -154 45 q-168 0 -201 -120 l-193 0 q11 135 114 214 q103 79 286 79 q87 0 157.5 -19 q70.5 -19 127.5 -59.5 q57 -40.5 88.5 -111 q31.5 -70.5 31.5 -166.5 l0 -716 l-193 0 l0 137 l-9 0 q-41 -68 -115 -111 q-74 -43 -183 -43 ZM519 153 q101 0 169.5 58.5 q68.5 58.5 68.5 146.5 l0 114 l-246 0 q-97 0 -145 -42 q-48 -42 -48 -112 q0 -80 58 -122.5 q58 -42.5 143 -42.5 Z" /><glyph glyph-name="b" unicode="b" d="M690 -15 q-120 0 -199.5 49 q-79.5 49 -110.5 125 l-10 0 l0 -159 l-196 0 l0 1467 l202 0 l0 -578 l10 0 q23 76 103.5 129 q80.5 53 205.5 53 q184 0 292.5 -121.5 q108.5 -121.5 108.5 -338.5 l0 -165 q0 -217 -110 -339 q-110 -122 -296 -122 ZM642 164 q115 0 182.5 78.5 q67.5 78.5 67.5 231.5 l0 103 q0 152 -67.5 233.5 q-67.5 81.5 -186.5 81.5 q-121 0 -191.5 -79.5 q-70.5 -79.5 -70.5 -215.5 l0 -156 q0 -122 74 -199.5 q74 -77.5 192 -77.5 Z" /><glyph glyph-name="c" unicode="c" d="M122 453 l0 155 q0 212 120.5 339 q120.5 127 327.5 127 q190 0 299.5 -100.5 q109.5 -100.5 112.5 -241.5 l-193 0 q-4 28 -16.5 53.5 q-12.5 25.5 -36 51 q-23.5 25.5 -65.5 41 q-42 15.5 -97 15.5 q-121 0 -185.5 -77.5 q-64.5 -77.5 -64.5 -212.5 l0 -150 q0 -134 67 -212 q67 -78 183 -78 q190 0 221 150 l194 0 q-5 -145 -114 -238 q-109 -93 -306 -93 q-206 0 -326.5 125.5 q-120.5 125.5 -120.5 345.5 Z" /><glyph glyph-name="d" unicode="d" d="M529 1072 q120 0 197.5 -49 q77.5 -49 106.5 -124 l10 0 l0 568 l202 0 l0 -1467 l-195 0 l0 168 l-10 0 q-22 -75 -105.5 -128.5 q-83.5 -53.5 -209.5 -53.5 q-183 0 -292.5 121 q-109.5 121 -109.5 329 l0 185 q0 206 110 328.5 q110 122.5 296 122.5 ZM769 816.5 q-74 76.5 -191 76.5 q-117 0 -184 -80 q-67 -80 -67 -224 l0 -119 q0 -146 68.5 -226 q68.5 -80 187.5 -80 q119 0 189.5 78.5 q70.5 78.5 70.5 213.5 l0 163 q0 121 -74 197.5 Z" /><glyph glyph-name="e" unicode="e" d="M581 -18 q-215 0 -337 126 q-122 126 -122 348 l0 145 q0 219 124.5 346 q124.5 127 320.5 127 q197 0 321 -129 q124 -129 124 -344 l0 -125 l-690 0 l0 -52 q0 -118 68 -192.5 q68 -74.5 189 -74.5 q87 0 146 35 q59 35 72 86 l202 0 q-5 -38 -22.5 -77.5 q-17.5 -39.5 -52 -79 q-34.5 -39.5 -81.5 -70 q-47 -30.5 -115 -50 q-68 -19.5 -147 -19.5 ZM322 619 l491 0 l0 15 q0 121 -67 194.5 q-67 73.5 -178 73.5 q-111 0 -178.5 -73.5 q-67.5 -73.5 -67.5 -194.5 l0 -15 Z" /><glyph glyph-name="f" unicode="f" d="M263 0 l0 879 l-176 0 l0 171 l176 0 l0 105 q0 156 80 226.5 q80 70.5 259 70.5 q64 0 127 -7 l0 -164 q-37 5 -95 5 q-92 0 -132 -32.5 q-40 -32.5 -40 -115.5 l0 -88 l243 0 l0 -171 l-240 0 l0 -879 l-202 0 Z" /><glyph glyph-name="g" unicode="g" d="M565 -223 q131 0 198 65.5 q67 65.5 67 185.5 l0 157 l-11 0 q-32 -72 -111 -119 q-79 -47 -185 -47 q-180 0 -296 122 q-116 122 -116 332 l0 143 q0 210 115.5 332.5 q115.5 122.5 295.5 122.5 q112 0 194.5 -51.5 q82.5 -51.5 110.5 -123.5 l9 0 l0 160 l195 0 l0 -1036 q0 -108 -35.5 -189 q-35.5 -81 -100.5 -129.5 q-65 -48.5 -149.5 -72 q-84.5 -23.5 -188.5 -23.5 q-200 0 -306 84 q-106 84 -117 213 l202 0 q12 -56 72.5 -91 q60.5 -35 156.5 -35 ZM580 892 q-122 0 -193 -83 q-71 -83 -71 -222 l0 -92 q0 -137 74 -220.5 q74 -83.5 192 -83.5 q115 0 181.5 80 q66.5 80 66.5 197 l0 143 q0 118 -68.5 199.5 q-68.5 81.5 -181.5 81.5 Z" /><glyph glyph-name="h" unicode="h" d="M176 0 l0 1467 l201 0 l0 -600 l11 0 q9 32 30 64 q21 32 57.5 65.5 q36.5 33.5 98 54.5 q61.5 21 137.5 21 q159 0 256 -92 q97 -92 97 -267 l0 -713 l-202 0 l0 649 q0 118 -60 178 q-60 60 -163 60 q-124 0 -193 -83 q-69 -83 -69 -217 l0 -587 l-201 0 Z" /><glyph glyph-name="i" unicode="i" d="M196 0 l0 1056 l202 0 l0 -1056 l-202 0 ZM159 1375 q0 59 38.5 96.5 q38.5 37.5 98.5 37.5 q62 0 101 -37.5 q39 -37.5 39 -96.5 q0 -58 -39 -95.5 q-39 -37.5 -101 -37.5 q-59 0 -98 37.5 q-39 37.5 -39 95.5 Z" /><glyph glyph-name="j" unicode="j" d="M159 1375 q0 59 38.5 96.5 q38.5 37.5 98.5 37.5 q62 0 101 -37.5 q39 -37.5 39 -96.5 q0 -58 -39 -95.5 q-39 -37.5 -101 -37.5 q-59 0 -98 37.5 q-39 37.5 -39 95.5 ZM398 1056 l0 -1079 q0 -178 -80 -262.5 q-80 -84.5 -226 -84.5 q-58 0 -103 8 l0 163 q27 -5 64 -5 q77 0 110 43.5 q33 43.5 33 139.5 l0 1077 l202 0 Z" /><glyph glyph-name="k" unicode="k" d="M377 379 l0 -379 l-202 0 l0 1467 l202 0 l0 -871 l8 0 l406 460 l232 0 l-405 -457 l432 -599 l-239 0 l-344 470 l-90 -91 Z" /><glyph glyph-name="l" unicode="l" d="M179 0 l0 1467 l202 0 l0 -1467 l-202 0 Z" /><glyph glyph-name="m" unicode="m" d="M172 0 l0 1056 l200 0 l0 -171 l10 0 q10 33 28.5 62 q18.5 29 50.5 59 q32 30 85.5 48 q53.5 18 121.5 18 q115 0 190.5 -54.5 q75.5 -54.5 101.5 -143.5 l9 0 q34 85 115 141.5 q81 56.5 206 56.5 q162 0 253.5 -87.5 q91.5 -87.5 91.5 -244.5 l0 -740 l-202 0 l0 677 q0 101 -54.5 157 q-54.5 56 -154.5 56 q-95 0 -158 -64.5 q-63 -64.5 -63 -168.5 l0 -657 l-198 0 l0 671 q0 102 -57.5 160.5 q-57.5 58.5 -155.5 58.5 q-96 0 -157 -63 q-61 -63 -61 -168 l0 -659 l-202 0 Z" /><glyph glyph-name="n" unicode="n" d="M172 0 l0 1056 l200 0 l0 -189 l10 0 q12 36 31.5 67.5 q19.5 31.5 55 65 q35.5 33.5 95 53 q59.5 19.5 136.5 19.5 q165 0 261 -91 q96 -91 96 -266 l0 -715 l-202 0 l0 651 q0 118 -57.5 177 q-57.5 59 -160.5 59 q-127 0 -195 -83 q-68 -83 -68 -217 l0 -587 l-202 0 Z" /><glyph glyph-name="o" unicode="o" d="M585 1074 q205 0 333.5 -128 q128.5 -128 128.5 -347 l0 -139 q0 -224 -128 -351 q-128 -127 -334 -127 q-209 0 -336 126 q-127 126 -127 352 l0 139 q0 214 129.5 344.5 q129.5 130.5 333.5 130.5 ZM775 811.5 q-69 86.5 -189 86.5 q-120 0 -190.5 -87 q-70.5 -87 -70.5 -223 l0 -120 q0 -138 68.5 -224 q68.5 -86 192.5 -86 q123 0 190.5 85.5 q67.5 85.5 67.5 224.5 l0 120 q0 137 -69 223.5 Z" /><glyph glyph-name="p" unicode="p" d="M687 -15 q-120 0 -194.5 48.5 q-74.5 48.5 -107.5 125.5 l-10 0 l0 -519 l-202 0 l0 1417 l196 0 l0 -168 l10 0 q30 79 111 130.5 q81 51.5 203 51.5 q183 0 291.5 -122 q108.5 -122 108.5 -338 l0 -165 q0 -217 -110 -339 q-110 -122 -296 -122 ZM637 164 q116 0 184 79 q68 79 68 233 l0 103 q0 152 -68 232.5 q-68 80.5 -188 80.5 q-121 0 -189.5 -77.5 q-68.5 -77.5 -68.5 -213.5 l0 -163 q0 -122 72 -198 q72 -76 190 -76 Z" /><glyph glyph-name="q" unicode="q" d="M524 1071 q118 0 199 -50 q81 -50 114 -131 l10 0 l0 166 l196 0 l0 -1417 l-202 0 l0 522 l-10 0 q-31 -77 -111 -126.5 q-80 -49.5 -199 -49.5 q-184 0 -291 123 q-107 123 -107 335 l0 170 q0 210 108.5 334 q108.5 124 292.5 124 ZM579 891 q-119 0 -185.5 -81.5 q-66.5 -81.5 -66.5 -222.5 l0 -118 q0 -146 67.5 -226 q67.5 -80 187.5 -80 q120 0 189.5 78 q69.5 78 69.5 213 l0 163 q0 122 -73 198 q-73 76 -189 76 Z" /><glyph glyph-name="r" unicode="r" d="M187 0 l0 1056 l202 0 l0 -164 l10 0 q11 30 30.5 58.5 q19.5 28.5 52 57.5 q32.5 29 84.5 46.5 q52 17.5 116 17.5 q30 0 70 -6 l0 -192 q-25 7 -90 7 q-131 0 -200.5 -69 q-69.5 -69 -69.5 -180 l0 -632 l-205 0 Z" /><glyph glyph-name="s" unicode="s" d="M125 750 q0 83 32.5 146.5 q32.5 63.5 89.5 101.5 q57 38 127.5 57 q70.5 19 151.5 19 q173 0 278.5 -82 q105.5 -82 105.5 -220 l-184 0 q-6 58 -59 100 q-53 42 -147 42 q-90 0 -145.5 -38.5 q-55.5 -38.5 -55.5 -106.5 q0 -39 18.5 -66 q18.5 -27 61 -43.5 q42.5 -16.5 70.5 -23.5 q28 -7 87 -17 q19 -3 28 -5 q81 -14 139 -33 q58 -19 110 -52 q52 -33 78.5 -86 q26.5 -53 26.5 -125 q0 -158 -116 -247 q-116 -89 -313 -89 q-184 0 -294 80.5 q-110 80.5 -110 220.5 l197 0 q21 -142 217 -142 q112 0 167 42 q55 42 55 110 q0 38 -18 64.5 q-18 26.5 -55 42.5 q-37 16 -76 26 q-39 10 -97 21 q-12 2 -18 3 q-66 13 -112 26 q-46 13 -95 36.5 q-49 23.5 -78 53.5 q-29 30 -48 76.5 q-19 46.5 -19 107.5 Z" /><glyph glyph-name="t" unicode="t" d="M237 1050 l0 264 l199 0 l0 -264 l237 0 l0 -171 l-237 0 l0 -566 q0 -86 35.5 -117 q35.5 -31 129.5 -31 q51 0 85 4 l0 -167 q-40 -10 -135 -10 q-95 0 -156.5 17 q-61.5 17 -97 56.5 q-35.5 39.5 -49 94 q-13.5 54.5 -13.5 137.5 l0 582 l-161 0 l0 171 l163 0 Z" /><glyph glyph-name="u" unicode="u" d="M1046 1056 l0 -1056 l-199 0 l0 176 l-11 0 q-26 -76 -106 -134.5 q-80 -58.5 -206 -58.5 q-167 0 -263 85 q-96 85 -96 263 l0 725 l202 0 l0 -668 q0 -118 60.5 -169 q60.5 -51 159.5 -51 q109 0 183.5 68 q74.5 68 74.5 168 l0 652 l201 0 Z" /><glyph glyph-name="v" unicode="v" d="M414 0 l-365 1056 l222 0 l246 -844 l9 0 l267 844 l214 0 l-378 -1056 l-215 0 Z" /><glyph glyph-name="w" unicode="w" d="M1492 1056 l-279 -1056 l-203 0 l-229 783 l-6 0 l-223 -783 l-205 0 l-292 1056 l220 0 l178 -808 l8 0 l222 808 l190 0 l227 -808 l9 0 l181 808 l202 0 Z" /><glyph glyph-name="x" unicode="x" d="M779 0 l-237 376 l-7 0 l-237 -376 l-222 0 l345 523 l-351 533 l239 0 l230 -375 l9 0 l237 375 l227 0 l-354 -519 l355 -537 l-234 0 Z" /><glyph glyph-name="y" unicode="y" d="M1035 1056 q-364 -1038 -366 -1044 l-27 -73 q-21 -58 -41 -100.5 q-20 -42.5 -51.5 -86.5 q-31.5 -44 -69.5 -71 q-38 -27 -93.5 -44.5 q-55.5 -17.5 -124.5 -17.5 q-66 0 -120 10 l0 165 q25 -6 81 -6 q91 0 136 38.5 q45 38.5 66 117.5 l14 47 l-381 1065 l223 0 l265 -857 l9 0 l266 857 l214 0 Z" /><glyph glyph-name="z" unicode="z" d="M119 0 l0 133 l544 734 l0 11 l-544 0 l0 178 l792 0 l0 -141 l-538 -726 l0 -11 l545 0 l0 -178 l-799 0 Z" /><glyph glyph-name="braceleft" unicode="{" d="M280 596 l0 -24 q178 -17 178 -229 l0 -288 q0 -111 47.5 -158 q47.5 -47 167.5 -47 l41 0 l0 -163 l-69 0 q-187 0 -281.5 81.5 q-94.5 81.5 -94.5 264.5 l0 245 q0 108 -34.5 154 q-34.5 46 -131.5 46 l0 212 q97 0 131.5 45.5 q34.5 45.5 34.5 153.5 l0 215 q0 181 94 259.5 q94 78.5 282 78.5 l69 0 l0 -164 l-41 0 q-120 0 -167.5 -47 q-47.5 -47 -47.5 -157 l0 -257 q0 -105 -44.5 -158.5 q-44.5 -53.5 -133.5 -62.5 Z" /><glyph glyph-name="bar" unicode="|" d="M452 -304 l-175 0 l0 1741 l175 0 l0 -1741 Z" /><glyph glyph-name="braceright" unicode="}" d="M497 572 l0 24 q-177 18 -177 221 l0 257 q0 110 -48.5 157 q-48.5 47 -167.5 47 l-41 0 l0 164 l69 0 q188 0 282 -78.5 q94 -78.5 94 -259.5 l0 -215 q0 -108 34.5 -153.5 q34.5 -45.5 131.5 -45.5 l0 -212 q-97 0 -131.5 -46 q-34.5 -46 -34.5 -154 l0 -245 q0 -183 -94.5 -264.5 q-94.5 -81.5 -281.5 -81.5 l-69 0 l0 163 l41 0 q119 0 167.5 47.5 q48.5 47.5 48.5 157.5 l0 288 q0 212 177 229 Z" /><glyph glyph-name="asciitilde" unicode="~" d="M791 488 q-59 0 -110.5 21 q-51.5 21 -87.5 51.5 q-36 30.5 -68 61 q-32 30.5 -67.5 51.5 q-35.5 21 -70.5 21 q-57 0 -89 -48.5 q-32 -48.5 -34 -119.5 l-168 0 q-3 147 70 249 q73 102 211 102 q60 0 112 -21 q52 -21 87 -51.5 q35 -30.5 66.5 -61 q31.5 -30.5 66 -51.5 q34.5 -21 70.5 -21 q58 0 88.5 48.5 q30.5 48.5 34.5 120.5 l168 0 q2 -151 -71 -251.5 q-73 -100.5 -208 -100.5 Z" /><glyph glyph-name="nonbreakingspace" unicode=" " d="" /><glyph glyph-name="exclamdown" unicode="¡" d="M404 -277 l-225 0 l24 888 l177 0 l24 -888 ZM444 962 q0 -65 -42.5 -106.5 q-42.5 -41.5 -108.5 -41.5 q-68 0 -111 41.5 q-43 41.5 -43 106.5 q0 63 43 103.5 q43 40.5 111 40.5 q65 0 108 -41 q43 -41 43 -103 Z" /><glyph glyph-name="cent" unicode="¢" d="M1011 464 q-4 -126 -94.5 -217 q-90.5 -91 -249.5 -107 l0 -226 l-158 0 l0 226 q-168 18 -269.5 139.5 q-101.5 121.5 -101.5 320.5 l0 164 q0 193 102 314 q102 121 269 140 l0 237 l158 0 l0 -238 q153 -17 243.5 -113.5 q90.5 -96.5 94.5 -219.5 l-192 0 q-4 27 -17.5 54 q-13.5 27 -38 53.5 q-24.5 26.5 -68.5 43 q-44 16.5 -100 16.5 q-123 0 -190.5 -79 q-67.5 -79 -67.5 -211 l0 -163 q0 -131 69.5 -207.5 q69.5 -76.5 188.5 -76.5 q106 0 161.5 42 q55.5 42 69.5 108 l191 0 Z" /><glyph glyph-name="sterling" unicode="£" d="M1076 179 l0 -179 l-955 0 l0 188 q48 2 75.5 9.5 q27.5 7.5 51.5 31.5 q24 24 33.5 71.5 q9.5 47.5 9.5 126.5 l0 185 l-189 0 l0 157 l189 0 l0 273 q0 164 110 257 q110 93 283 93 q176 0 277.5 -90.5 q101.5 -90.5 106.5 -250.5 l-190 0 q-4 70 -56 116 q-52 46 -138 46 q-98 0 -147.5 -54.5 q-49.5 -54.5 -49.5 -139.5 l0 -250 l296 0 l0 -157 l-296 0 l0 -194 q-1 -91 -17 -147.5 q-16 -56.5 -56 -79.5 l0 -12 l662 0 Z" /><glyph glyph-name="currency" unicode="¤" d="M964 152 l-171 169 q-94 -59 -204 -59 q-116 0 -209 62 l-174 -172 l-110 115 l173 172 q-65 98 -65 214 q0 114 61 209 l-169 167 l111 116 l167 -166 q96 66 215 66 q115 0 210 -63 l165 163 l110 -116 l-164 -164 q63 -99 63 -212 q0 -120 -68 -218 l169 -168 l-110 -115 ZM420 819 q-70 -69 -70 -166 q0 -97 70 -165 q70 -68 169 -68 q98 0 168 68.5 q70 68.5 70 164.5 q0 97 -70 166 q-70 69 -168 69 q-99 0 -169 -69 Z" /><glyph glyph-name="yen" unicode="¥" d="M975 248 l-288 0 l0 -248 l-205 0 l0 248 l-287 0 l0 144 l287 0 l0 136 l-287 0 l0 144 l227 0 l-397 693 l232 0 l323 -592 l10 0 l325 592 l229 0 l-397 -693 l228 0 l0 -144 l-288 0 l0 -136 l288 0 l0 -144 Z" /><glyph glyph-name="brokenbar" unicode="¦" d="M346 782 l-175 0 l0 655 l175 0 l0 -655 ZM346 -304 l-175 0 l0 682 l175 0 l0 -682 Z" /><glyph glyph-name="section" unicode="§" d="M695 72 q0 31 -12.5 56 q-12.5 25 -32.5 41 q-20 16 -53 29.5 q-33 13.5 -63.5 22.5 q-30.5 9 -75.5 21 q-16 4 -24 6 q-74 19 -127 40.5 q-53 21.5 -101 56 q-48 34.5 -72.5 86.5 q-24.5 52 -24.5 120 q0 161 168 247 l0 7 q-162 92 -162 257 q0 105 54.5 182 q54.5 77 139.5 113 q85 36 189 36 q168 0 271 -89 q103 -89 103 -228 l-178 0 q-4 58 -57 105 q-53 47 -144 47 q-84 0 -136 -43 q-52 -43 -52 -113 q0 -87 103 -132 q40 -17 151 -45 q59 -14 99.5 -26.5 q40.5 -12.5 89 -36.5 q48.5 -24 77.5 -54 q29 -30 49 -77 q20 -47 20 -107 q0 -86 -44 -151.5 q-44 -65.5 -108 -106.5 l0 -8 q67 -42 106 -96 q39 -54 39 -140 q0 -155 -111.5 -249.5 q-111.5 -94.5 -289.5 -94.5 q-110 0 -198.5 37 q-88.5 37 -141.5 110 q-53 73 -54 169 l184 0 q11 -69 65 -109 q54 -40 146 -40 q106 0 157 44.5 q51 44.5 51 112.5 ZM593 384 q48 20 80 69.5 q32 49.5 32 105.5 q0 72 -53.5 112.5 q-53.5 40.5 -156.5 62.5 q-24 4 -75 15 q-46 -15 -85.5 -64 q-39.5 -49 -39.5 -107 q0 -73 52.5 -110.5 q52.5 -37.5 155.5 -62.5 q58 -14 90 -21 Z" /><glyph glyph-name="dieresis" unicode="¨" d="M677 1218 q-47 0 -79.5 32 q-32.5 32 -32.5 80 q0 49 32.5 81 q32.5 32 79.5 32 q52 0 85.5 -32 q33.5 -32 33.5 -81 q0 -48 -33.5 -80 q-33.5 -32 -85.5 -32 ZM304 1218 q-49 0 -82 32 q-33 32 -33 80 q0 49 32.5 81 q32.5 32 82.5 32 q50 0 83 -32 q33 -32 33 -81 q0 -48 -33 -80 q-33 -32 -83 -32 Z" /><glyph glyph-name="copyright" unicode="©" d="M527 632 l0 99 q0 157 90 244.5 q90 87.5 241 87.5 q137 0 219.5 -76.5 q82.5 -76.5 84.5 -179.5 l-139 0 q-7 48 -45.5 86.5 q-38.5 38.5 -118.5 38.5 q-191 0 -191 -207 l0 -94 q0 -98 50.5 -147.5 q50.5 -49.5 140.5 -49.5 q147 0 169 107 l138 0 q-3 -101 -83 -172.5 q-80 -71.5 -225 -71.5 q-152 0 -241.5 87.5 q-89.5 87.5 -89.5 247.5 ZM258 641 q0 -167 73.5 -299 q73.5 -132 209 -207 q135.5 -75 311.5 -75 q132 0 243.5 43.5 q111.5 43.5 189 120.5 q77.5 77 121 184.5 q43.5 107.5 43.5 232.5 l0 106 q0 154 -74.5 281.5 q-74.5 127.5 -212 203 q-137.5 75.5 -310.5 75.5 q-173 0 -309.5 -75 q-136.5 -75 -210.5 -202.5 q-74 -127.5 -74 -282.5 l0 -106 ZM852 -64 q-209 0 -374 92 q-165 92 -255.5 253.5 q-90.5 161.5 -90.5 362.5 l0 103 q0 142 54 268 q54 126 148 218 q94 92 229 145.5 q135 53.5 289 53.5 q155 0 290 -54 q135 -54 228.5 -146.5 q93.5 -92.5 147.5 -218.5 q54 -126 54 -266 l0 -103 q0 -151 -53 -282 q-53 -131 -146.5 -224.5 q-93.5 -93.5 -228.5 -147.5 q-135 -54 -292 -54 Z" /><glyph glyph-name="ordfeminine" unicode="ª" d="M290 770 q-90 0 -144.5 47.5 q-54.5 47.5 -54.5 130.5 q0 82 55 128 q55 46 161 46 l147 0 l0 51 q0 84 -106 84 q-89 0 -101 -58 l-133 0 q6 77 64.5 124 q58.5 47 173.5 47 q110 0 176 -47.5 q66 -47.5 66 -151.5 l0 -392 l-134 0 l0 74 l-6 0 q-48 -83 -164 -83 ZM334 878 q50 0 85 27.5 q35 27.5 35 69.5 l0 56 l-120 0 q-105 0 -105 -73 q0 -39 30 -59.5 q30 -20.5 75 -20.5 Z" /><glyph glyph-name="guillemotleft" unicode="«" d="M616 565 l344 404 l212 0 l-339 -403 l0 -6 l339 -405 l-221 0 l-335 402 l0 8 ZM132 565 l344 404 l212 0 l-339 -403 l0 -6 l339 -405 l-221 0 l-335 402 l0 8 Z" /><glyph glyph-name="logicalnot" unicode="¬" d="M1070 93 l-176 0 l0 363 l-798 0 l0 175 l974 0 l0 -538 Z" /><glyph glyph-name="registered" unicode="®" d="M958.5 548.5 q-138.5 -134.5 -351.5 -134.5 q-213 0 -351.5 135 q-138.5 135 -138.5 339 l0 69 q0 192 140.5 325 q140.5 133 349.5 133 q208 0 349 -133.5 q141 -133.5 141 -324.5 l0 -69 q0 -205 -138.5 -339.5 ZM327 620.5 q110 -106.5 280 -106.5 q170 0 280.5 106.5 q110.5 106.5 110.5 267.5 l0 68 q0 151 -111.5 255.5 q-111.5 104.5 -279.5 104.5 q-168 0 -279 -104 q-111 -104 -111 -256 l0 -68 q0 -161 110 -267.5 ZM530 1086 l0 -145 l77 0 q99 0 99 73 q0 34 -24 53 q-24 19 -63 19 l-89 0 ZM530 686 l-101 0 l0 479 l225 0 q68 0 111.5 -42 q43.5 -42 43.5 -106 q0 -52 -26.5 -91.5 q-26.5 -39.5 -67.5 -50.5 l109 -189 l-116 0 l-95 177 l-83 0 l0 -177 Z" /><glyph glyph-name="macron" unicode="¯" d="M797 1246 l-605 0 l0 127 l605 0 l0 -127 Z" /><glyph glyph-name="degree" unicode="°" d="M362 806 q-121 0 -204.5 84 q-83.5 84 -83.5 206 q0 121 83.5 204.5 q83.5 83.5 204.5 83.5 q120 0 203.5 -84 q83.5 -84 83.5 -204 q0 -121 -84 -205.5 q-84 -84.5 -203 -84.5 ZM363 948 q62 0 105.5 44 q43.5 44 43.5 104 q0 61 -43.5 104 q-43.5 43 -105.5 43 q-61 0 -105.5 -43 q-44.5 -43 -44.5 -104 q0 -60 44.5 -104 q44.5 -44 105.5 -44 Z" /><glyph glyph-name="plusminus" unicode="±" d="M665 651 l0 -271 l-169 0 l0 271 l-392 0 l0 169 l392 0 l0 256 l169 0 l0 -256 l395 0 l0 -169 l-395 0 ZM1063 97 l-956 0 l0 172 l956 0 l0 -172 Z" /><glyph glyph-name="twosuperior" unicode="²" d="M239 1155 l-138 0 l0 10 q0 87 62 150.5 q62 63.5 175 63.5 q106 0 170.5 -55.5 q64.5 -55.5 64.5 -140.5 q0 -34 -10.5 -65.5 q-10.5 -31.5 -31 -60.5 q-20.5 -29 -36.5 -46.5 q-16 -17.5 -41 -42.5 l-158 -146 l0 -3 l288 0 l0 -126 l-470 0 l0 96 l243 252 q73 75 73 129 q0 38 -27 61 q-27 23 -68 23 q-44 0 -70 -25.5 q-26 -25.5 -26 -62.5 l0 -11 Z" /><glyph glyph-name="threesuperior" unicode="³" d="M263 979 l0 118 l76 0 q44 0 70.5 23.5 q26.5 23.5 26.5 59.5 q0 36 -26.5 58 q-26.5 22 -68.5 22 q-45 0 -72 -23.5 q-27 -23.5 -29 -57.5 l-133 0 q3 88 65 144 q62 56 171 56 q103 0 166.5 -49 q63.5 -49 63.5 -129 q0 -58 -34 -99 q-34 -41 -89 -55 l0 -3 q64 -11 105 -51 q41 -40 41 -108 q0 -94 -72 -149 q-72 -55 -181 -55 q-114 0 -180 59.5 q-66 59.5 -69 142.5 l134 0 q3 -35 33 -58 q30 -23 78 -23 q51 0 83 25 q32 25 32 64 q0 38 -30.5 63 q-30.5 25 -81.5 25 l-79 0 Z" /><glyph glyph-name="acute" unicode="´" d="M306 1226 l239 354 l192 0 l-279 -354 l-152 0 Z" /><glyph glyph-name="paragraph" unicode="¶" d="M787 -210 l-196 0 l0 700 l-20 0 q-55 0 -113.5 14.5 q-58.5 14.5 -118.5 48.5 q-60 34 -107.5 83 q-47.5 49 -77.5 124.5 q-30 75.5 -30 166.5 q0 71 16 132 q16 61 42.5 105 q26.5 44 63 79.5 q36.5 35.5 77 57.5 q40.5 22 85 37 q44.5 15 85 21 q40.5 6 79.5 6 l215 0 l0 -1575 ZM947 -210 l0 1575 l196 0 l0 -1575 l-196 0 Z" /><glyph glyph-name="periodcentered" unicode="·" d="M177 755 q0 69 43.5 112.5 q43.5 43.5 107.5 43.5 q66 0 110 -43.5 q44 -43.5 44 -112.5 q0 -67 -44 -109.5 q-44 -42.5 -110 -42.5 q-63 0 -107 43 q-44 43 -44 109 Z" /><glyph glyph-name="cedilla" unicode="¸" d="M385 -235 l0 89 l59 154 l131 0 l-52 -137 q95 0 150.5 -42.5 q55.5 -42.5 55.5 -121.5 q0 -93 -63 -140.5 q-63 -47.5 -166 -51.5 q-86 -3 -149 16 l0 113 q47 -14 115 -14 q48 0 81.5 16.5 q33.5 16.5 33.5 54.5 q0 22 -10.5 35.5 q-10.5 13.5 -33.5 19.5 q-23 6 -43.5 7.5 q-20.5 1.5 -55.5 1.5 l-53 0 Z" /><glyph glyph-name="onesuperior" unicode="¹" d="M448 693 l-144 0 l0 525 l-7 0 l-153 -112 l0 141 l160 118 l144 0 l0 -672 Z" /><glyph glyph-name="ordmasculine" unicode="º" d="M347 1255 q-63 0 -97.5 -43.5 q-34.5 -43.5 -34.5 -111.5 l0 -62 q0 -69 33.5 -112 q33.5 -43 98.5 -43 q64 0 97 43 q33 43 33 112 l0 62 q0 68 -34 111.5 q-34 43.5 -96 43.5 ZM150 1296.5 q75 73.5 197 73.5 q122 0 196.5 -72.5 q74.5 -72.5 74.5 -195.5 l0 -65 q0 -128 -74 -199 q-74 -71 -197 -71 q-124 0 -198 71 q-74 71 -74 199 l0 65 q0 121 75 194.5 Z" /><glyph glyph-name="guillemotright" unicode="»" d="M1195 565 l0 -8 l-335 -402 l-221 0 l339 405 l0 6 l-339 403 l212 0 l344 -404 ZM711 565 l0 -8 l-335 -402 l-221 0 l339 405 l0 6 l-339 403 l212 0 l344 -404 Z" /><glyph glyph-name="onequarter" unicode="¼" d="M999 232 l198 0 l0 322 l-6 0 q-76 -114 -192 -319 l0 -3 ZM1131 672 l195 0 l0 -440 l81 0 l0 -116 l-81 0 l0 -116 l-129 0 l0 116 l-334 0 l0 114 q64 114 268 442 ZM424 693 l-144 0 l0 525 l-7 0 l-153 -112 l0 141 l160 118 l144 0 l0 -672 ZM313 0 l-167 0 l533 698 l511 667 l166 0 l-530 -693 l-513 -672 Z" /><glyph glyph-name="onehalf" unicode="½" d="M1100 452 l-140 0 l0 10 q0 88 63 152.5 q63 64.5 178 64.5 q107 0 172.5 -56 q65.5 -56 65.5 -143 q0 -34 -10.5 -66 q-10.5 -32 -31.5 -61.5 q-21 -29.5 -36.5 -47 q-15.5 -17.5 -41.5 -43.5 l-161 -148 l0 -3 l293 0 l0 -128 l-478 0 l0 97 l247 256 q74 76 74 131 q0 38 -27.5 61.5 q-27.5 23.5 -68.5 23.5 q-44 0 -71 -26 q-27 -26 -27 -63 l0 -11 ZM424 693 l-144 0 l0 525 l-7 0 l-153 -112 l0 141 l160 118 l144 0 l0 -672 ZM313 0 l-167 0 l533 698 l511 667 l166 0 l-530 -693 l-513 -672 Z" /><glyph glyph-name="threequarters" unicode="¾" d="M1056 234 l198 0 l0 320 l-6 0 q-75 -111 -192 -318 l0 -2 ZM1189 672 l196 0 l0 -438 l79 0 l0 -118 l-79 0 l0 -116 l-131 0 l0 116 l-333 0 l0 114 q73 133 268 442 ZM290 961 l0 119 l77 0 q45 0 71.5 23.5 q26.5 23.5 26.5 60.5 q0 37 -26.5 59 q-26.5 22 -69.5 22 q-46 0 -73 -24 q-27 -24 -29 -58 l-135 0 q3 89 65.5 145.5 q62.5 56.5 173.5 56.5 q104 0 168.5 -50 q64.5 -50 64.5 -130 q0 -58 -34.5 -99.5 q-34.5 -41.5 -89.5 -55.5 l0 -3 q65 -11 106 -51.5 q41 -40.5 41 -109.5 q0 -95 -72.5 -150.5 q-72.5 -55.5 -183.5 -55.5 q-116 0 -182.5 60 q-66.5 60 -69.5 144 l136 0 q3 -36 33 -59 q30 -23 79 -23 q52 0 84.5 25.5 q32.5 25.5 32.5 64.5 q0 38 -31 63.5 q-31 25.5 -83 25.5 l-80 0 ZM371 0 l-167 0 l533 698 l511 667 l166 0 l-530 -693 l-513 -672 Z" /><glyph glyph-name="questiondown" unicode="¿" d="M677 948 q0 -65 -43 -106.5 q-43 -41.5 -108 -41.5 q-68 0 -111.5 41.5 q-43.5 41.5 -43.5 106.5 q0 63 43.5 103.5 q43.5 40.5 111.5 40.5 q65 0 108 -41 q43 -41 43 -103 ZM923 77 q1 -86 -23.5 -155 q-24.5 -69 -66 -113.5 q-41.5 -44.5 -98 -74.5 q-56.5 -30 -115.5 -42.5 q-59 -12.5 -122 -12.5 q-82 0 -155 22 q-73 22 -131.5 64 q-58.5 42 -92.5 111 q-34 69 -34 155 q0 60 15.5 110 q15.5 50 48 90 q32.5 40 59.5 64.5 q27 24.5 72 58.5 q53 41 75.5 60 q22.5 19 45.5 47.5 q23 28.5 30 57 q7 28.5 7 70.5 l0 57 l191 0 l1 -74 q2 -69 -25.5 -129.5 q-27.5 -60.5 -65 -99.5 q-37.5 -39 -96.5 -84 q-43 -33 -64 -50.5 q-21 -17.5 -45 -45 q-24 -27.5 -33.5 -56 q-9.5 -28.5 -9.5 -64.5 q0 -93 62.5 -140 q62.5 -47 154.5 -47 q108 0 166.5 62 q58.5 62 58.5 159 l190 0 Z" /><glyph glyph-name="Agrave" unicode="à" d="M257 0 l-208 0 l476 1365 l223 0 l475 -1365 l-220 0 l-128 381 l-490 0 l-128 -381 ZM635 1132 l-8 0 l-192 -581 l392 0 l-192 581 ZM730 1509 l-148 0 l-280 345 l190 0 l238 -345 Z" /><glyph glyph-name="Aacute" unicode="á" d="M257 0 l-208 0 l476 1365 l223 0 l475 -1365 l-220 0 l-128 381 l-490 0 l-128 -381 ZM635 1132 l-8 0 l-192 -581 l392 0 l-192 581 ZM542 1509 l238 345 l190 0 l-280 -345 l-148 0 Z" /><glyph glyph-name="Acircumflex" unicode="â" d="M257 0 l-208 0 l476 1365 l223 0 l475 -1365 l-220 0 l-128 381 l-490 0 l-128 -381 ZM635 1132 l-8 0 l-192 -581 l392 0 l-192 581 ZM704 1743 l268 -246 l-185 0 l-148 135 l-7 0 l-157 -135 l-181 0 l278 246 l132 0 Z" /><glyph glyph-name="Atilde" unicode="ã" d="M257 0 l-208 0 l476 1365 l223 0 l475 -1365 l-220 0 l-128 381 l-490 0 l-128 -381 ZM635 1132 l-8 0 l-192 -581 l392 0 l-192 581 ZM759 1461 q-44 0 -82 18.5 q-38 18.5 -59.5 40 q-21.5 21.5 -48.5 40 q-27 18.5 -51 18.5 q-36 0 -52.5 -31.5 q-16.5 -31.5 -18.5 -70.5 l-118 0 q0 88 47.5 152.5 q47.5 64.5 134.5 64.5 q44 0 82.5 -18.5 q38.5 -18.5 61.5 -40 q23 -21.5 51 -40 q28 -18.5 52 -18.5 q36 0 55 30.5 q19 30.5 20 70.5 l118 0 q0 -88 -51.5 -152 q-51.5 -64 -140.5 -64 Z" /><glyph glyph-name="Adieresis" unicode="ä" d="M257 0 l-208 0 l476 1365 l223 0 l475 -1365 l-220 0 l-128 381 l-490 0 l-128 -381 ZM635 1132 l-8 0 l-192 -581 l392 0 l-192 581 ZM816 1473 q-47 0 -78.5 30.5 q-31.5 30.5 -31.5 76.5 q0 48 31 78 q31 30 79 30 q50 0 81.5 -30 q31.5 -30 31.5 -78 q0 -47 -31.5 -77 q-31.5 -30 -81.5 -30 ZM453 1473 q-47 0 -78.5 30.5 q-31.5 30.5 -31.5 76.5 q0 48 31 78 q31 30 79 30 q50 0 81 -30 q31 -30 31 -78 q0 -47 -31.5 -77 q-31.5 -30 -80.5 -30 Z" /><glyph glyph-name="Aring" unicode="å" d="M257 0 l-208 0 l476 1365 l223 0 l475 -1365 l-220 0 l-128 381 l-490 0 l-128 -381 ZM635 1132 l-8 0 l-192 -581 l392 0 l-192 581 ZM637 1477 q-84 0 -141 56.5 q-57 56.5 -57 140.5 q0 84 57 139.5 q57 55.5 141 55.5 q83 0 140 -55.5 q57 -55.5 57 -139.5 q0 -84 -57 -140.5 q-57 -56.5 -140 -56.5 ZM537 1673 q0 -41 28.5 -70 q28.5 -29 70.5 -29 q42 0 70.5 28.5 q28.5 28.5 28.5 70.5 q0 42 -28 70.5 q-28 28.5 -71 28.5 q-42 0 -70.5 -28.5 q-28.5 -28.5 -28.5 -70.5 Z" /><glyph glyph-name="AE" unicode="æ" d="M877 1178 l-323 -629 l394 1 l0 628 l-71 0 ZM948 375 l-473 0 l-206 -375 l-230 0 l719 1365 l1021 0 l0 -187 l-626 0 l0 -394 l590 0 l0 -180 l-590 0 l0 -416 l626 0 l0 -188 l-831 0 l0 375 Z" /><glyph glyph-name="Ccedilla" unicode="ç" d="M666 -485 q-85 -3 -150 16 l0 113 q47 -14 115 -14 q48 0 82 16.5 q34 16.5 34 54.5 q0 22 -10.5 35.5 q-10.5 13.5 -33.5 19.5 q-23 6 -43.5 7.5 q-20.5 1.5 -55.5 1.5 l-53 0 l0 89 l47 123 q-220 24 -344 181.5 q-124 157.5 -124 428.5 l0 185 q0 291 147 455.5 q147 164.5 400 164.5 q121 0 220.5 -39.5 q99.5 -39.5 162.5 -105.5 q63 -66 97 -149.5 q34 -83.5 34 -174.5 l0 -15 l-201 0 q0 118 -84 205.5 q-84 87.5 -228 87.5 q-156 0 -248 -111 q-92 -111 -92 -320 l0 -182 q0 -211 91.5 -317 q91.5 -106 252.5 -106 q146 0 227 78.5 q81 78.5 81 194.5 l201 0 l0 -15 q0 -78 -29 -152.5 q-29 -74.5 -84 -138.5 q-55 -64 -145.5 -106.5 q-90.5 -42.5 -204.5 -50.5 l-40 -104 q95 0 151 -42.5 q56 -42.5 56 -121.5 q0 -93 -63 -140.5 q-63 -47.5 -166 -51.5 Z" /><glyph glyph-name="Egrave" unicode="è" d="M693 1509 l-148 0 l-280 345 l190 0 l238 -345 ZM1023 188 l0 -188 l-839 0 l0 1365 l839 0 l0 -188 l-634 0 l0 -393 l598 0 l0 -180 l-598 0 l0 -416 l634 0 Z" /><glyph glyph-name="Eacute" unicode="é" d="M505 1509 l238 345 l190 0 l-280 -345 l-148 0 ZM1023 188 l0 -188 l-839 0 l0 1365 l839 0 l0 -188 l-634 0 l0 -393 l598 0 l0 -180 l-598 0 l0 -416 l634 0 Z" /><glyph glyph-name="Ecircumflex" unicode="ê" d="M667 1743 l268 -246 l-185 0 l-148 135 l-7 0 l-157 -135 l-181 0 l278 246 l132 0 ZM1023 188 l0 -188 l-839 0 l0 1365 l839 0 l0 -188 l-634 0 l0 -393 l598 0 l0 -180 l-598 0 l0 -416 l634 0 Z" /><glyph glyph-name="Edieresis" unicode="ë" d="M778 1473 q-47 0 -78.5 30.5 q-31.5 30.5 -31.5 76.5 q0 48 31 78 q31 30 79 30 q50 0 81.5 -30 q31.5 -30 31.5 -78 q0 -47 -31.5 -77 q-31.5 -30 -81.5 -30 ZM415 1473 q-47 0 -78.5 30.5 q-31.5 30.5 -31.5 76.5 q0 48 31 78 q31 30 79 30 q50 0 81 -30 q31 -30 31 -78 q0 -47 -31.5 -77 q-31.5 -30 -80.5 -30 ZM1023 188 l0 -188 l-839 0 l0 1365 l839 0 l0 -188 l-634 0 l0 -393 l598 0 l0 -180 l-598 0 l0 -416 l634 0 Z" /><glyph glyph-name="Igrave" unicode="ì" d="M390 0 l-206 0 l0 1365 l206 0 l0 -1365 ZM382 1509 l-148 0 l-280 345 l190 0 l238 -345 Z" /><glyph glyph-name="Iacute" unicode="í" d="M390 0 l-206 0 l0 1365 l206 0 l0 -1365 ZM194 1509 l238 345 l190 0 l-280 -345 l-148 0 Z" /><glyph glyph-name="Icircumflex" unicode="î" d="M390 0 l-206 0 l0 1365 l206 0 l0 -1365 ZM356 1743 l268 -246 l-185 0 l-148 135 l-7 0 l-157 -135 l-181 0 l278 246 l132 0 Z" /><glyph glyph-name="Idieresis" unicode="ï" d="M390 0 l-206 0 l0 1365 l206 0 l0 -1365 ZM467 1473 q-47 0 -78.5 30.5 q-31.5 30.5 -31.5 76.5 q0 48 31 78 q31 30 79 30 q50 0 81.5 -30 q31.5 -30 31.5 -78 q0 -47 -31.5 -77 q-31.5 -30 -81.5 -30 ZM104 1473 q-47 0 -78.5 30.5 q-31.5 30.5 -31.5 76.5 q0 48 31 78 q31 30 79 30 q50 0 81 -30 q31 -30 31 -78 q0 -47 -31.5 -77 q-31.5 -30 -80.5 -30 Z" /><glyph glyph-name="Eth" unicode="ð" d="M723 0 l-458 0 l0 598 l-162 0 l0 196 l162 0 l0 571 l458 0 q161 0 279 -49.5 q118 -49.5 188 -142 q70 -92.5 103 -213.5 q33 -121 33 -276 q0 -122 -19.5 -223 q-19.5 -101 -64.5 -187.5 q-45 -86.5 -114 -146.5 q-69 -60 -171.5 -93.5 q-102.5 -33.5 -233.5 -33.5 ZM471 190 l233 0 q208 0 308.5 120.5 q100.5 120.5 100.5 373.5 q0 496 -409 496 l-233 0 l0 -386 l287 0 l0 -196 l-287 0 l0 -408 Z" /><glyph glyph-name="Ntilde" unicode="ñ" d="M833 1461 q-44 0 -82 18.5 q-38 18.5 -59.5 40 q-21.5 21.5 -48.5 40 q-27 18.5 -51 18.5 q-36 0 -52.5 -31.5 q-16.5 -31.5 -18.5 -70.5 l-118 0 q0 88 47.5 152.5 q47.5 64.5 134.5 64.5 q44 0 82.5 -18.5 q38.5 -18.5 61.5 -40 q23 -21.5 51 -40 q28 -18.5 52 -18.5 q36 0 55 30.5 q19 30.5 20 70.5 l118 0 q0 -88 -51.5 -152 q-51.5 -64 -140.5 -64 ZM384 0 l-200 0 l0 1365 l187 0 l656 -988 l10 0 l0 988 l200 0 l0 -1365 l-187 0 l-657 991 l-9 0 l0 -991 Z" /><glyph glyph-name="Ograve" unicode="ò" d="M783 1509 l-148 0 l-280 345 l190 0 l238 -345 ZM338 772 l0 -190 q0 -206 96.5 -312.5 q96.5 -106.5 253.5 -106.5 q158 0 255 106.5 q97 106.5 97 312.5 l0 190 q0 207 -97.5 318.5 q-97.5 111.5 -254.5 111.5 q-156 0 -253 -111.5 q-97 -111.5 -97 -318.5 ZM130 583 l0 188 q0 289 151 455 q151 166 409 166 q258 0 408 -166 q150 -166 150 -455 l0 -188 q0 -287 -151.5 -449 q-151.5 -162 -410.5 -162 q-258 0 -407 161.5 q-149 161.5 -149 449.5 Z" /><glyph glyph-name="Oacute" unicode="ó" d="M595 1509 l238 345 l190 0 l-280 -345 l-148 0 ZM338 772 l0 -190 q0 -206 96.5 -312.5 q96.5 -106.5 253.5 -106.5 q158 0 255 106.5 q97 106.5 97 312.5 l0 190 q0 207 -97.5 318.5 q-97.5 111.5 -254.5 111.5 q-156 0 -253 -111.5 q-97 -111.5 -97 -318.5 ZM130 583 l0 188 q0 289 151 455 q151 166 409 166 q258 0 408 -166 q150 -166 150 -455 l0 -188 q0 -287 -151.5 -449 q-151.5 -162 -410.5 -162 q-258 0 -407 161.5 q-149 161.5 -149 449.5 Z" /><glyph glyph-name="Ocircumflex" unicode="ô" d="M757 1743 l268 -246 l-185 0 l-148 135 l-7 0 l-157 -135 l-181 0 l278 246 l132 0 ZM338 772 l0 -190 q0 -206 96.5 -312.5 q96.5 -106.5 253.5 -106.5 q158 0 255 106.5 q97 106.5 97 312.5 l0 190 q0 207 -97.5 318.5 q-97.5 111.5 -254.5 111.5 q-156 0 -253 -111.5 q-97 -111.5 -97 -318.5 ZM130 583 l0 188 q0 289 151 455 q151 166 409 166 q258 0 408 -166 q150 -166 150 -455 l0 -188 q0 -287 -151.5 -449 q-151.5 -162 -410.5 -162 q-258 0 -407 161.5 q-149 161.5 -149 449.5 Z" /><glyph glyph-name="Otilde" unicode="õ" d="M338 772 l0 -190 q0 -206 96.5 -312.5 q96.5 -106.5 253.5 -106.5 q158 0 255 106.5 q97 106.5 97 312.5 l0 190 q0 207 -97.5 318.5 q-97.5 111.5 -254.5 111.5 q-156 0 -253 -111.5 q-97 -111.5 -97 -318.5 ZM130 583 l0 188 q0 289 151 455 q151 166 409 166 q258 0 408 -166 q150 -166 150 -455 l0 -188 q0 -287 -151.5 -449 q-151.5 -162 -410.5 -162 q-258 0 -407 161.5 q-149 161.5 -149 449.5 ZM812 1461 q-44 0 -82 18.5 q-38 18.5 -59.5 40 q-21.5 21.5 -48.5 40 q-27 18.5 -51 18.5 q-36 0 -52.5 -31.5 q-16.5 -31.5 -18.5 -70.5 l-118 0 q0 88 47.5 152.5 q47.5 64.5 134.5 64.5 q44 0 82.5 -18.5 q38.5 -18.5 61.5 -40 q23 -21.5 51 -40 q28 -18.5 52 -18.5 q36 0 55 30.5 q19 30.5 20 70.5 l118 0 q0 -88 -51.5 -152 q-51.5 -64 -140.5 -64 Z" /><glyph glyph-name="Odieresis" unicode="ö" d="M868 1473 q-47 0 -78.5 30.5 q-31.5 30.5 -31.5 76.5 q0 48 31 78 q31 30 79 30 q50 0 81.5 -30 q31.5 -30 31.5 -78 q0 -47 -31.5 -77 q-31.5 -30 -81.5 -30 ZM505 1473 q-47 0 -78.5 30.5 q-31.5 30.5 -31.5 76.5 q0 48 31 78 q31 30 79 30 q50 0 81 -30 q31 -30 31 -78 q0 -47 -31.5 -77 q-31.5 -30 -80.5 -30 ZM338 772 l0 -190 q0 -206 96.5 -312.5 q96.5 -106.5 253.5 -106.5 q158 0 255 106.5 q97 106.5 97 312.5 l0 190 q0 207 -97.5 318.5 q-97.5 111.5 -254.5 111.5 q-156 0 -253 -111.5 q-97 -111.5 -97 -318.5 ZM130 583 l0 188 q0 289 151 455 q151 166 409 166 q258 0 408 -166 q150 -166 150 -455 l0 -188 q0 -287 -151.5 -449 q-151.5 -162 -410.5 -162 q-258 0 -407 161.5 q-149 161.5 -149 449.5 Z" /><glyph glyph-name="multiply" unicode="×" d="M893 69 l-309 310 l-311 -310 l-120 131 l309 309 l-309 309 l120 130 l311 -309 l309 309 l121 -130 l-310 -309 l310 -309 l-121 -131 Z" /><glyph glyph-name="Oslash" unicode="ø" d="M686 -28 q-235 0 -379 133 l-100 -124 l-106 90 l117 143 q-88 150 -88 369 l0 188 q0 289 151 455 q151 166 409 166 q228 0 372 -129 l95 116 l110 -83 l-116 -140 q97 -156 97 -385 l0 -188 q0 -287 -151.5 -449 q-151.5 -162 -410.5 -162 ZM334 581 q0 -100 28 -176 l577 696 q-96 104 -251 104 q-158 0 -256 -112.5 q-98 -112.5 -98 -320.5 l0 -191 ZM688 159 q159 0 256.5 107.5 q97.5 107.5 97.5 314.5 l0 191 q0 111 -34 193 l-578 -699 q94 -107 258 -107 Z" /><glyph glyph-name="Ugrave" unicode="ù" d="M791 1509 l-148 0 l-280 345 l190 0 l238 -345 ZM374 1365 l0 -877 q0 -150 87.5 -236.5 q87.5 -86.5 235.5 -86.5 q148 0 235.5 86.5 q87.5 86.5 87.5 236.5 l0 877 l206 0 l0 -891 q0 -226 -145.5 -364 q-145.5 -138 -383.5 -138 q-238 0 -383.5 139 q-145.5 139 -145.5 366 l0 888 l206 0 Z" /><glyph glyph-name="Uacute" unicode="ú" d="M603 1509 l238 345 l190 0 l-280 -345 l-148 0 ZM374 1365 l0 -877 q0 -150 87.5 -236.5 q87.5 -86.5 235.5 -86.5 q148 0 235.5 86.5 q87.5 86.5 87.5 236.5 l0 877 l206 0 l0 -891 q0 -226 -145.5 -364 q-145.5 -138 -383.5 -138 q-238 0 -383.5 139 q-145.5 139 -145.5 366 l0 888 l206 0 Z" /><glyph glyph-name="Ucircumflex" unicode="û" d="M765 1743 l268 -246 l-185 0 l-148 135 l-7 0 l-157 -135 l-181 0 l278 246 l132 0 ZM374 1365 l0 -877 q0 -150 87.5 -236.5 q87.5 -86.5 235.5 -86.5 q148 0 235.5 86.5 q87.5 86.5 87.5 236.5 l0 877 l206 0 l0 -891 q0 -226 -145.5 -364 q-145.5 -138 -383.5 -138 q-238 0 -383.5 139 q-145.5 139 -145.5 366 l0 888 l206 0 Z" /><glyph glyph-name="Udieresis" unicode="ü" d="M876 1473 q-47 0 -78.5 30.5 q-31.5 30.5 -31.5 76.5 q0 48 31 78 q31 30 79 30 q50 0 81.5 -30 q31.5 -30 31.5 -78 q0 -47 -31.5 -77 q-31.5 -30 -81.5 -30 ZM513 1473 q-47 0 -78.5 30.5 q-31.5 30.5 -31.5 76.5 q0 48 31 78 q31 30 79 30 q50 0 81 -30 q31 -30 31 -78 q0 -47 -31.5 -77 q-31.5 -30 -80.5 -30 ZM374 1365 l0 -877 q0 -150 87.5 -236.5 q87.5 -86.5 235.5 -86.5 q148 0 235.5 86.5 q87.5 86.5 87.5 236.5 l0 877 l206 0 l0 -891 q0 -226 -145.5 -364 q-145.5 -138 -383.5 -138 q-238 0 -383.5 139 q-145.5 139 -145.5 366 l0 888 l206 0 Z" /><glyph glyph-name="Yacute" unicode="ý" d="M684 0 l-206 0 l0 554 l-456 811 l232 0 l323 -592 l10 0 l325 592 l228 0 l-456 -808 l0 -557 ZM487 1509 l238 345 l190 0 l-280 -345 l-148 0 Z" /><glyph glyph-name="Thorn" unicode="þ" d="M184 1365 l205 0 l0 -247 l292 0 q204 0 323.5 -109.5 q119.5 -109.5 119.5 -299.5 q0 -191 -119.5 -299 q-119.5 -108 -324.5 -108 l-290 0 l0 -302 l-206 0 l0 1365 ZM390 934 l0 -450 l229 0 q69 0 117 8 q48 8 91 31 q43 23 64.5 69 q21.5 46 21.5 117 q0 225 -257 225 l-266 0 Z" /><glyph glyph-name="germandbls" unicode="ß" d="M386 0 l-204 0 l0 1046 q0 187 121 291 q121 104 321 105 q198 0 319.5 -99 q121.5 -99 120.5 -257 q0 -73 -26 -135 q-26 -62 -65.5 -100 q-39.5 -38 -82 -60.5 q-42.5 -22.5 -80.5 -27.5 l0 -14 q70 0 137 -23.5 q67 -23.5 122.5 -67 q55.5 -43.5 89 -114 q33.5 -70.5 33.5 -157.5 q0 -99 -40.5 -177.5 q-40.5 -78.5 -108.5 -127 q-68 -48.5 -153 -74 q-85 -25.5 -180 -25.5 q-93 0 -156 19 l0 175 q52 -20 141 -20 q55 0 105 13 q50 13 92.5 39 q42.5 26 68 73 q25.5 47 25.5 109 q0 113 -89 177.5 q-89 64.5 -239 64.5 l-77 0 l0 197 l46 0 q89 0 163 64 q74 64 74 163 q0 91 -63 148.5 q-63 57.5 -172 57.5 q-243 0 -243 -254 l0 -1009 Z" /><glyph glyph-name="agrave" unicode="à" d="M459 -17 q-154 0 -249.5 88.5 q-95.5 88.5 -95.5 235.5 q0 143 97 227.5 q97 84.5 275 84.5 l271 0 l0 100 q0 90 -55 135 q-55 45 -154 45 q-168 0 -201 -120 l-193 0 q11 135 114 214 q103 79 286 79 q87 0 157.5 -19 q70.5 -19 127.5 -59.5 q57 -40.5 88.5 -111 q31.5 -70.5 31.5 -166.5 l0 -716 l-193 0 l0 137 l-9 0 q-41 -68 -115 -111 q-74 -43 -183 -43 ZM519 153 q101 0 169.5 58.5 q68.5 58.5 68.5 146.5 l0 114 l-246 0 q-97 0 -145 -42 q-48 -42 -48 -112 q0 -80 58 -122.5 q58 -42.5 143 -42.5 ZM660 1226 l-151 0 l-279 354 l192 0 l238 -354 Z" /><glyph glyph-name="aacute" unicode="á" d="M459 -17 q-154 0 -249.5 88.5 q-95.5 88.5 -95.5 235.5 q0 143 97 227.5 q97 84.5 275 84.5 l271 0 l0 100 q0 90 -55 135 q-55 45 -154 45 q-168 0 -201 -120 l-193 0 q11 135 114 214 q103 79 286 79 q87 0 157.5 -19 q70.5 -19 127.5 -59.5 q57 -40.5 88.5 -111 q31.5 -70.5 31.5 -166.5 l0 -716 l-193 0 l0 137 l-9 0 q-41 -68 -115 -111 q-74 -43 -183 -43 ZM519 153 q101 0 169.5 58.5 q68.5 58.5 68.5 146.5 l0 114 l-246 0 q-97 0 -145 -42 q-48 -42 -48 -112 q0 -80 58 -122.5 q58 -42.5 143 -42.5 ZM469 1226 l239 354 l192 0 l-279 -354 l-152 0 Z" /><glyph glyph-name="acircumflex" unicode="â" d="M459 -17 q-154 0 -249.5 88.5 q-95.5 88.5 -95.5 235.5 q0 143 97 227.5 q97 84.5 275 84.5 l271 0 l0 100 q0 90 -55 135 q-55 45 -154 45 q-168 0 -201 -120 l-193 0 q11 135 114 214 q103 79 286 79 q87 0 157.5 -19 q70.5 -19 127.5 -59.5 q57 -40.5 88.5 -111 q31.5 -70.5 31.5 -166.5 l0 -716 l-193 0 l0 137 l-9 0 q-41 -68 -115 -111 q-74 -43 -183 -43 ZM519 153 q101 0 169.5 58.5 q68.5 58.5 68.5 146.5 l0 114 l-246 0 q-97 0 -145 -42 q-48 -42 -48 -112 q0 -80 58 -122.5 q58 -42.5 143 -42.5 ZM246 1222 l249 368 l137 0 l249 -368 l-166 0 l-148 238 l-7 0 l-148 -238 l-166 0 Z" /><glyph glyph-name="atilde" unicode="ã" d="M459 -17 q-154 0 -249.5 88.5 q-95.5 88.5 -95.5 235.5 q0 143 97 227.5 q97 84.5 275 84.5 l271 0 l0 100 q0 90 -55 135 q-55 45 -154 45 q-168 0 -201 -120 l-193 0 q11 135 114 214 q103 79 286 79 q87 0 157.5 -19 q70.5 -19 127.5 -59.5 q57 -40.5 88.5 -111 q31.5 -70.5 31.5 -166.5 l0 -716 l-193 0 l0 137 l-9 0 q-41 -68 -115 -111 q-74 -43 -183 -43 ZM519 153 q101 0 169.5 58.5 q68.5 58.5 68.5 146.5 l0 114 l-246 0 q-97 0 -145 -42 q-48 -42 -48 -112 q0 -80 58 -122.5 q58 -42.5 143 -42.5 ZM689 1218 q-38 0 -68.5 14.5 q-30.5 14.5 -50 35 q-19.5 20.5 -37 41.5 q-17.5 21 -38 35.5 q-20.5 14.5 -43.5 14.5 q-39 0 -54 -33.5 q-15 -33.5 -19 -90.5 l-125 0 q0 112 49.5 185 q49.5 73 143.5 73 q40 0 72.5 -14.5 q32.5 -14.5 53 -35.5 q20.5 -21 37.5 -41.5 q17 -20.5 36 -35 q19 -14.5 39 -14.5 q62 0 70 124 l125 0 q0 -68 -19.5 -125 q-19.5 -57 -64 -95 q-44.5 -38 -107.5 -38 Z" /><glyph glyph-name="adieresis" unicode="ä" d="M459 -17 q-154 0 -249.5 88.5 q-95.5 88.5 -95.5 235.5 q0 143 97 227.5 q97 84.5 275 84.5 l271 0 l0 100 q0 90 -55 135 q-55 45 -154 45 q-168 0 -201 -120 l-193 0 q11 135 114 214 q103 79 286 79 q87 0 157.5 -19 q70.5 -19 127.5 -59.5 q57 -40.5 88.5 -111 q31.5 -70.5 31.5 -166.5 l0 -716 l-193 0 l0 137 l-9 0 q-41 -68 -115 -111 q-74 -43 -183 -43 ZM519 153 q101 0 169.5 58.5 q68.5 58.5 68.5 146.5 l0 114 l-246 0 q-97 0 -145 -42 q-48 -42 -48 -112 q0 -80 58 -122.5 q58 -42.5 143 -42.5 ZM748 1218 q-47 0 -79.5 32 q-32.5 32 -32.5 80 q0 49 32.5 81 q32.5 32 79.5 32 q52 0 85.5 -32 q33.5 -32 33.5 -81 q0 -48 -33.5 -80 q-33.5 -32 -85.5 -32 ZM375 1218 q-49 0 -82 32 q-33 32 -33 80 q0 49 32.5 81 q32.5 32 82.5 32 q50 0 83 -32 q33 -32 33 -81 q0 -48 -33 -80 q-33 -32 -83 -32 Z" /><glyph glyph-name="aring" unicode="å" d="M459 -17 q-154 0 -249.5 88.5 q-95.5 88.5 -95.5 235.5 q0 143 97 227.5 q97 84.5 275 84.5 l271 0 l0 100 q0 90 -55 135 q-55 45 -154 45 q-168 0 -201 -120 l-193 0 q11 135 114 214 q103 79 286 79 q87 0 157.5 -19 q70.5 -19 127.5 -59.5 q57 -40.5 88.5 -111 q31.5 -70.5 31.5 -166.5 l0 -716 l-193 0 l0 137 l-9 0 q-41 -68 -115 -111 q-74 -43 -183 -43 ZM519 153 q101 0 169.5 58.5 q68.5 58.5 68.5 146.5 l0 114 l-246 0 q-97 0 -145 -42 q-48 -42 -48 -112 q0 -80 58 -122.5 q58 -42.5 143 -42.5 ZM564 1224 q-84 0 -141 56.5 q-57 56.5 -57 140.5 q0 84 57 139.5 q57 55.5 141 55.5 q83 0 140 -55.5 q57 -55.5 57 -139.5 q0 -84 -57 -140.5 q-57 -56.5 -140 -56.5 ZM464 1420 q0 -41 28.5 -70 q28.5 -29 70.5 -29 q42 0 70.5 28.5 q28.5 28.5 28.5 70.5 q0 42 -28 70.5 q-28 28.5 -71 28.5 q-42 0 -70.5 -28.5 q-28.5 -28.5 -28.5 -70.5 Z" /><glyph glyph-name="ae" unicode="æ" d="M1224 -18 q-149 0 -247.5 56.5 q-98.5 56.5 -135.5 144.5 l-14 0 q-42 -85 -132.5 -143 q-90.5 -58 -223.5 -58 q-162 0 -260.5 86.5 q-98.5 86.5 -98.5 235.5 q0 146 99 230.5 q99 84.5 280 84.5 l268 0 l0 100 q0 90 -55 134 q-55 44 -154 44 q-174 0 -206 -118 l-193 0 q11 135 116.5 214.5 q105.5 79.5 289.5 79.5 q106 0 192.5 -34.5 q86.5 -34.5 129.5 -100.5 l14 0 q45 64 130.5 99.5 q85.5 35.5 187.5 35.5 q197 0 317 -128 q120 -128 120 -344 l0 -125 l-681 0 l0 -74 q0 -107 70 -175.5 q70 -68.5 186 -68.5 q86 0 141.5 34.5 q55.5 34.5 68.5 85.5 l202 0 q-6 -49 -32.5 -98 q-26.5 -49 -74 -95 q-47.5 -46 -127 -74.5 q-79.5 -28.5 -177.5 -28.5 ZM1212 903 q-106 0 -175.5 -71.5 q-69.5 -71.5 -69.5 -182.5 l0 -30 l482 0 l0 21 q0 121 -63.5 192 q-63.5 71 -173.5 71 ZM520 151 q101 0 170 59 q69 59 69 146 l0 116 l-243 0 q-99 0 -151 -42.5 q-52 -42.5 -52 -111.5 q0 -80 61 -123.5 q61 -43.5 146 -43.5 Z" /><glyph glyph-name="ccedilla" unicode="ç" d="M577 -485 q-84 -3 -149 16 l0 113 q47 -14 115 -14 q48 0 81.5 16.5 q33.5 16.5 33.5 54.5 q0 22 -10.5 35.5 q-10.5 13.5 -33.5 19.5 q-23 6 -43.5 7.5 q-20.5 1.5 -54.5 1.5 l-54 0 l0 89 l50 131 q-182 18 -286 141.5 q-104 123.5 -104 326.5 l0 155 q0 212 120.5 339 q120.5 127 327.5 127 q190 0 299.5 -100.5 q109.5 -100.5 112.5 -241.5 l-193 0 q-4 28 -16.5 54 q-12.5 26 -36 52.5 q-23.5 26.5 -65.5 42.5 q-42 16 -97 16 q-121 0 -186 -79 q-65 -79 -65 -215 l0 -150 q0 -134 67 -210.5 q67 -76.5 184 -76.5 q190 0 221 147 l194 0 q-5 -129 -93.5 -219 q-88.5 -90 -251.5 -108 l-44 -115 q95 0 151 -42.5 q56 -42.5 56 -121.5 q0 -93 -63 -140.5 q-63 -47.5 -167 -51.5 Z" /><glyph glyph-name="egrave" unicode="è" d="M661 1226 l-151 0 l-279 354 l192 0 l238 -354 ZM581 -18 q-215 0 -337 126 q-122 126 -122 348 l0 145 q0 219 124.5 346 q124.5 127 320.5 127 q197 0 321 -129 q124 -129 124 -344 l0 -125 l-690 0 l0 -52 q0 -118 68 -192.5 q68 -74.5 189 -74.5 q87 0 146 35 q59 35 72 86 l202 0 q-5 -38 -22.5 -77.5 q-17.5 -39.5 -52 -79 q-34.5 -39.5 -81.5 -70 q-47 -30.5 -115 -50 q-68 -19.5 -147 -19.5 ZM322 619 l491 0 l0 15 q0 121 -67 194.5 q-67 73.5 -178 73.5 q-111 0 -178.5 -73.5 q-67.5 -73.5 -67.5 -194.5 l0 -15 Z" /><glyph glyph-name="eacute" unicode="é" d="M470 1226 l239 354 l192 0 l-279 -354 l-152 0 ZM581 -18 q-215 0 -337 126 q-122 126 -122 348 l0 145 q0 219 124.5 346 q124.5 127 320.5 127 q197 0 321 -129 q124 -129 124 -344 l0 -125 l-690 0 l0 -52 q0 -118 68 -192.5 q68 -74.5 189 -74.5 q87 0 146 35 q59 35 72 86 l202 0 q-5 -38 -22.5 -77.5 q-17.5 -39.5 -52 -79 q-34.5 -39.5 -81.5 -70 q-47 -30.5 -115 -50 q-68 -19.5 -147 -19.5 ZM322 619 l491 0 l0 15 q0 121 -67 194.5 q-67 73.5 -178 73.5 q-111 0 -178.5 -73.5 q-67.5 -73.5 -67.5 -194.5 l0 -15 Z" /><glyph glyph-name="ecircumflex" unicode="ê" d="M247 1222 l249 368 l137 0 l249 -368 l-166 0 l-148 238 l-7 0 l-148 -238 l-166 0 ZM581 -18 q-215 0 -337 126 q-122 126 -122 348 l0 145 q0 219 124.5 346 q124.5 127 320.5 127 q197 0 321 -129 q124 -129 124 -344 l0 -125 l-690 0 l0 -52 q0 -118 68 -192.5 q68 -74.5 189 -74.5 q87 0 146 35 q59 35 72 86 l202 0 q-5 -38 -22.5 -77.5 q-17.5 -39.5 -52 -79 q-34.5 -39.5 -81.5 -70 q-47 -30.5 -115 -50 q-68 -19.5 -147 -19.5 ZM322 619 l491 0 l0 15 q0 121 -67 194.5 q-67 73.5 -178 73.5 q-111 0 -178.5 -73.5 q-67.5 -73.5 -67.5 -194.5 l0 -15 Z" /><glyph glyph-name="edieresis" unicode="ë" d="M581 -18 q-215 0 -337 126 q-122 126 -122 348 l0 145 q0 219 124.5 346 q124.5 127 320.5 127 q197 0 321 -129 q124 -129 124 -344 l0 -125 l-690 0 l0 -52 q0 -118 68 -192.5 q68 -74.5 189 -74.5 q87 0 146 35 q59 35 72 86 l202 0 q-5 -38 -22.5 -77.5 q-17.5 -39.5 -52 -79 q-34.5 -39.5 -81.5 -70 q-47 -30.5 -115 -50 q-68 -19.5 -147 -19.5 ZM322 619 l491 0 l0 15 q0 121 -67 194.5 q-67 73.5 -178 73.5 q-111 0 -178.5 -73.5 q-67.5 -73.5 -67.5 -194.5 l0 -15 ZM749 1218 q-47 0 -79.5 32 q-32.5 32 -32.5 80 q0 49 32.5 81 q32.5 32 79.5 32 q52 0 85.5 -32 q33.5 -32 33.5 -81 q0 -48 -33.5 -80 q-33.5 -32 -85.5 -32 ZM376 1218 q-49 0 -82 32 q-33 32 -33 80 q0 49 32.5 81 q32.5 32 82.5 32 q50 0 83 -32 q33 -32 33 -81 q0 -48 -33 -80 q-33 -32 -83 -32 Z" /><glyph glyph-name="igrave" unicode="ì" d="M394 1226 l-151 0 l-279 354 l192 0 l238 -354 ZM196 0 l0 1056 l202 0 l0 -1056 l-202 0 Z" /><glyph glyph-name="iacute" unicode="í" d="M203 1226 l239 354 l192 0 l-279 -354 l-152 0 ZM196 0 l0 1056 l202 0 l0 -1056 l-202 0 Z" /><glyph glyph-name="icircumflex" unicode="î" d="M-20 1222 l249 368 l137 0 l249 -368 l-166 0 l-148 238 l-7 0 l-148 -238 l-166 0 ZM196 0 l0 1056 l202 0 l0 -1056 l-202 0 Z" /><glyph glyph-name="idieresis" unicode="ï" d="M196 0 l0 1056 l202 0 l0 -1056 l-202 0 ZM482 1218 q-47 0 -79.5 32 q-32.5 32 -32.5 80 q0 49 32.5 81 q32.5 32 79.5 32 q52 0 85.5 -32 q33.5 -32 33.5 -81 q0 -48 -33.5 -80 q-33.5 -32 -85.5 -32 ZM109 1218 q-49 0 -82 32 q-33 32 -33 80 q0 49 32.5 81 q32.5 32 82.5 32 q50 0 83 -32 q33 -32 33 -81 q0 -48 -33 -80 q-33 -32 -83 -32 Z" /><glyph glyph-name="eth" unicode="ð" d="M586 -18 q-223 0 -343.5 133.5 q-120.5 133.5 -120.5 360.5 l0 57 q0 218 114.5 352 q114.5 134 311.5 134 q176 0 260 -117 l11 0 q-2 5 -9 26.5 q-7 21.5 -12 35.5 q-55 144 -136 244 l-253 -94 l-46 112 l218 78 q-43 46 -68.5 73 q-25.5 27 -68 67 q-42.5 40 -90.5 80 l247 0 q81 -63 156 -149 l271 97 l42 -107 l-232 -84 q209 -298 209 -692 l0 -108 q0 -228 -118 -363.5 q-118 -135.5 -343 -135.5 ZM778.5 764.5 q-68.5 80.5 -193.5 80.5 q-125 0 -193.5 -80 q-68.5 -80 -68.5 -231 l0 -58 q0 -152 68.5 -233.5 q68.5 -81.5 193.5 -81.5 q125 0 193.5 83.5 q68.5 83.5 68.5 235.5 l0 52 q0 152 -68.5 232.5 Z" /><glyph glyph-name="ntilde" unicode="ñ" d="M738 1218 q-38 0 -68.5 14.5 q-30.5 14.5 -50 35 q-19.5 20.5 -37 41.5 q-17.5 21 -38 35.5 q-20.5 14.5 -43.5 14.5 q-39 0 -54 -33.5 q-15 -33.5 -19 -90.5 l-125 0 q0 112 49.5 185 q49.5 73 143.5 73 q40 0 72.5 -14.5 q32.5 -14.5 53 -35.5 q20.5 -21 37.5 -41.5 q17 -20.5 36 -35 q19 -14.5 39 -14.5 q62 0 70 124 l125 0 q0 -68 -19.5 -125 q-19.5 -57 -64 -95 q-44.5 -38 -107.5 -38 ZM172 0 l0 1056 l200 0 l0 -189 l10 0 q12 36 31.5 67.5 q19.5 31.5 55 65 q35.5 33.5 95 53 q59.5 19.5 136.5 19.5 q165 0 261 -91 q96 -91 96 -266 l0 -715 l-202 0 l0 651 q0 118 -57.5 177 q-57.5 59 -160.5 59 q-127 0 -195 -83 q-68 -83 -68 -217 l0 -587 l-202 0 Z" /><glyph glyph-name="ograve" unicode="ò" d="M681 1226 l-151 0 l-279 354 l192 0 l238 -354 ZM585 1074 q205 0 333.5 -128 q128.5 -128 128.5 -347 l0 -139 q0 -224 -128 -351 q-128 -127 -334 -127 q-209 0 -336 126 q-127 126 -127 352 l0 139 q0 214 129.5 344.5 q129.5 130.5 333.5 130.5 ZM775 811.5 q-69 86.5 -189 86.5 q-120 0 -190.5 -87 q-70.5 -87 -70.5 -223 l0 -120 q0 -138 68.5 -224 q68.5 -86 192.5 -86 q123 0 190.5 85.5 q67.5 85.5 67.5 224.5 l0 120 q0 137 -69 223.5 Z" /><glyph glyph-name="oacute" unicode="ó" d="M490 1226 l239 354 l192 0 l-279 -354 l-152 0 ZM585 1074 q205 0 333.5 -128 q128.5 -128 128.5 -347 l0 -139 q0 -224 -128 -351 q-128 -127 -334 -127 q-209 0 -336 126 q-127 126 -127 352 l0 139 q0 214 129.5 344.5 q129.5 130.5 333.5 130.5 ZM775 811.5 q-69 86.5 -189 86.5 q-120 0 -190.5 -87 q-70.5 -87 -70.5 -223 l0 -120 q0 -138 68.5 -224 q68.5 -86 192.5 -86 q123 0 190.5 85.5 q67.5 85.5 67.5 224.5 l0 120 q0 137 -69 223.5 Z" /><glyph glyph-name="ocircumflex" unicode="ô" d="M267 1222 l249 368 l137 0 l249 -368 l-166 0 l-148 238 l-7 0 l-148 -238 l-166 0 ZM585 1074 q205 0 333.5 -128 q128.5 -128 128.5 -347 l0 -139 q0 -224 -128 -351 q-128 -127 -334 -127 q-209 0 -336 126 q-127 126 -127 352 l0 139 q0 214 129.5 344.5 q129.5 130.5 333.5 130.5 ZM775 811.5 q-69 86.5 -189 86.5 q-120 0 -190.5 -87 q-70.5 -87 -70.5 -223 l0 -120 q0 -138 68.5 -224 q68.5 -86 192.5 -86 q123 0 190.5 85.5 q67.5 85.5 67.5 224.5 l0 120 q0 137 -69 223.5 Z" /><glyph glyph-name="otilde" unicode="õ" d="M710 1218 q-38 0 -68.5 14.5 q-30.5 14.5 -50 35 q-19.5 20.5 -37 41.5 q-17.5 21 -38 35.5 q-20.5 14.5 -43.5 14.5 q-39 0 -54 -33.5 q-15 -33.5 -19 -90.5 l-125 0 q0 112 49.5 185 q49.5 73 143.5 73 q40 0 72.5 -14.5 q32.5 -14.5 53 -35.5 q20.5 -21 37.5 -41.5 q17 -20.5 36 -35 q19 -14.5 39 -14.5 q62 0 70 124 l125 0 q0 -68 -19.5 -125 q-19.5 -57 -64 -95 q-44.5 -38 -107.5 -38 ZM585 1074 q205 0 333.5 -128 q128.5 -128 128.5 -347 l0 -139 q0 -224 -128 -351 q-128 -127 -334 -127 q-209 0 -336 126 q-127 126 -127 352 l0 139 q0 214 129.5 344.5 q129.5 130.5 333.5 130.5 ZM775 811.5 q-69 86.5 -189 86.5 q-120 0 -190.5 -87 q-70.5 -87 -70.5 -223 l0 -120 q0 -138 68.5 -224 q68.5 -86 192.5 -86 q123 0 190.5 85.5 q67.5 85.5 67.5 224.5 l0 120 q0 137 -69 223.5 Z" /><glyph glyph-name="odieresis" unicode="ö" d="M769 1218 q-47 0 -79.5 32 q-32.5 32 -32.5 80 q0 49 32.5 81 q32.5 32 79.5 32 q52 0 85.5 -32 q33.5 -32 33.5 -81 q0 -48 -33.5 -80 q-33.5 -32 -85.5 -32 ZM396 1218 q-49 0 -82 32 q-33 32 -33 80 q0 49 32.5 81 q32.5 32 82.5 32 q50 0 83 -32 q33 -32 33 -81 q0 -48 -33 -80 q-33 -32 -83 -32 ZM585 1074 q205 0 333.5 -128 q128.5 -128 128.5 -347 l0 -139 q0 -224 -128 -351 q-128 -127 -334 -127 q-209 0 -336 126 q-127 126 -127 352 l0 139 q0 214 129.5 344.5 q129.5 130.5 333.5 130.5 ZM775 811.5 q-69 86.5 -189 86.5 q-120 0 -190.5 -87 q-70.5 -87 -70.5 -223 l0 -120 q0 -138 68.5 -224 q68.5 -86 192.5 -86 q123 0 190.5 85.5 q67.5 85.5 67.5 224.5 l0 120 q0 137 -69 223.5 Z" /><glyph glyph-name="divide" unicode="÷" d="M1062 477 l-956 0 l0 166 l956 0 l0 -166 ZM444 959 q0 62 40 102 q40 40 98 40 q61 0 101.5 -40 q40.5 -40 40.5 -102 q0 -60 -41 -99.5 q-41 -39.5 -101 -39.5 q-58 0 -98 39.5 q-40 39.5 -40 99.5 ZM444 166 q0 62 40 102.5 q40 40.5 98 40.5 q60 0 101 -40.5 q41 -40.5 41 -102.5 q0 -60 -41 -99.5 q-41 -39.5 -101 -39.5 q-58 0 -98 39.5 q-40 39.5 -40 99.5 Z" /><glyph glyph-name="oslash" unicode="ø" d="M417 212 q66 -58 168 -58 q124 0 193.5 88 q69.5 88 69.5 227 l0 143 q0 74 -29 129 l-402 -529 ZM319 446 q0 -76 29 -132 l403 532 q-65 59 -166 59 q-121 0 -193.5 -89 q-72.5 -89 -72.5 -226 l0 -144 ZM585 -18 q-155 0 -272 80 l-102 -135 l-99 78 l109 144 q-99 126 -99 311 l0 139 q0 214 129.5 344.5 q129.5 130.5 333.5 130.5 q152 0 269 -81 l100 133 l99 -79 l-107 -143 q101 -127 101 -305 l0 -139 q0 -224 -128 -351 q-128 -127 -334 -127 Z" /><glyph glyph-name="ugrave" unicode="ù" d="M706 1226 l-151 0 l-279 354 l192 0 l238 -354 ZM1046 1056 l0 -1056 l-199 0 l0 176 l-11 0 q-26 -76 -106 -134.5 q-80 -58.5 -206 -58.5 q-167 0 -263 85 q-96 85 -96 263 l0 725 l202 0 l0 -668 q0 -118 60.5 -169 q60.5 -51 159.5 -51 q109 0 183.5 68 q74.5 68 74.5 168 l0 652 l201 0 Z" /><glyph glyph-name="uacute" unicode="ú" d="M515 1226 l239 354 l192 0 l-279 -354 l-152 0 ZM1046 1056 l0 -1056 l-199 0 l0 176 l-11 0 q-26 -76 -106 -134.5 q-80 -58.5 -206 -58.5 q-167 0 -263 85 q-96 85 -96 263 l0 725 l202 0 l0 -668 q0 -118 60.5 -169 q60.5 -51 159.5 -51 q109 0 183.5 68 q74.5 68 74.5 168 l0 652 l201 0 Z" /><glyph glyph-name="ucircumflex" unicode="û" d="M292 1222 l249 368 l137 0 l249 -368 l-166 0 l-148 238 l-7 0 l-148 -238 l-166 0 ZM1046 1056 l0 -1056 l-199 0 l0 176 l-11 0 q-26 -76 -106 -134.5 q-80 -58.5 -206 -58.5 q-167 0 -263 85 q-96 85 -96 263 l0 725 l202 0 l0 -668 q0 -118 60.5 -169 q60.5 -51 159.5 -51 q109 0 183.5 68 q74.5 68 74.5 168 l0 652 l201 0 Z" /><glyph glyph-name="udieresis" unicode="ü" d="M1046 1056 l0 -1056 l-199 0 l0 176 l-11 0 q-26 -76 -106 -134.5 q-80 -58.5 -206 -58.5 q-167 0 -263 85 q-96 85 -96 263 l0 725 l202 0 l0 -668 q0 -118 60.5 -169 q60.5 -51 159.5 -51 q109 0 183.5 68 q74.5 68 74.5 168 l0 652 l201 0 ZM794 1218 q-47 0 -79.5 32 q-32.5 32 -32.5 80 q0 49 32.5 81 q32.5 32 79.5 32 q52 0 85.5 -32 q33.5 -32 33.5 -81 q0 -48 -33.5 -80 q-33.5 -32 -85.5 -32 ZM421 1218 q-49 0 -82 32 q-33 32 -33 80 q0 49 32.5 81 q32.5 32 82.5 32 q50 0 83 -32 q33 -32 33 -81 q0 -48 -33 -80 q-33 -32 -83 -32 Z" /><glyph glyph-name="yacute" unicode="ý" d="M1035 1056 q-364 -1038 -366 -1044 l-27 -73 q-21 -58 -41 -100.5 q-20 -42.5 -51.5 -86.5 q-31.5 -44 -69.5 -71 q-38 -27 -93.5 -44.5 q-55.5 -17.5 -124.5 -17.5 q-66 0 -120 10 l0 165 q25 -6 81 -6 q91 0 136 38.5 q45 38.5 66 117.5 l14 47 l-381 1065 l223 0 l265 -857 l9 0 l266 857 l214 0 ZM459 1226 l239 354 l192 0 l-279 -354 l-152 0 Z" /><glyph glyph-name="thorn" unicode="þ" d="M687 -15 q-120 0 -194.5 48.5 q-74.5 48.5 -107.5 125.5 l-10 0 l0 -519 l-202 0 l0 1827 l196 0 l0 -578 l10 0 q30 79 111 130.5 q81 51.5 203 51.5 q183 0 291.5 -122 q108.5 -122 108.5 -338 l0 -165 q0 -217 -110 -339 q-110 -122 -296 -122 ZM637 164 q116 0 184 79 q68 79 68 233 l0 103 q0 152 -68 232.5 q-68 80.5 -188 80.5 q-121 0 -189.5 -77.5 q-68.5 -77.5 -68.5 -213.5 l0 -163 q0 -122 72 -198 q72 -76 190 -76 Z" /><glyph glyph-name="ydieresis" unicode="ÿ" d="M1035 1056 q-364 -1038 -366 -1044 l-27 -73 q-21 -58 -41 -100.5 q-20 -42.5 -51.5 -86.5 q-31.5 -44 -69.5 -71 q-38 -27 -93.5 -44.5 q-55.5 -17.5 -124.5 -17.5 q-66 0 -120 10 l0 165 q25 -6 81 -6 q91 0 136 38.5 q45 38.5 66 117.5 l14 47 l-381 1065 l223 0 l265 -857 l9 0 l266 857 l214 0 ZM738 1218 q-47 0 -79.5 32 q-32.5 32 -32.5 80 q0 49 32.5 81 q32.5 32 79.5 32 q52 0 85.5 -32 q33.5 -32 33.5 -81 q0 -48 -33.5 -80 q-33.5 -32 -85.5 -32 ZM365 1218 q-49 0 -82 32 q-33 32 -33 80 q0 49 32.5 81 q32.5 32 82.5 32 q50 0 83 -32 q33 -32 33 -81 q0 -48 -33 -80 q-33 -32 -83 -32 Z" /><glyph glyph-name="Amacron" unicode="&#x100;" d="M257 0 l-208 0 l476 1365 l223 0 l475 -1365 l-220 0 l-128 381 l-490 0 l-128 -381 ZM635 1132 l-8 0 l-192 -581 l392 0 l-192 581 ZM935 1507 l-598 0 l0 120 l598 0 l0 -120 Z" /><glyph glyph-name="amacron" unicode="&#x101;" d="M459 -17 q-154 0 -249.5 88.5 q-95.5 88.5 -95.5 235.5 q0 143 97 227.5 q97 84.5 275 84.5 l271 0 l0 100 q0 90 -55 135 q-55 45 -154 45 q-168 0 -201 -120 l-193 0 q11 135 114 214 q103 79 286 79 q87 0 157.5 -19 q70.5 -19 127.5 -59.5 q57 -40.5 88.5 -111 q31.5 -70.5 31.5 -166.5 l0 -716 l-193 0 l0 137 l-9 0 q-41 -68 -115 -111 q-74 -43 -183 -43 ZM519 153 q101 0 169.5 58.5 q68.5 58.5 68.5 146.5 l0 114 l-246 0 q-97 0 -145 -42 q-48 -42 -48 -112 q0 -80 58 -122.5 q58 -42.5 143 -42.5 ZM866 1246 l-605 0 l0 127 l605 0 l0 -127 Z" /><glyph glyph-name="Abreve" unicode="&#x102;" d="M257 0 l-208 0 l476 1365 l223 0 l475 -1365 l-220 0 l-128 381 l-490 0 l-128 -381 ZM635 1132 l-8 0 l-192 -581 l392 0 l-192 581 ZM309 1755 l134 0 q0 -72 49 -114.5 q49 -42.5 144 -42.5 q95 0 144 42.5 q49 42.5 49 114.5 l133 0 q0 -122 -84.5 -199 q-84.5 -77 -241.5 -77 q-158 0 -242.5 77 q-84.5 77 -84.5 199 Z" /><glyph glyph-name="abreve" unicode="&#x103;" d="M459 -17 q-154 0 -249.5 88.5 q-95.5 88.5 -95.5 235.5 q0 143 97 227.5 q97 84.5 275 84.5 l271 0 l0 100 q0 90 -55 135 q-55 45 -154 45 q-168 0 -201 -120 l-193 0 q11 135 114 214 q103 79 286 79 q87 0 157.5 -19 q70.5 -19 127.5 -59.5 q57 -40.5 88.5 -111 q31.5 -70.5 31.5 -166.5 l0 -716 l-193 0 l0 137 l-9 0 q-41 -68 -115 -111 q-74 -43 -183 -43 ZM519 153 q101 0 169.5 58.5 q68.5 58.5 68.5 146.5 l0 114 l-246 0 q-97 0 -145 -42 q-48 -42 -48 -112 q0 -80 58 -122.5 q58 -42.5 143 -42.5 ZM265 1506 l132 0 q0 -69 42 -116.5 q42 -47.5 124 -47.5 q82 0 124.5 47.5 q42.5 47.5 42.5 116.5 l130 0 q0 -54 -18 -104 q-18 -50 -52.5 -92 q-34.5 -42 -93.5 -67.5 q-59 -25.5 -133 -25.5 q-74 0 -133 25.5 q-59 25.5 -94 67.5 q-35 42 -53 92 q-18 50 -18 104 Z" /><glyph glyph-name="Aogonek" unicode="&#x104;" d="M257 0 l-208 0 l476 1365 l223 0 l468 -1340 q-74 -24 -126.5 -68 q-52.5 -44 -52.5 -105 q0 -46 32 -71.5 q32 -25.5 84 -25.5 q44 0 79 8 l0 -130 q-40 -20 -125 -20 q-101 0 -170 50 q-69 50 -69 147 q0 127 143 219 l0 4 l-21 0 l-115 348 l-490 0 l-128 -381 ZM634 1131 l-5 2 l-194 -581 l394 0 l-195 579 Z" /><glyph glyph-name="aogonek" unicode="&#x105;" d="M972 -366 q-53 -21 -129 -21 q-93 0 -158.5 49.5 q-65.5 49.5 -65.5 145.5 q0 75 40.5 126.5 q40.5 51.5 111.5 97.5 l0 105 l-10 0 q-93 -154 -301 -154 q-154 0 -250 88.5 q-96 88.5 -96 235.5 q0 143 97 227.5 q97 84.5 274 84.5 l272 0 l0 100 q0 89 -55 133.5 q-55 44.5 -156 44.5 q-167 0 -199 -118 l-193 0 q11 136 115 214.5 q104 78.5 286 78.5 q86 0 156.5 -19 q70.5 -19 127.5 -59.5 q57 -40.5 88.5 -111 q31.5 -70.5 31.5 -165.5 l0 -699 q-29 -10 -57 -24.5 q-28 -14.5 -57 -35 q-29 -20.5 -47 -49 q-18 -28.5 -18 -59.5 q0 -43 32 -67 q32 -24 81 -24 q44 0 79 8 l0 -133 ZM518 151 q101 0 170 59.5 q69 59.5 69 147.5 l0 114 l-245 0 q-98 0 -146 -42 q-48 -42 -48 -112 q0 -80 58 -123.5 q58 -43.5 142 -43.5 Z" /><glyph glyph-name="Cacute" unicode="&#x106;" d="M579 1509 l238 345 l190 0 l-280 -345 l-148 0 ZM338 770 l0 -182 q0 -211 91.5 -317.5 q91.5 -106.5 252.5 -106.5 q146 0 227 78.5 q81 78.5 81 195.5 l201 0 l0 -15 q0 -66 -19.5 -130 q-19.5 -64 -62 -122 q-42.5 -58 -102 -102.5 q-59.5 -44.5 -145.5 -70.5 q-86 -26 -187 -26 q-255 0 -400 160 q-145 160 -145 455 l0 185 q0 291 147 455.5 q147 164.5 400 164.5 q121 0 220.5 -39.5 q99.5 -39.5 162.5 -105.5 q63 -66 97 -149.5 q34 -83.5 34 -174.5 l0 -15 l-201 0 q0 118 -84 205.5 q-84 87.5 -228 87.5 q-156 0 -248 -111 q-92 -111 -92 -320 Z" /><glyph glyph-name="cacute" unicode="&#x107;" d="M122 453 l0 155 q0 212 120.5 339 q120.5 127 327.5 127 q190 0 299.5 -100.5 q109.5 -100.5 112.5 -241.5 l-193 0 q-4 28 -16.5 53.5 q-12.5 25.5 -36 51 q-23.5 25.5 -65.5 41 q-42 15.5 -97 15.5 q-121 0 -185.5 -77.5 q-64.5 -77.5 -64.5 -212.5 l0 -150 q0 -134 67 -212 q67 -78 183 -78 q190 0 221 150 l194 0 q-5 -145 -114 -238 q-109 -93 -306 -93 q-206 0 -326.5 125.5 q-120.5 125.5 -120.5 345.5 ZM453 1226 l239 354 l192 0 l-279 -354 l-152 0 Z" /><glyph glyph-name="Ccircumflex" unicode="&#x108;" d="M338 770 l0 -182 q0 -211 91.5 -317.5 q91.5 -106.5 252.5 -106.5 q146 0 227 78.5 q81 78.5 81 195.5 l201 0 l0 -15 q0 -66 -19.5 -130 q-19.5 -64 -62 -122 q-42.5 -58 -102 -102.5 q-59.5 -44.5 -145.5 -70.5 q-86 -26 -187 -26 q-255 0 -400 160 q-145 160 -145 455 l0 185 q0 291 147 455.5 q147 164.5 400 164.5 q121 0 220.5 -39.5 q99.5 -39.5 162.5 -105.5 q63 -66 97 -149.5 q34 -83.5 34 -174.5 l0 -15 l-201 0 q0 118 -84 205.5 q-84 87.5 -228 87.5 q-156 0 -248 -111 q-92 -111 -92 -320 ZM741 1743 l268 -246 l-185 0 l-148 135 l-7 0 l-157 -135 l-181 0 l278 246 l132 0 Z" /><glyph glyph-name="ccircumflex" unicode="&#x109;" d="M230 1222 l249 368 l137 0 l249 -368 l-166 0 l-148 238 l-7 0 l-148 -238 l-166 0 ZM122 453 l0 155 q0 212 120.5 339 q120.5 127 327.5 127 q190 0 299.5 -100.5 q109.5 -100.5 112.5 -241.5 l-193 0 q-4 28 -16.5 53.5 q-12.5 25.5 -36 51 q-23.5 25.5 -65.5 41 q-42 15.5 -97 15.5 q-121 0 -185.5 -77.5 q-64.5 -77.5 -64.5 -212.5 l0 -150 q0 -134 67 -212 q67 -78 183 -78 q190 0 221 150 l194 0 q-5 -145 -114 -238 q-109 -93 -306 -93 q-206 0 -326.5 125.5 q-120.5 125.5 -120.5 345.5 Z" /><glyph glyph-name="Cdotaccent" unicode="&#x10a;" d="M560 1604 q0 50 32.5 83.5 q32.5 33.5 78.5 33.5 q49 0 82 -33.5 q33 -33.5 33 -83.5 q0 -49 -33 -82.5 q-33 -33.5 -82 -33.5 q-46 0 -78.5 33.5 q-32.5 33.5 -32.5 82.5 ZM338 770 l0 -182 q0 -211 91.5 -317.5 q91.5 -106.5 252.5 -106.5 q146 0 227 78.5 q81 78.5 81 195.5 l201 0 l0 -15 q0 -66 -19.5 -130 q-19.5 -64 -62 -122 q-42.5 -58 -102 -102.5 q-59.5 -44.5 -145.5 -70.5 q-86 -26 -187 -26 q-255 0 -400 160 q-145 160 -145 455 l0 185 q0 291 147 455.5 q147 164.5 400 164.5 q121 0 220.5 -39.5 q99.5 -39.5 162.5 -105.5 q63 -66 97 -149.5 q34 -83.5 34 -174.5 l0 -15 l-201 0 q0 118 -84 205.5 q-84 87.5 -228 87.5 q-156 0 -248 -111 q-92 -111 -92 -320 Z" /><glyph glyph-name="cdotaccent" unicode="&#x10b;" d="M122 453 l0 155 q0 212 120.5 339 q120.5 127 327.5 127 q190 0 299.5 -100.5 q109.5 -100.5 112.5 -241.5 l-193 0 q-4 28 -16.5 53.5 q-12.5 25.5 -36 51 q-23.5 25.5 -65.5 41 q-42 15.5 -97 15.5 q-121 0 -185.5 -77.5 q-64.5 -77.5 -64.5 -212.5 l0 -150 q0 -134 67 -212 q67 -78 183 -78 q190 0 221 150 l194 0 q-5 -145 -114 -238 q-109 -93 -306 -93 q-206 0 -326.5 125.5 q-120.5 125.5 -120.5 345.5 ZM434 1364 q0 50 32.5 83.5 q32.5 33.5 78.5 33.5 q49 0 82 -33.5 q33 -33.5 33 -83.5 q0 -49 -33 -82.5 q-33 -33.5 -82 -33.5 q-46 0 -78.5 33.5 q-32.5 33.5 -32.5 82.5 Z" /><glyph glyph-name="Ccaron" unicode="&#x10c;" d="M338 770 l0 -182 q0 -211 91.5 -317.5 q91.5 -106.5 252.5 -106.5 q146 0 227 78.5 q81 78.5 81 195.5 l201 0 l0 -15 q0 -66 -19.5 -130 q-19.5 -64 -62 -122 q-42.5 -58 -102 -102.5 q-59.5 -44.5 -145.5 -70.5 q-86 -26 -187 -26 q-255 0 -400 160 q-145 160 -145 455 l0 185 q0 291 147 455.5 q147 164.5 400 164.5 q121 0 220.5 -39.5 q99.5 -39.5 162.5 -105.5 q63 -66 97 -149.5 q34 -83.5 34 -174.5 l0 -15 l-201 0 q0 118 -84 205.5 q-84 87.5 -228 87.5 q-156 0 -248 -111 q-92 -111 -92 -320 ZM328 1717 l190 0 l152 -120 l8 0 l139 120 l194 0 l-237 -214 l-194 0 l-252 214 Z" /><glyph glyph-name="ccaron" unicode="&#x10d;" d="M230 1587 l166 0 l149 -245 l6 0 l141 245 l166 0 l-239 -368 l-138 0 l-251 368 ZM122 453 l0 155 q0 212 120.5 339 q120.5 127 327.5 127 q190 0 299.5 -100.5 q109.5 -100.5 112.5 -241.5 l-193 0 q-4 28 -16.5 53.5 q-12.5 25.5 -36 51 q-23.5 25.5 -65.5 41 q-42 15.5 -97 15.5 q-121 0 -185.5 -77.5 q-64.5 -77.5 -64.5 -212.5 l0 -150 q0 -134 67 -212 q67 -78 183 -78 q190 0 221 150 l194 0 q-5 -145 -114 -238 q-109 -93 -306 -93 q-206 0 -326.5 125.5 q-120.5 125.5 -120.5 345.5 Z" /><glyph glyph-name="Dcaron" unicode="&#x10e;" d="M281 1717 l190 0 l152 -120 l8 0 l139 120 l194 0 l-237 -214 l-194 0 l-252 214 ZM184 1365 l458 0 q161 0 279 -49.5 q118 -49.5 188 -142 q70 -92.5 103 -213.5 q33 -121 33 -276 q0 -122 -19.5 -223 q-19.5 -101 -64.5 -187.5 q-45 -86.5 -114 -146.5 q-69 -60 -171.5 -93.5 q-102.5 -33.5 -233.5 -33.5 l-458 0 l0 1365 ZM390 1178 l0 -990 l233 0 q209 0 309.5 120 q100.5 120 100.5 373 q0 497 -410 497 l-233 0 Z" /><glyph glyph-name="dcaron" unicode="&#x10f;" d="M1235 1436 l175 0 l-45 -488 l-130 0 l0 488 ZM529 1072 q120 0 197.5 -49 q77.5 -49 106.5 -124 l10 0 l0 568 l202 0 l0 -1467 l-195 0 l0 168 l-10 0 q-22 -75 -105.5 -128.5 q-83.5 -53.5 -209.5 -53.5 q-183 0 -292.5 121 q-109.5 121 -109.5 329 l0 185 q0 206 110 328.5 q110 122.5 296 122.5 ZM769 816.5 q-74 76.5 -191 76.5 q-117 0 -184 -80 q-67 -80 -67 -224 l0 -119 q0 -146 68.5 -226 q68.5 -80 187.5 -80 q119 0 189.5 78.5 q70.5 78.5 70.5 213.5 l0 163 q0 121 -74 197.5 Z" /><glyph glyph-name="Dcroat" unicode="&#x110;" d="M723 0 l-458 0 l0 598 l-162 0 l0 196 l162 0 l0 571 l458 0 q161 0 279 -49.5 q118 -49.5 188 -142 q70 -92.5 103 -213.5 q33 -121 33 -276 q0 -122 -19.5 -223 q-19.5 -101 -64.5 -187.5 q-45 -86.5 -114 -146.5 q-69 -60 -171.5 -93.5 q-102.5 -33.5 -233.5 -33.5 ZM471 190 l233 0 q208 0 308.5 120.5 q100.5 120.5 100.5 373.5 q0 496 -409 496 l-233 0 l0 -386 l287 0 l0 -196 l-287 0 l0 -408 Z" /><glyph glyph-name="dcroat" unicode="&#x111;" d="M770 816 q-74 76 -191 76 q-117 0 -184 -80 q-67 -80 -67 -224 l0 -119 q0 -146 68.5 -225.5 q68.5 -79.5 187.5 -79.5 q119 0 189.5 78 q70.5 78 70.5 213 l0 163 q0 122 -74 198 ZM840 168 q-21 -74 -104.5 -128 q-83.5 -54 -209.5 -54 q-183 0 -293 121 q-110 121 -110 329 l0 185 q0 206 110.5 328.5 q110.5 122.5 296.5 122.5 q119 0 197 -49.5 q78 -49.5 107 -123.5 l10 0 l0 273 l-253 0 l0 143 l257 0 l0 152 l194 0 l0 -152 l131 0 l0 -143 l-127 0 l0 -1172 l-196 0 l0 168 l-10 0 Z" /><glyph glyph-name="Emacron" unicode="&#x112;" d="M1023 188 l0 -188 l-839 0 l0 1365 l839 0 l0 -188 l-634 0 l0 -393 l598 0 l0 -180 l-598 0 l0 -416 l634 0 ZM898 1507 l-598 0 l0 120 l598 0 l0 -120 Z" /><glyph glyph-name="emacron" unicode="&#x113;" d="M581 -18 q-215 0 -337 126 q-122 126 -122 348 l0 145 q0 219 124.5 346 q124.5 127 320.5 127 q197 0 321 -129 q124 -129 124 -344 l0 -125 l-690 0 l0 -52 q0 -118 68 -192.5 q68 -74.5 189 -74.5 q87 0 146 35 q59 35 72 86 l202 0 q-5 -38 -22.5 -77.5 q-17.5 -39.5 -52 -79 q-34.5 -39.5 -81.5 -70 q-47 -30.5 -115 -50 q-68 -19.5 -147 -19.5 ZM322 619 l491 0 l0 15 q0 121 -67 194.5 q-67 73.5 -178 73.5 q-111 0 -178.5 -73.5 q-67.5 -73.5 -67.5 -194.5 l0 -15 ZM867 1246 l-605 0 l0 127 l605 0 l0 -127 Z" /><glyph glyph-name="Ebreve" unicode="&#x114;" d="M1023 188 l0 -188 l-839 0 l0 1365 l839 0 l0 -188 l-634 0 l0 -393 l598 0 l0 -180 l-598 0 l0 -416 l634 0 ZM272 1755 l134 0 q0 -72 49 -114.5 q49 -42.5 144 -42.5 q95 0 144 42.5 q49 42.5 49 114.5 l133 0 q0 -122 -84.5 -199 q-84.5 -77 -241.5 -77 q-158 0 -242.5 77 q-84.5 77 -84.5 199 Z" /><glyph glyph-name="ebreve" unicode="&#x115;" d="M581 -18 q-215 0 -337 126 q-122 126 -122 348 l0 145 q0 219 124.5 346 q124.5 127 320.5 127 q197 0 321 -129 q124 -129 124 -344 l0 -125 l-690 0 l0 -52 q0 -118 68 -192.5 q68 -74.5 189 -74.5 q87 0 146 35 q59 35 72 86 l202 0 q-5 -38 -22.5 -77.5 q-17.5 -39.5 -52 -79 q-34.5 -39.5 -81.5 -70 q-47 -30.5 -115 -50 q-68 -19.5 -147 -19.5 ZM322 619 l491 0 l0 15 q0 121 -67 194.5 q-67 73.5 -178 73.5 q-111 0 -178.5 -73.5 q-67.5 -73.5 -67.5 -194.5 l0 -15 ZM266 1506 l132 0 q0 -69 42 -116.5 q42 -47.5 124 -47.5 q82 0 124.5 47.5 q42.5 47.5 42.5 116.5 l130 0 q0 -54 -18 -104 q-18 -50 -52.5 -92 q-34.5 -42 -93.5 -67.5 q-59 -25.5 -133 -25.5 q-74 0 -133 25.5 q-59 25.5 -94 67.5 q-35 42 -53 92 q-18 50 -18 104 Z" /><glyph glyph-name="Edotaccent" unicode="&#x116;" d="M486 1604 q0 50 32.5 83.5 q32.5 33.5 78.5 33.5 q49 0 82 -33.5 q33 -33.5 33 -83.5 q0 -49 -33 -82.5 q-33 -33.5 -82 -33.5 q-46 0 -78.5 33.5 q-32.5 33.5 -32.5 82.5 ZM1023 188 l0 -188 l-839 0 l0 1365 l839 0 l0 -188 l-634 0 l0 -393 l598 0 l0 -180 l-598 0 l0 -416 l634 0 Z" /><glyph glyph-name="edotaccent" unicode="&#x117;" d="M451 1364 q0 50 32.5 83.5 q32.5 33.5 78.5 33.5 q49 0 82 -33.5 q33 -33.5 33 -83.5 q0 -49 -33 -82.5 q-33 -33.5 -82 -33.5 q-46 0 -78.5 33.5 q-32.5 33.5 -32.5 82.5 ZM581 -18 q-215 0 -337 126 q-122 126 -122 348 l0 145 q0 219 124.5 346 q124.5 127 320.5 127 q197 0 321 -129 q124 -129 124 -344 l0 -125 l-690 0 l0 -52 q0 -118 68 -192.5 q68 -74.5 189 -74.5 q87 0 146 35 q59 35 72 86 l202 0 q-5 -38 -22.5 -77.5 q-17.5 -39.5 -52 -79 q-34.5 -39.5 -81.5 -70 q-47 -30.5 -115 -50 q-68 -19.5 -147 -19.5 ZM322 619 l491 0 l0 15 q0 121 -67 194.5 q-67 73.5 -178 73.5 q-111 0 -178.5 -73.5 q-67.5 -73.5 -67.5 -194.5 l0 -15 Z" /><glyph glyph-name="Eogonek" unicode="&#x118;" d="M1024 -368 q-59 -19 -123 -19 q-100 0 -165.5 49 q-65.5 49 -65.5 146 q0 59 29 108 q29 49 72 79 l0 5 l-587 0 l0 1365 l839 0 l0 -188 l-634 0 l0 -393 l598 0 l0 -180 l-598 0 l0 -416 l634 0 l0 -159 q-33 -7 -65 -21 q-32 -14 -62 -35 q-30 -21 -48 -52 q-18 -31 -19 -67 q0 -48 32 -73.5 q32 -25.5 87 -25.5 q38 0 76 8 l0 -131 Z" /><glyph glyph-name="eogonek" unicode="&#x119;" d="M938 -232 l0 -136 q-41 -19 -123 -19 q-96 0 -162 52 q-66 52 -66 143 q0 116 103 199 l-5 10 q-53 -33 -137 -33 q-187 0 -306.5 127 q-119.5 127 -119.5 344 l0 145 q0 220 124.5 347.5 q124.5 127.5 320.5 127.5 q198 0 321.5 -129.5 q123.5 -129.5 123.5 -345.5 l0 -124 l-690 0 l0 -51 q0 -119 68.5 -193 q68.5 -74 191.5 -74 q84 0 143 34.5 q59 34.5 72 85.5 l201 0 q-11 -46 -37.5 -91 q-26.5 -45 -47 -69 q-20.5 -24 -59.5 -65 q-38 -40 -55.5 -61.5 q-17.5 -21.5 -35 -57 q-17.5 -35.5 -17.5 -69.5 q0 -50 34 -77.5 q34 -27.5 84 -27.5 q38 0 74 8 ZM322 619 l491 0 l0 16 q0 120 -67 194 q-67 74 -178 74 q-111 0 -178.5 -73.5 q-67.5 -73.5 -67.5 -194.5 l0 -16 Z" /><glyph glyph-name="Ecaron" unicode="&#x11a;" d="M254 1717 l190 0 l152 -120 l8 0 l139 120 l194 0 l-237 -214 l-194 0 l-252 214 ZM1023 188 l0 -188 l-839 0 l0 1365 l839 0 l0 -188 l-634 0 l0 -393 l598 0 l0 -180 l-598 0 l0 -416 l634 0 Z" /><glyph glyph-name="ecaron" unicode="&#x11b;" d="M247 1587 l166 0 l149 -245 l6 0 l141 245 l166 0 l-239 -368 l-138 0 l-251 368 ZM581 -18 q-215 0 -337 126 q-122 126 -122 348 l0 145 q0 219 124.5 346 q124.5 127 320.5 127 q197 0 321 -129 q124 -129 124 -344 l0 -125 l-690 0 l0 -52 q0 -118 68 -192.5 q68 -74.5 189 -74.5 q87 0 146 35 q59 35 72 86 l202 0 q-5 -38 -22.5 -77.5 q-17.5 -39.5 -52 -79 q-34.5 -39.5 -81.5 -70 q-47 -30.5 -115 -50 q-68 -19.5 -147 -19.5 ZM322 619 l491 0 l0 15 q0 121 -67 194.5 q-67 73.5 -178 73.5 q-111 0 -178.5 -73.5 q-67.5 -73.5 -67.5 -194.5 l0 -15 Z" /><glyph glyph-name="Gcircumflex" unicode="&#x11c;" d="M753 1743 l268 -246 l-185 0 l-148 135 l-7 0 l-157 -135 l-181 0 l278 246 l132 0 ZM1203 939 l-202 0 q-17 127 -104.5 194.5 q-87.5 67.5 -211.5 67.5 q-155 0 -251.5 -106.5 q-96.5 -106.5 -96.5 -319.5 l0 -178 q0 -203 87.5 -318.5 q87.5 -115.5 258.5 -115.5 q143 0 234 77.5 q91 77.5 91 196.5 l0 110 l-329 0 l0 176 l528 0 l0 -277 q0 -62 -16 -124.5 q-16 -62.5 -55.5 -126.5 q-39.5 -64 -97.5 -113 q-58 -49 -150 -79.5 q-92 -30.5 -205 -30.5 q-182 0 -308 79.5 q-126 79.5 -185.5 217.5 q-59.5 138 -59.5 327 l0 181 q0 286 151 450.5 q151 164.5 408 164.5 q119 0 216 -37.5 q97 -37.5 159.5 -101 q62.5 -63.5 98 -144 q35.5 -80.5 40.5 -170.5 Z" /><glyph glyph-name="gcircumflex" unicode="&#x11d;" d="M277 1222 l249 368 l137 0 l249 -368 l-166 0 l-148 238 l-7 0 l-148 -238 l-166 0 ZM565 -223 q131 0 198 65.5 q67 65.5 67 185.5 l0 157 l-11 0 q-32 -72 -111 -119 q-79 -47 -185 -47 q-180 0 -296 122 q-116 122 -116 332 l0 143 q0 210 115.5 332.5 q115.5 122.5 295.5 122.5 q112 0 194.5 -51.5 q82.5 -51.5 110.5 -123.5 l9 0 l0 160 l195 0 l0 -1036 q0 -108 -35.5 -189 q-35.5 -81 -100.5 -129.5 q-65 -48.5 -149.5 -72 q-84.5 -23.5 -188.5 -23.5 q-200 0 -306 84 q-106 84 -117 213 l202 0 q12 -56 72.5 -91 q60.5 -35 156.5 -35 ZM580 892 q-122 0 -193 -83 q-71 -83 -71 -222 l0 -92 q0 -137 74 -220.5 q74 -83.5 192 -83.5 q115 0 181.5 80 q66.5 80 66.5 197 l0 143 q0 118 -68.5 199.5 q-68.5 81.5 -181.5 81.5 Z" /><glyph glyph-name="Gbreve" unicode="&#x11e;" d="M1203 939 l-202 0 q-17 127 -104.5 194.5 q-87.5 67.5 -211.5 67.5 q-155 0 -251.5 -106.5 q-96.5 -106.5 -96.5 -319.5 l0 -178 q0 -203 87.5 -318.5 q87.5 -115.5 258.5 -115.5 q143 0 234 77.5 q91 77.5 91 196.5 l0 110 l-329 0 l0 176 l528 0 l0 -277 q0 -62 -16 -124.5 q-16 -62.5 -55.5 -126.5 q-39.5 -64 -97.5 -113 q-58 -49 -150 -79.5 q-92 -30.5 -205 -30.5 q-182 0 -308 79.5 q-126 79.5 -185.5 217.5 q-59.5 138 -59.5 327 l0 181 q0 286 151 450.5 q151 164.5 408 164.5 q119 0 216 -37.5 q97 -37.5 159.5 -101 q62.5 -63.5 98 -144 q35.5 -80.5 40.5 -170.5 ZM358 1755 l134 0 q0 -72 49 -114.5 q49 -42.5 144 -42.5 q95 0 144 42.5 q49 42.5 49 114.5 l133 0 q0 -122 -84.5 -199 q-84.5 -77 -241.5 -77 q-158 0 -242.5 77 q-84.5 77 -84.5 199 Z" /><glyph glyph-name="gbreve" unicode="&#x11f;" d="M296 1506 l132 0 q0 -69 42 -116.5 q42 -47.5 124 -47.5 q82 0 124.5 47.5 q42.5 47.5 42.5 116.5 l130 0 q0 -54 -18 -104 q-18 -50 -52.5 -92 q-34.5 -42 -93.5 -67.5 q-59 -25.5 -133 -25.5 q-74 0 -133 25.5 q-59 25.5 -94 67.5 q-35 42 -53 92 q-18 50 -18 104 ZM565 -223 q131 0 198 65.5 q67 65.5 67 185.5 l0 157 l-11 0 q-32 -72 -111 -119 q-79 -47 -185 -47 q-180 0 -296 122 q-116 122 -116 332 l0 143 q0 210 115.5 332.5 q115.5 122.5 295.5 122.5 q112 0 194.5 -51.5 q82.5 -51.5 110.5 -123.5 l9 0 l0 160 l195 0 l0 -1036 q0 -108 -35.5 -189 q-35.5 -81 -100.5 -129.5 q-65 -48.5 -149.5 -72 q-84.5 -23.5 -188.5 -23.5 q-200 0 -306 84 q-106 84 -117 213 l202 0 q12 -56 72.5 -91 q60.5 -35 156.5 -35 ZM580 892 q-122 0 -193 -83 q-71 -83 -71 -222 l0 -92 q0 -137 74 -220.5 q74 -83.5 192 -83.5 q115 0 181.5 80 q66.5 80 66.5 197 l0 143 q0 118 -68.5 199.5 q-68.5 81.5 -181.5 81.5 Z" /><glyph glyph-name="Gdotaccent" unicode="&#x120;" d="M572 1604 q0 50 32.5 83.5 q32.5 33.5 78.5 33.5 q49 0 82 -33.5 q33 -33.5 33 -83.5 q0 -49 -33 -82.5 q-33 -33.5 -82 -33.5 q-46 0 -78.5 33.5 q-32.5 33.5 -32.5 82.5 ZM1203 939 l-202 0 q-17 127 -104.5 194.5 q-87.5 67.5 -211.5 67.5 q-155 0 -251.5 -106.5 q-96.5 -106.5 -96.5 -319.5 l0 -178 q0 -203 87.5 -318.5 q87.5 -115.5 258.5 -115.5 q143 0 234 77.5 q91 77.5 91 196.5 l0 110 l-329 0 l0 176 l528 0 l0 -277 q0 -62 -16 -124.5 q-16 -62.5 -55.5 -126.5 q-39.5 -64 -97.5 -113 q-58 -49 -150 -79.5 q-92 -30.5 -205 -30.5 q-182 0 -308 79.5 q-126 79.5 -185.5 217.5 q-59.5 138 -59.5 327 l0 181 q0 286 151 450.5 q151 164.5 408 164.5 q119 0 216 -37.5 q97 -37.5 159.5 -101 q62.5 -63.5 98 -144 q35.5 -80.5 40.5 -170.5 Z" /><glyph glyph-name="gdotaccent" unicode="&#x121;" d="M481 1364 q0 50 32.5 83.5 q32.5 33.5 78.5 33.5 q49 0 82 -33.5 q33 -33.5 33 -83.5 q0 -49 -33 -82.5 q-33 -33.5 -82 -33.5 q-46 0 -78.5 33.5 q-32.5 33.5 -32.5 82.5 ZM565 -223 q131 0 198 65.5 q67 65.5 67 185.5 l0 157 l-11 0 q-32 -72 -111 -119 q-79 -47 -185 -47 q-180 0 -296 122 q-116 122 -116 332 l0 143 q0 210 115.5 332.5 q115.5 122.5 295.5 122.5 q112 0 194.5 -51.5 q82.5 -51.5 110.5 -123.5 l9 0 l0 160 l195 0 l0 -1036 q0 -108 -35.5 -189 q-35.5 -81 -100.5 -129.5 q-65 -48.5 -149.5 -72 q-84.5 -23.5 -188.5 -23.5 q-200 0 -306 84 q-106 84 -117 213 l202 0 q12 -56 72.5 -91 q60.5 -35 156.5 -35 ZM580 892 q-122 0 -193 -83 q-71 -83 -71 -222 l0 -92 q0 -137 74 -220.5 q74 -83.5 192 -83.5 q115 0 181.5 80 q66.5 80 66.5 197 l0 143 q0 118 -68.5 199.5 q-68.5 81.5 -181.5 81.5 Z" /><glyph glyph-name="Gcommaaccent" unicode="&#x122;" d="M674 -472 l-143 0 l82 316 l169 0 l-108 -316 ZM1203 939 l-202 0 q-17 127 -104.5 194.5 q-87.5 67.5 -211.5 67.5 q-155 0 -251.5 -106.5 q-96.5 -106.5 -96.5 -319.5 l0 -178 q0 -203 87.5 -318.5 q87.5 -115.5 258.5 -115.5 q143 0 234 77.5 q91 77.5 91 196.5 l0 110 l-329 0 l0 176 l528 0 l0 -277 q0 -62 -16 -124.5 q-16 -62.5 -55.5 -126.5 q-39.5 -64 -97.5 -113 q-58 -49 -150 -79.5 q-92 -30.5 -205 -30.5 q-182 0 -308 79.5 q-126 79.5 -185.5 217.5 q-59.5 138 -59.5 327 l0 181 q0 286 151 450.5 q151 164.5 408 164.5 q119 0 216 -37.5 q97 -37.5 159.5 -101 q62.5 -63.5 98 -144 q35.5 -80.5 40.5 -170.5 Z" /><glyph glyph-name="gcommaaccent" unicode="&#x123;" d="M575 1589 l150 0 l-85 -335 l-179 0 l114 335 ZM565 -223 q131 0 198 65.5 q67 65.5 67 185.5 l0 157 l-11 0 q-32 -72 -111 -119 q-79 -47 -185 -47 q-180 0 -296 122 q-116 122 -116 332 l0 143 q0 210 115.5 332.5 q115.5 122.5 295.5 122.5 q112 0 194.5 -51.5 q82.5 -51.5 110.5 -123.5 l9 0 l0 160 l195 0 l0 -1036 q0 -108 -35.5 -189 q-35.5 -81 -100.5 -129.5 q-65 -48.5 -149.5 -72 q-84.5 -23.5 -188.5 -23.5 q-200 0 -306 84 q-106 84 -117 213 l202 0 q12 -56 72.5 -91 q60.5 -35 156.5 -35 ZM580 892 q-122 0 -193 -83 q-71 -83 -71 -222 l0 -92 q0 -137 74 -220.5 q74 -83.5 192 -83.5 q115 0 181.5 80 q66.5 80 66.5 197 l0 143 q0 118 -68.5 199.5 q-68.5 81.5 -181.5 81.5 Z" /><glyph glyph-name="Hcircumflex" unicode="&#x124;" d="M1246 0 l-206 0 l0 607 l-650 0 l0 -607 l-206 0 l0 1365 l206 0 l0 -568 l650 0 l0 568 l206 0 l0 -1365 ZM783 1743 l268 -246 l-185 0 l-148 135 l-7 0 l-157 -135 l-181 0 l278 246 l132 0 Z" /><glyph glyph-name="hcircumflex" unicode="&#x125;" d="M176 0 l0 1467 l201 0 l0 -600 l11 0 q9 32 30 64 q21 32 57.5 65.5 q36.5 33.5 98 54.5 q61.5 21 137.5 21 q159 0 256 -92 q97 -92 97 -267 l0 -713 l-202 0 l0 649 q0 118 -60 178 q-60 60 -163 60 q-124 0 -193 -83 q-69 -83 -69 -217 l0 -587 l-201 0 ZM342 1845 l268 -246 l-185 0 l-148 135 l-7 0 l-157 -135 l-181 0 l278 246 l132 0 Z" /><glyph glyph-name="Hbar" unicode="&#x126;" d="M390 774 l650 0 l0 225 l-650 0 l0 -225 ZM390 585 l0 -585 l-206 0 l0 999 l-105 0 l0 150 l105 0 l0 216 l206 0 l0 -216 l650 0 l0 216 l206 0 l0 -216 l106 0 l0 -150 l-106 0 l0 -999 l-206 0 l0 585 l-650 0 Z" /><glyph glyph-name="hbar" unicode="&#x127;" d="M377 587 l0 -587 l-201 0 l0 1177 l-119 0 l0 143 l123 0 l0 147 l194 0 l0 -147 l263 0 l0 -143 l-260 0 l0 -310 l11 0 q9 32 30 64 q21 32 57.5 65.5 q36.5 33.5 98 54.5 q61.5 21 137.5 21 q159 0 256 -92 q97 -92 97 -267 l0 -713 l-202 0 l0 649 q0 118 -60 178 q-60 60 -163 60 q-124 0 -193 -83 q-69 -83 -69 -217 Z" /><glyph glyph-name="Itilde" unicode="&#x128;" d="M390 0 l-206 0 l0 1365 l206 0 l0 -1365 ZM411 1461 q-44 0 -82 18.5 q-38 18.5 -59.5 40 q-21.5 21.5 -48.5 40 q-27 18.5 -51 18.5 q-36 0 -52.5 -31.5 q-16.5 -31.5 -18.5 -70.5 l-118 0 q0 88 47.5 152.5 q47.5 64.5 134.5 64.5 q44 0 82.5 -18.5 q38.5 -18.5 61.5 -40 q23 -21.5 51 -40 q28 -18.5 52 -18.5 q36 0 55 30.5 q19 30.5 20 70.5 l118 0 q0 -88 -51.5 -152 q-51.5 -64 -140.5 -64 Z" /><glyph glyph-name="itilde" unicode="&#x129;" d="M196 0 l0 1056 l202 0 l0 -1056 l-202 0 ZM423 1218 q-38 0 -68.5 14.5 q-30.5 14.5 -50 35 q-19.5 20.5 -37 41.5 q-17.5 21 -38 35.5 q-20.5 14.5 -43.5 14.5 q-39 0 -54 -33.5 q-15 -33.5 -19 -90.5 l-125 0 q0 112 49.5 185 q49.5 73 143.5 73 q40 0 72.5 -14.5 q32.5 -14.5 53 -35.5 q20.5 -21 37.5 -41.5 q17 -20.5 36 -35 q19 -14.5 39 -14.5 q62 0 70 124 l125 0 q0 -68 -19.5 -125 q-19.5 -57 -64 -95 q-44.5 -38 -107.5 -38 Z" /><glyph glyph-name="Imacron" unicode="&#x12a;" d="M390 0 l-206 0 l0 1365 l206 0 l0 -1365 ZM587 1507 l-598 0 l0 120 l598 0 l0 -120 Z" /><glyph glyph-name="imacron" unicode="&#x12b;" d="M196 0 l0 1056 l202 0 l0 -1056 l-202 0 ZM600 1246 l-605 0 l0 127 l605 0 l0 -127 Z" /><glyph glyph-name="Ibreve" unicode="&#x12c;" d="M390 0 l-206 0 l0 1365 l206 0 l0 -1365 ZM-39 1755 l134 0 q0 -72 49 -114.5 q49 -42.5 144 -42.5 q95 0 144 42.5 q49 42.5 49 114.5 l133 0 q0 -122 -84.5 -199 q-84.5 -77 -241.5 -77 q-158 0 -242.5 77 q-84.5 77 -84.5 199 Z" /><glyph glyph-name="ibreve" unicode="&#x12d;" d="M196 0 l0 1056 l202 0 l0 -1056 l-202 0 ZM0 1506 l132 0 q0 -69 42 -116.5 q42 -47.5 124 -47.5 q82 0 124.5 47.5 q42.5 47.5 42.5 116.5 l130 0 q0 -54 -18 -104 q-18 -50 -52.5 -92 q-34.5 -42 -93.5 -67.5 q-59 -25.5 -133 -25.5 q-74 0 -133 25.5 q-59 25.5 -94 67.5 q-35 42 -53 92 q-18 50 -18 104 Z" /><glyph glyph-name="Iogonek" unicode="&#x12e;" d="M414 -366 q-40 -21 -125 -21 q-106 0 -168 52 q-62 52 -62 146 q0 139 140 212 l0 4 l-15 0 l0 1338 l206 0 l0 -1345 q-170 -62 -170 -167 q0 -48 31.5 -73.5 q31.5 -25.5 84.5 -25.5 q40 0 78 9 l0 -129 Z" /><glyph glyph-name="iogonek" unicode="&#x12f;" d="M419 -237 l0 -131 q-42 -19 -124 -19 q-111 0 -176.5 51 q-65.5 51 -65.5 148 q0 138 143 215 l0 1029 l202 0 l0 -1030 q-44 -14 -81 -34.5 q-37 -20.5 -66.5 -57.5 q-29.5 -37 -29.5 -80 q0 -48 32 -73.5 q32 -25.5 86 -25.5 q45 0 80 8 ZM159 1375 q0 59 38.5 96.5 q38.5 37.5 98.5 37.5 q62 0 101 -37.5 q39 -37.5 39 -96.5 q0 -58 -39 -95.5 q-39 -37.5 -101 -37.5 q-59 0 -98 37.5 q-39 37.5 -39 95.5 Z" /><glyph glyph-name="Idotaccent" unicode="&#x130;" d="M390 0 l-206 0 l0 1365 l206 0 l0 -1365 ZM175 1604 q0 50 32.5 83.5 q32.5 33.5 78.5 33.5 q49 0 82 -33.5 q33 -33.5 33 -83.5 q0 -49 -33 -82.5 q-33 -33.5 -82 -33.5 q-46 0 -78.5 33.5 q-32.5 33.5 -32.5 82.5 Z" /><glyph glyph-name="dotlessi" unicode="&#x131;" d="M196 0 l0 1056 l202 0 l0 -1056 l-202 0 Z" /><glyph glyph-name="Jcircumflex" unicode="&#x134;" d="M51 351 l200 0 q3 -83 60 -131.5 q57 -48.5 139 -48.5 q101 0 158.5 57 q57.5 57 57.5 175 l0 962 l206 0 l0 -950 q0 -218 -113.5 -330.5 q-113.5 -112.5 -307.5 -112.5 q-183 0 -291.5 107 q-108.5 107 -108.5 272 ZM836 1743 l268 -246 l-185 0 l-148 135 l-7 0 l-157 -135 l-181 0 l278 246 l132 0 Z" /><glyph glyph-name="jcircumflex" unicode="&#x135;" d="M398 1056 l0 -1079 q0 -178 -80 -262.5 q-80 -84.5 -226 -84.5 q-58 0 -103 8 l0 163 q27 -5 64 -5 q77 0 110 43.5 q33 43.5 33 139.5 l0 1077 l202 0 ZM-18 1222 l249 368 l137 0 l249 -368 l-166 0 l-148 238 l-7 0 l-148 -238 l-166 0 Z" /><glyph glyph-name="Kcommaaccent" unicode="&#x136;" d="M1203 1365 l-501 -584 l526 -781 l-255 0 l-424 631 l-159 -171 l0 -460 l-206 0 l0 1365 l206 0 l0 -636 l9 0 l569 636 l235 0 ZM620 -472 l-143 0 l82 316 l169 0 l-108 -316 Z" /><glyph glyph-name="kcommaaccent" unicode="&#x137;" d="M377 379 l0 -379 l-202 0 l0 1467 l202 0 l0 -871 l8 0 l406 460 l232 0 l-405 -457 l432 -599 l-239 0 l-344 470 l-90 -91 ZM559 -472 l-143 0 l82 316 l169 0 l-108 -316 Z" /><glyph glyph-name="Lacute" unicode="&#x139;" d="M193 1509 l238 345 l190 0 l-280 -345 l-148 0 ZM1003 193 l0 -193 l-819 0 l0 1365 l206 0 l0 -1172 l613 0 Z" /><glyph glyph-name="lacute" unicode="&#x13a;" d="M187 1611 l238 345 l190 0 l-280 -345 l-148 0 ZM179 0 l0 1467 l202 0 l0 -1467 l-202 0 Z" /><glyph glyph-name="Lcommaaccent" unicode="&#x13b;" d="M523 -472 l-143 0 l82 316 l169 0 l-108 -316 ZM1003 193 l0 -193 l-819 0 l0 1365 l206 0 l0 -1172 l613 0 Z" /><glyph glyph-name="lcommaaccent" unicode="&#x13c;" d="M270 -472 l-143 0 l82 316 l169 0 l-108 -316 ZM179 0 l0 1467 l202 0 l0 -1467 l-202 0 Z" /><glyph glyph-name="Lcaron" unicode="&#x13d;" d="M614 1437 l183 0 l-50 -488 l-133 0 l0 488 ZM1003 193 l0 -193 l-819 0 l0 1365 l206 0 l0 -1172 l613 0 Z" /><glyph glyph-name="lcaron" unicode="&#x13e;" d="M553 1436 l175 0 l-45 -488 l-130 0 l0 488 ZM179 0 l0 1467 l202 0 l0 -1467 l-202 0 Z" /><glyph glyph-name="Lslash" unicode="&#x141;" d="M1018 0 l-818 0 l0 527 l-127 -73 l0 199 l127 73 l0 639 l206 0 l0 -513 l358 204 l0 -202 l-358 -202 l0 -459 l612 0 l0 -193 Z" /><glyph glyph-name="lslash" unicode="&#x142;" d="M419 0 l-202 0 l0 593 l-150 -99 l0 194 l150 99 l0 680 l202 0 l0 -542 l149 99 l0 -200 l-149 -98 l0 -726 Z" /><glyph glyph-name="Nacute" unicode="&#x143;" d="M616 1509 l238 345 l190 0 l-280 -345 l-148 0 ZM384 0 l-200 0 l0 1365 l187 0 l656 -988 l10 0 l0 988 l200 0 l0 -1365 l-187 0 l-657 991 l-9 0 l0 -991 Z" /><glyph glyph-name="nacute" unicode="&#x144;" d="M518 1226 l239 354 l192 0 l-279 -354 l-152 0 ZM172 0 l0 1056 l200 0 l0 -189 l10 0 q12 36 31.5 67.5 q19.5 31.5 55 65 q35.5 33.5 95 53 q59.5 19.5 136.5 19.5 q165 0 261 -91 q96 -91 96 -266 l0 -715 l-202 0 l0 651 q0 118 -57.5 177 q-57.5 59 -160.5 59 q-127 0 -195 -83 q-68 -83 -68 -217 l0 -587 l-202 0 Z" /><glyph glyph-name="Ncommaaccent" unicode="&#x145;" d="M699 -472 l-143 0 l82 316 l169 0 l-108 -316 ZM384 0 l-200 0 l0 1365 l187 0 l656 -988 l10 0 l0 988 l200 0 l0 -1365 l-187 0 l-657 991 l-9 0 l0 -991 Z" /><glyph glyph-name="ncommaaccent" unicode="&#x146;" d="M601 -472 l-143 0 l82 316 l169 0 l-108 -316 ZM172 0 l0 1056 l200 0 l0 -189 l10 0 q12 36 31.5 67.5 q19.5 31.5 55 65 q35.5 33.5 95 53 q59.5 19.5 136.5 19.5 q165 0 261 -91 q96 -91 96 -266 l0 -715 l-202 0 l0 651 q0 118 -57.5 177 q-57.5 59 -160.5 59 q-127 0 -195 -83 q-68 -83 -68 -217 l0 -587 l-202 0 Z" /><glyph glyph-name="Ncaron" unicode="&#x147;" d="M365 1717 l190 0 l152 -120 l8 0 l139 120 l194 0 l-237 -214 l-194 0 l-252 214 ZM384 0 l-200 0 l0 1365 l187 0 l656 -988 l10 0 l0 988 l200 0 l0 -1365 l-187 0 l-657 991 l-9 0 l0 -991 Z" /><glyph glyph-name="ncaron" unicode="&#x148;" d="M295 1587 l166 0 l149 -245 l6 0 l141 245 l166 0 l-239 -368 l-138 0 l-251 368 ZM172 0 l0 1056 l200 0 l0 -189 l10 0 q12 36 31.5 67.5 q19.5 31.5 55 65 q35.5 33.5 95 53 q59.5 19.5 136.5 19.5 q165 0 261 -91 q96 -91 96 -266 l0 -715 l-202 0 l0 651 q0 118 -57.5 177 q-57.5 59 -160.5 59 q-127 0 -195 -83 q-68 -83 -68 -217 l0 -587 l-202 0 Z" /><glyph glyph-name="Omacron" unicode="&#x14c;" d="M338 772 l0 -190 q0 -206 96.5 -312.5 q96.5 -106.5 253.5 -106.5 q158 0 255 106.5 q97 106.5 97 312.5 l0 190 q0 207 -97.5 318.5 q-97.5 111.5 -254.5 111.5 q-156 0 -253 -111.5 q-97 -111.5 -97 -318.5 ZM130 583 l0 188 q0 289 151 455 q151 166 409 166 q258 0 408 -166 q150 -166 150 -455 l0 -188 q0 -287 -151.5 -449 q-151.5 -162 -410.5 -162 q-258 0 -407 161.5 q-149 161.5 -149 449.5 ZM988 1507 l-598 0 l0 120 l598 0 l0 -120 Z" /><glyph glyph-name="omacron" unicode="&#x14d;" d="M887 1246 l-605 0 l0 127 l605 0 l0 -127 ZM585 1074 q205 0 333.5 -128 q128.5 -128 128.5 -347 l0 -139 q0 -224 -128 -351 q-128 -127 -334 -127 q-209 0 -336 126 q-127 126 -127 352 l0 139 q0 214 129.5 344.5 q129.5 130.5 333.5 130.5 ZM775 811.5 q-69 86.5 -189 86.5 q-120 0 -190.5 -87 q-70.5 -87 -70.5 -223 l0 -120 q0 -138 68.5 -224 q68.5 -86 192.5 -86 q123 0 190.5 85.5 q67.5 85.5 67.5 224.5 l0 120 q0 137 -69 223.5 Z" /><glyph glyph-name="Obreve" unicode="&#x14e;" d="M338 772 l0 -190 q0 -206 96.5 -312.5 q96.5 -106.5 253.5 -106.5 q158 0 255 106.5 q97 106.5 97 312.5 l0 190 q0 207 -97.5 318.5 q-97.5 111.5 -254.5 111.5 q-156 0 -253 -111.5 q-97 -111.5 -97 -318.5 ZM130 583 l0 188 q0 289 151 455 q151 166 409 166 q258 0 408 -166 q150 -166 150 -455 l0 -188 q0 -287 -151.5 -449 q-151.5 -162 -410.5 -162 q-258 0 -407 161.5 q-149 161.5 -149 449.5 ZM362 1755 l134 0 q0 -72 49 -114.5 q49 -42.5 144 -42.5 q95 0 144 42.5 q49 42.5 49 114.5 l133 0 q0 -122 -84.5 -199 q-84.5 -77 -241.5 -77 q-158 0 -242.5 77 q-84.5 77 -84.5 199 Z" /><glyph glyph-name="obreve" unicode="&#x14f;" d="M286 1506 l132 0 q0 -69 42 -116.5 q42 -47.5 124 -47.5 q82 0 124.5 47.5 q42.5 47.5 42.5 116.5 l130 0 q0 -54 -18 -104 q-18 -50 -52.5 -92 q-34.5 -42 -93.5 -67.5 q-59 -25.5 -133 -25.5 q-74 0 -133 25.5 q-59 25.5 -94 67.5 q-35 42 -53 92 q-18 50 -18 104 ZM585 1074 q205 0 333.5 -128 q128.5 -128 128.5 -347 l0 -139 q0 -224 -128 -351 q-128 -127 -334 -127 q-209 0 -336 126 q-127 126 -127 352 l0 139 q0 214 129.5 344.5 q129.5 130.5 333.5 130.5 ZM775 811.5 q-69 86.5 -189 86.5 q-120 0 -190.5 -87 q-70.5 -87 -70.5 -223 l0 -120 q0 -138 68.5 -224 q68.5 -86 192.5 -86 q123 0 190.5 85.5 q67.5 85.5 67.5 224.5 l0 120 q0 137 -69 223.5 Z" /><glyph glyph-name="Ohungarumlaut" unicode="&#x150;" d="M423 1509 l248 329 l188 0 l-290 -329 l-146 0 ZM764 1509 l248 329 l188 0 l-290 -329 l-146 0 ZM338 772 l0 -190 q0 -206 96.5 -312.5 q96.5 -106.5 253.5 -106.5 q158 0 255 106.5 q97 106.5 97 312.5 l0 190 q0 207 -97.5 318.5 q-97.5 111.5 -254.5 111.5 q-156 0 -253 -111.5 q-97 -111.5 -97 -318.5 ZM130 583 l0 188 q0 289 151 455 q151 166 409 166 q258 0 408 -166 q150 -166 150 -455 l0 -188 q0 -287 -151.5 -449 q-151.5 -162 -410.5 -162 q-258 0 -407 161.5 q-149 161.5 -149 449.5 Z" /><glyph glyph-name="ohungarumlaut" unicode="&#x151;" d="M465 1228 l-143 0 l244 362 l189 0 l-290 -362 ZM798 1228 l-142 0 l245 362 l188 0 l-291 -362 ZM585 1074 q205 0 333.5 -128 q128.5 -128 128.5 -347 l0 -139 q0 -224 -128 -351 q-128 -127 -334 -127 q-209 0 -336 126 q-127 126 -127 352 l0 139 q0 214 129.5 344.5 q129.5 130.5 333.5 130.5 ZM775 811.5 q-69 86.5 -189 86.5 q-120 0 -190.5 -87 q-70.5 -87 -70.5 -223 l0 -120 q0 -138 68.5 -224 q68.5 -86 192.5 -86 q123 0 190.5 85.5 q67.5 85.5 67.5 224.5 l0 120 q0 137 -69 223.5 Z" /><glyph glyph-name="OE" unicode="&#x152;" d="M341 772 l0 -191 q0 -206 97 -312.5 q97 -106.5 254 -106.5 q77 0 140.5 24.5 q63.5 24.5 111.5 73 q48 48.5 75 128 q27 79.5 27 183.5 l0 218 q0 205 -97.5 309 q-97.5 104 -256.5 104 q-156 0 -253.5 -111.5 q-97.5 -111.5 -97.5 -318.5 ZM671 -28 q-250 0 -395.5 162.5 q-145.5 162.5 -145.5 448.5 l0 187 q0 293 148.5 457.5 q148.5 164.5 395.5 164.5 q120 0 218 -42.5 q98 -42.5 151 -124.5 l14 0 l0 140 l816 0 l0 -188 l-625 0 l0 -393 l589 0 l0 -180 l-589 0 l0 -416 l625 0 l0 -188 l-816 0 l0 144 l-14 0 q-55 -81 -154 -126.5 q-99 -45.5 -218 -45.5 Z" /><glyph glyph-name="oe" unicode="&#x153;" d="M1305 -18 q-117 0 -211 45 q-94 45 -142 121 l-14 0 q-51 -76 -146.5 -121 q-95.5 -45 -206.5 -45 q-209 0 -336 126 q-127 126 -127 352 l0 139 q0 214 129.5 344.5 q129.5 130.5 333.5 130.5 q115 0 207.5 -42.5 q92.5 -42.5 145.5 -125.5 l13 0 q50 77 141.5 122.5 q91.5 45.5 199.5 45.5 q197 0 320.5 -129 q123.5 -129 123.5 -344 l0 -125 l-689 0 l0 -51 q0 -118 68 -192.5 q68 -74.5 189 -74.5 q86 0 145.5 34.5 q59.5 34.5 72.5 85.5 l201 0 q-6 -48 -33.5 -97.5 q-27.5 -49.5 -76.5 -95 q-49 -45.5 -129.5 -74.5 q-80.5 -29 -178.5 -29 ZM774 812 q-69 87 -189 87 q-120 0 -190.5 -87 q-70.5 -87 -70.5 -224 l0 -119 q0 -139 68.5 -224.5 q68.5 -85.5 192.5 -85.5 q123 0 190.5 85.5 q67.5 85.5 67.5 224.5 l0 119 q0 137 -69 224 ZM1047 619 l490 0 l0 15 q0 121 -67 195 q-67 74 -177 74 q-111 0 -178.5 -74 q-67.5 -74 -67.5 -195 l0 -15 Z" /><glyph glyph-name="Racute" unicode="&#x154;" d="M514 1509 l238 345 l190 0 l-280 -345 l-148 0 ZM695 1365 q113 0 201 -33 q88 -33 141.5 -91.5 q53.5 -58.5 81 -133 q27.5 -74.5 27.5 -161.5 q0 -80 -22.5 -147.5 q-22.5 -67.5 -61 -113 q-38.5 -45.5 -80 -75 q-41.5 -29.5 -88.5 -46.5 l277 -564 l-233 0 l-248 526 l-301 0 l0 -526 l-205 0 l0 1365 l511 0 ZM389 704 l271 0 q133 0 203.5 60.5 q70.5 60.5 70.5 173.5 q0 119 -72 182 q-72 63 -195 63 l-278 0 l0 -479 Z" /><glyph glyph-name="racute" unicode="&#x155;" d="M354 1226 l239 354 l192 0 l-279 -354 l-152 0 ZM187 0 l0 1056 l202 0 l0 -164 l10 0 q11 30 30.5 58.5 q19.5 28.5 52 57.5 q32.5 29 84.5 46.5 q52 17.5 116 17.5 q30 0 70 -6 l0 -192 q-25 7 -90 7 q-131 0 -200.5 -69 q-69.5 -69 -69.5 -180 l0 -632 l-205 0 Z" /><glyph glyph-name="Rcommaaccent" unicode="&#x156;" d="M695 1365 q113 0 201 -33 q88 -33 141.5 -91.5 q53.5 -58.5 81 -133 q27.5 -74.5 27.5 -161.5 q0 -80 -22.5 -147.5 q-22.5 -67.5 -61 -113 q-38.5 -45.5 -80 -75 q-41.5 -29.5 -88.5 -46.5 l277 -564 l-233 0 l-248 526 l-301 0 l0 -526 l-205 0 l0 1365 l511 0 ZM389 704 l271 0 q133 0 203.5 60.5 q70.5 60.5 70.5 173.5 q0 119 -72 182 q-72 63 -195 63 l-278 0 l0 -479 ZM597 -472 l-143 0 l82 316 l169 0 l-108 -316 Z" /><glyph glyph-name="rcommaaccent" unicode="&#x157;" d="M187 0 l0 1056 l202 0 l0 -164 l10 0 q11 30 30.5 58.5 q19.5 28.5 52 57.5 q32.5 29 84.5 46.5 q52 17.5 116 17.5 q30 0 70 -6 l0 -192 q-25 7 -90 7 q-131 0 -200.5 -69 q-69.5 -69 -69.5 -180 l0 -632 l-205 0 ZM281 -472 l-143 0 l82 316 l169 0 l-108 -316 Z" /><glyph glyph-name="Rcaron" unicode="&#x158;" d="M695 1365 q113 0 201 -33 q88 -33 141.5 -91.5 q53.5 -58.5 81 -133 q27.5 -74.5 27.5 -161.5 q0 -80 -22.5 -147.5 q-22.5 -67.5 -61 -113 q-38.5 -45.5 -80 -75 q-41.5 -29.5 -88.5 -46.5 l277 -564 l-233 0 l-248 526 l-301 0 l0 -526 l-205 0 l0 1365 l511 0 ZM389 704 l271 0 q133 0 203.5 60.5 q70.5 60.5 70.5 173.5 q0 119 -72 182 q-72 63 -195 63 l-278 0 l0 -479 ZM263 1717 l190 0 l152 -120 l8 0 l139 120 l194 0 l-237 -214 l-194 0 l-252 214 Z" /><glyph glyph-name="rcaron" unicode="&#x159;" d="M131 1587 l166 0 l149 -245 l6 0 l141 245 l166 0 l-239 -368 l-138 0 l-251 368 ZM187 0 l0 1056 l202 0 l0 -164 l10 0 q11 30 30.5 58.5 q19.5 28.5 52 57.5 q32.5 29 84.5 46.5 q52 17.5 116 17.5 q30 0 70 -6 l0 -192 q-25 7 -90 7 q-131 0 -200.5 -69 q-69.5 -69 -69.5 -180 l0 -632 l-205 0 Z" /><glyph glyph-name="Sacute" unicode="&#x15a;" d="M516 1509 l238 345 l190 0 l-280 -345 l-148 0 ZM87 378 l203 0 q10 -95 93 -158 q83 -63 226 -63 q136 0 215 57.5 q79 57.5 79 156.5 q0 77 -53 123.5 q-53 46.5 -166 74.5 l-231 56 q-68 17 -124 45 q-56 28 -103.5 71 q-47.5 43 -74 107 q-26.5 64 -26.5 144 q0 95 39.5 172.5 q39.5 77.5 107 127 q67.5 49.5 154.5 76.5 q87 27 184 27 q129 0 236.5 -45 q107.5 -45 176.5 -136.5 q69 -91.5 71 -215.5 l-200 0 q-9 93 -82.5 153.5 q-73.5 60.5 -204.5 60.5 q-123 0 -198.5 -54 q-75.5 -54 -75.5 -149 q0 -139 190 -184 l229 -56 q171 -41 264.5 -128.5 q93.5 -87.5 93.5 -249.5 q0 -131 -68 -227 q-68 -96 -184 -144 q-116 -48 -267 -48 q-90 0 -166 17 q-76 17 -129.5 47.5 q-53.5 30.5 -94 69.5 q-40.5 39 -64.5 85.5 q-24 46.5 -36.5 92.5 q-12.5 46 -13.5 94 Z" /><glyph glyph-name="sacute" unicode="&#x15b;" d="M125 750 q0 83 32.5 146.5 q32.5 63.5 89.5 101.5 q57 38 127.5 57 q70.5 19 151.5 19 q173 0 278.5 -82 q105.5 -82 105.5 -220 l-184 0 q-6 58 -59 100 q-53 42 -147 42 q-90 0 -145.5 -38.5 q-55.5 -38.5 -55.5 -106.5 q0 -39 18.5 -66 q18.5 -27 61 -43.5 q42.5 -16.5 70.5 -23.5 q28 -7 87 -17 q19 -3 28 -5 q81 -14 139 -33 q58 -19 110 -52 q52 -33 78.5 -86 q26.5 -53 26.5 -125 q0 -158 -116 -247 q-116 -89 -313 -89 q-184 0 -294 80.5 q-110 80.5 -110 220.5 l197 0 q21 -142 217 -142 q112 0 167 42 q55 42 55 110 q0 38 -18 64.5 q-18 26.5 -55 42.5 q-37 16 -76 26 q-39 10 -97 21 q-12 2 -18 3 q-66 13 -112 26 q-46 13 -95 36.5 q-49 23.5 -78 53.5 q-29 30 -48 76.5 q-19 46.5 -19 107.5 ZM432 1226 l239 354 l192 0 l-279 -354 l-152 0 Z" /><glyph glyph-name="Scircumflex" unicode="&#x15c;" d="M87 378 l203 0 q10 -95 93 -158 q83 -63 226 -63 q136 0 215 57.5 q79 57.5 79 156.5 q0 77 -53 123.5 q-53 46.5 -166 74.5 l-231 56 q-68 17 -124 45 q-56 28 -103.5 71 q-47.5 43 -74 107 q-26.5 64 -26.5 144 q0 95 39.5 172.5 q39.5 77.5 107 127 q67.5 49.5 154.5 76.5 q87 27 184 27 q129 0 236.5 -45 q107.5 -45 176.5 -136.5 q69 -91.5 71 -215.5 l-200 0 q-9 93 -82.5 153.5 q-73.5 60.5 -204.5 60.5 q-123 0 -198.5 -54 q-75.5 -54 -75.5 -149 q0 -139 190 -184 l229 -56 q171 -41 264.5 -128.5 q93.5 -87.5 93.5 -249.5 q0 -131 -68 -227 q-68 -96 -184 -144 q-116 -48 -267 -48 q-90 0 -166 17 q-76 17 -129.5 47.5 q-53.5 30.5 -94 69.5 q-40.5 39 -64.5 85.5 q-24 46.5 -36.5 92.5 q-12.5 46 -13.5 94 ZM678 1743 l268 -246 l-185 0 l-148 135 l-7 0 l-157 -135 l-181 0 l278 246 l132 0 Z" /><glyph glyph-name="scircumflex" unicode="&#x15d;" d="M209 1222 l249 368 l137 0 l249 -368 l-166 0 l-148 238 l-7 0 l-148 -238 l-166 0 ZM125 750 q0 83 32.5 146.5 q32.5 63.5 89.5 101.5 q57 38 127.5 57 q70.5 19 151.5 19 q173 0 278.5 -82 q105.5 -82 105.5 -220 l-184 0 q-6 58 -59 100 q-53 42 -147 42 q-90 0 -145.5 -38.5 q-55.5 -38.5 -55.5 -106.5 q0 -39 18.5 -66 q18.5 -27 61 -43.5 q42.5 -16.5 70.5 -23.5 q28 -7 87 -17 q19 -3 28 -5 q81 -14 139 -33 q58 -19 110 -52 q52 -33 78.5 -86 q26.5 -53 26.5 -125 q0 -158 -116 -247 q-116 -89 -313 -89 q-184 0 -294 80.5 q-110 80.5 -110 220.5 l197 0 q21 -142 217 -142 q112 0 167 42 q55 42 55 110 q0 38 -18 64.5 q-18 26.5 -55 42.5 q-37 16 -76 26 q-39 10 -97 21 q-12 2 -18 3 q-66 13 -112 26 q-46 13 -95 36.5 q-49 23.5 -78 53.5 q-29 30 -48 76.5 q-19 46.5 -19 107.5 Z" /><glyph glyph-name="Scedilla" unicode="&#x15e;" d="M624 -485 q-85 -3 -150 16 l0 113 q47 -14 115 -14 q48 0 82 16.5 q34 16.5 34 54.5 q0 22 -10.5 35.5 q-10.5 13.5 -33.5 19.5 q-23 6 -43.5 7.5 q-20.5 1.5 -55.5 1.5 l-53 0 l0 89 l46 120 q-123 5 -216.5 43.5 q-93.5 38.5 -146 98.5 q-52.5 60 -78 125.5 q-25.5 65.5 -27.5 136.5 l203 0 q10 -95 93 -158 q83 -63 226 -63 q136 0 215 57.5 q79 57.5 79 156.5 q0 77 -53 123.5 q-53 46.5 -166 74.5 l-231 56 q-68 17 -124 45 q-56 28 -103.5 71 q-47.5 43 -74 107 q-26.5 64 -26.5 144 q0 95 39.5 172.5 q39.5 77.5 107 127 q67.5 49.5 154.5 76.5 q87 27 184 27 q129 0 236.5 -45 q107.5 -45 176.5 -136.5 q69 -91.5 71 -215.5 l-200 0 q-9 93 -82.5 153.5 q-73.5 60.5 -204.5 60.5 q-123 0 -198.5 -54 q-75.5 -54 -75.5 -149 q0 -139 190 -184 l229 -56 q171 -41 264.5 -128.5 q93.5 -87.5 93.5 -249.5 q0 -174 -115.5 -282.5 q-115.5 -108.5 -307.5 -130.5 l-41 -107 q95 0 151 -42.5 q56 -42.5 56 -121.5 q0 -93 -63 -140.5 q-63 -47.5 -166 -51.5 Z" /><glyph glyph-name="scedilla" unicode="&#x15f;" d="M528 -485 q-85 -3 -150 16 l0 113 q47 -14 115 -14 q48 0 82 16.5 q34 16.5 34 54.5 q0 22 -10.5 35.5 q-10.5 13.5 -33.5 19.5 q-23 6 -43.5 7.5 q-20.5 1.5 -55.5 1.5 l-53 0 l0 89 l49 129 q-164 11 -260.5 90.5 q-96.5 79.5 -96.5 209.5 l197 0 q21 -142 217 -142 q112 0 167 42 q55 42 55 110 q0 38 -18 64.5 q-18 26.5 -55 42.5 q-37 16 -76 26 q-39 10 -97 21 q-12 2 -18 3 q-66 13 -112 26 q-46 13 -95 36.5 q-49 23.5 -78 53.5 q-29 30 -48 76.5 q-19 46.5 -19 107.5 q0 83 32.5 146.5 q32.5 63.5 89.5 101.5 q57 38 127.5 57 q70.5 19 151.5 19 q173 0 278.5 -82 q105.5 -82 105.5 -220 l-184 0 q-6 58 -59 100 q-53 42 -147 42 q-90 0 -145.5 -38.5 q-55.5 -38.5 -55.5 -106.5 q0 -39 18.5 -66 q18.5 -27 61 -43.5 q42.5 -16.5 70.5 -23.5 q28 -7 87 -17 q19 -3 28 -5 q81 -14 139 -33 q58 -19 110 -52 q52 -33 78.5 -86 q26.5 -53 26.5 -125 q0 -139 -92 -225.5 q-92 -86.5 -252 -105.5 l-44 -116 q95 0 151 -42.5 q56 -42.5 56 -121.5 q0 -93 -63 -140.5 q-63 -47.5 -166 -51.5 Z" /><glyph glyph-name="Scaron" unicode="&#x160;" d="M87 378 l203 0 q10 -95 93 -158 q83 -63 226 -63 q136 0 215 57.5 q79 57.5 79 156.5 q0 77 -53 123.5 q-53 46.5 -166 74.5 l-231 56 q-68 17 -124 45 q-56 28 -103.5 71 q-47.5 43 -74 107 q-26.5 64 -26.5 144 q0 95 39.5 172.5 q39.5 77.5 107 127 q67.5 49.5 154.5 76.5 q87 27 184 27 q129 0 236.5 -45 q107.5 -45 176.5 -136.5 q69 -91.5 71 -215.5 l-200 0 q-9 93 -82.5 153.5 q-73.5 60.5 -204.5 60.5 q-123 0 -198.5 -54 q-75.5 -54 -75.5 -149 q0 -139 190 -184 l229 -56 q171 -41 264.5 -128.5 q93.5 -87.5 93.5 -249.5 q0 -131 -68 -227 q-68 -96 -184 -144 q-116 -48 -267 -48 q-90 0 -166 17 q-76 17 -129.5 47.5 q-53.5 30.5 -94 69.5 q-40.5 39 -64.5 85.5 q-24 46.5 -36.5 92.5 q-12.5 46 -13.5 94 ZM265 1717 l190 0 l152 -120 l8 0 l139 120 l194 0 l-237 -214 l-194 0 l-252 214 Z" /><glyph glyph-name="scaron" unicode="&#x161;" d="M209 1587 l166 0 l149 -245 l6 0 l141 245 l166 0 l-239 -368 l-138 0 l-251 368 ZM125 750 q0 83 32.5 146.5 q32.5 63.5 89.5 101.5 q57 38 127.5 57 q70.5 19 151.5 19 q173 0 278.5 -82 q105.5 -82 105.5 -220 l-184 0 q-6 58 -59 100 q-53 42 -147 42 q-90 0 -145.5 -38.5 q-55.5 -38.5 -55.5 -106.5 q0 -39 18.5 -66 q18.5 -27 61 -43.5 q42.5 -16.5 70.5 -23.5 q28 -7 87 -17 q19 -3 28 -5 q81 -14 139 -33 q58 -19 110 -52 q52 -33 78.5 -86 q26.5 -53 26.5 -125 q0 -158 -116 -247 q-116 -89 -313 -89 q-184 0 -294 80.5 q-110 80.5 -110 220.5 l197 0 q21 -142 217 -142 q112 0 167 42 q55 42 55 110 q0 38 -18 64.5 q-18 26.5 -55 42.5 q-37 16 -76 26 q-39 10 -97 21 q-12 2 -18 3 q-66 13 -112 26 q-46 13 -95 36.5 q-49 23.5 -78 53.5 q-29 30 -48 76.5 q-19 46.5 -19 107.5 Z" /><glyph glyph-name="Tcedilla" unicode="&#x162;" d="M506 0 l-56 0 l0 1175 l-405 0 l0 190 l1017 0 l0 -190 l-406 0 l0 -1175 l-18 0 l-66 -129 q95 0 150.5 -42.5 q55.5 -42.5 55.5 -121.5 q0 -93 -63 -140.5 q-63 -47.5 -166 -51.5 q-86 -3 -149 16 l0 113 q47 -14 114 -14 q48 0 82 16.5 q34 16.5 34 54.5 q0 22 -10.5 35.5 q-10.5 13.5 -33.5 19.5 q-23 6 -43.5 7.5 q-20.5 1.5 -55.5 1.5 l-53 0 l0 89 l72 146 Z" /><glyph glyph-name="tcedilla" unicode="&#x163;" d="M468 -479 q-89 -3 -149 15 l0 113 q44 -13 115 -13 q115 0 115 71 q0 17 -8 29.5 q-8 12.5 -20 19 q-12 6.5 -32.5 10 q-20.5 3.5 -38 4.5 q-17.5 1 -44.5 1 l-53 0 l0 89 l57 147 q-100 23 -137.5 91.5 q-37.5 68.5 -37.5 198.5 l0 582 l-161 0 l0 171 l163 0 l0 264 l199 0 l0 -264 l237 0 l0 -171 l-237 0 l0 -566 q0 -86 35.5 -117 q35.5 -31 129.5 -31 q51 0 85 4 l0 -167 q-40 -10 -135 -10 l-15 0 l-45 -115 q95 0 151 -43 q56 -43 56 -122 q0 -93 -63.5 -140.5 q-63.5 -47.5 -166.5 -50.5 Z" /><glyph glyph-name="Tcaron" unicode="&#x164;" d="M209 1717 l190 0 l152 -120 l8 0 l139 120 l194 0 l-237 -214 l-194 0 l-252 214 ZM657 0 l-206 0 l0 1175 l-405 0 l0 190 l1016 0 l0 -190 l-405 0 l0 -1175 Z" /><glyph glyph-name="tcaron" unicode="&#x165;" d="M616 1694 l175 0 l-45 -488 l-130 0 l0 488 ZM237 1050 l0 264 l199 0 l0 -264 l237 0 l0 -171 l-237 0 l0 -566 q0 -86 35.5 -117 q35.5 -31 129.5 -31 q51 0 85 4 l0 -167 q-40 -10 -135 -10 q-95 0 -156.5 17 q-61.5 17 -97 56.5 q-35.5 39.5 -49 94 q-13.5 54.5 -13.5 137.5 l0 582 l-161 0 l0 171 l163 0 Z" /><glyph glyph-name="Tbar" unicode="&#x166;" d="M889 623 l-232 0 l0 -623 l-206 0 l0 623 l-230 0 l0 150 l230 0 l0 402 l-405 0 l0 190 l1016 0 l0 -190 l-405 0 l0 -402 l232 0 l0 -150 Z" /><glyph glyph-name="tbar" unicode="&#x167;" d="M686 2 q-40 -10 -135 -10 q-95 0 -156.5 17 q-61.5 17 -97 56.5 q-35.5 39.5 -49 94 q-13.5 54.5 -13.5 137.5 l0 222 l-155 0 l0 148 l155 0 l0 212 l-161 0 l0 171 l163 0 l0 264 l199 0 l0 -264 l237 0 l0 -171 l-237 0 l0 -212 l229 0 l0 -148 l-229 0 l0 -206 q0 -86 35.5 -117 q35.5 -31 129.5 -31 q51 0 85 4 l0 -167 Z" /><glyph glyph-name="Utilde" unicode="&#x168;" d="M374 1365 l0 -877 q0 -150 87.5 -236.5 q87.5 -86.5 235.5 -86.5 q148 0 235.5 86.5 q87.5 86.5 87.5 236.5 l0 877 l206 0 l0 -891 q0 -226 -145.5 -364 q-145.5 -138 -383.5 -138 q-238 0 -383.5 139 q-145.5 139 -145.5 366 l0 888 l206 0 ZM820 1461 q-44 0 -82 18.5 q-38 18.5 -59.5 40 q-21.5 21.5 -48.5 40 q-27 18.5 -51 18.5 q-36 0 -52.5 -31.5 q-16.5 -31.5 -18.5 -70.5 l-118 0 q0 88 47.5 152.5 q47.5 64.5 134.5 64.5 q44 0 82.5 -18.5 q38.5 -18.5 61.5 -40 q23 -21.5 51 -40 q28 -18.5 52 -18.5 q36 0 55 30.5 q19 30.5 20 70.5 l118 0 q0 -88 -51.5 -152 q-51.5 -64 -140.5 -64 Z" /><glyph glyph-name="utilde" unicode="&#x169;" d="M1046 1056 l0 -1056 l-199 0 l0 176 l-11 0 q-26 -76 -106 -134.5 q-80 -58.5 -206 -58.5 q-167 0 -263 85 q-96 85 -96 263 l0 725 l202 0 l0 -668 q0 -118 60.5 -169 q60.5 -51 159.5 -51 q109 0 183.5 68 q74.5 68 74.5 168 l0 652 l201 0 ZM735 1218 q-38 0 -68.5 14.5 q-30.5 14.5 -50 35 q-19.5 20.5 -37 41.5 q-17.5 21 -38 35.5 q-20.5 14.5 -43.5 14.5 q-39 0 -54 -33.5 q-15 -33.5 -19 -90.5 l-125 0 q0 112 49.5 185 q49.5 73 143.5 73 q40 0 72.5 -14.5 q32.5 -14.5 53 -35.5 q20.5 -21 37.5 -41.5 q17 -20.5 36 -35 q19 -14.5 39 -14.5 q62 0 70 124 l125 0 q0 -68 -19.5 -125 q-19.5 -57 -64 -95 q-44.5 -38 -107.5 -38 Z" /><glyph glyph-name="Umacron" unicode="&#x16a;" d="M374 1365 l0 -877 q0 -150 87.5 -236.5 q87.5 -86.5 235.5 -86.5 q148 0 235.5 86.5 q87.5 86.5 87.5 236.5 l0 877 l206 0 l0 -891 q0 -226 -145.5 -364 q-145.5 -138 -383.5 -138 q-238 0 -383.5 139 q-145.5 139 -145.5 366 l0 888 l206 0 ZM996 1507 l-598 0 l0 120 l598 0 l0 -120 Z" /><glyph glyph-name="umacron" unicode="&#x16b;" d="M1046 1056 l0 -1056 l-199 0 l0 176 l-11 0 q-26 -76 -106 -134.5 q-80 -58.5 -206 -58.5 q-167 0 -263 85 q-96 85 -96 263 l0 725 l202 0 l0 -668 q0 -118 60.5 -169 q60.5 -51 159.5 -51 q109 0 183.5 68 q74.5 68 74.5 168 l0 652 l201 0 ZM912 1246 l-605 0 l0 127 l605 0 l0 -127 Z" /><glyph glyph-name="Ubreve" unicode="&#x16c;" d="M374 1365 l0 -877 q0 -150 87.5 -236.5 q87.5 -86.5 235.5 -86.5 q148 0 235.5 86.5 q87.5 86.5 87.5 236.5 l0 877 l206 0 l0 -891 q0 -226 -145.5 -364 q-145.5 -138 -383.5 -138 q-238 0 -383.5 139 q-145.5 139 -145.5 366 l0 888 l206 0 ZM370 1755 l134 0 q0 -72 49 -114.5 q49 -42.5 144 -42.5 q95 0 144 42.5 q49 42.5 49 114.5 l133 0 q0 -122 -84.5 -199 q-84.5 -77 -241.5 -77 q-158 0 -242.5 77 q-84.5 77 -84.5 199 Z" /><glyph glyph-name="ubreve" unicode="&#x16d;" d="M1046 1056 l0 -1056 l-199 0 l0 176 l-11 0 q-26 -76 -106 -134.5 q-80 -58.5 -206 -58.5 q-167 0 -263 85 q-96 85 -96 263 l0 725 l202 0 l0 -668 q0 -118 60.5 -169 q60.5 -51 159.5 -51 q109 0 183.5 68 q74.5 68 74.5 168 l0 652 l201 0 ZM311 1506 l132 0 q0 -69 42 -116.5 q42 -47.5 124 -47.5 q82 0 124.5 47.5 q42.5 47.5 42.5 116.5 l130 0 q0 -54 -18 -104 q-18 -50 -52.5 -92 q-34.5 -42 -93.5 -67.5 q-59 -25.5 -133 -25.5 q-74 0 -133 25.5 q-59 25.5 -94 67.5 q-35 42 -53 92 q-18 50 -18 104 Z" /><glyph glyph-name="Uring" unicode="&#x16e;" d="M698 1477 q-84 0 -141 56.5 q-57 56.5 -57 140.5 q0 84 57 139.5 q57 55.5 141 55.5 q83 0 140 -55.5 q57 -55.5 57 -139.5 q0 -84 -57 -140.5 q-57 -56.5 -140 -56.5 ZM598 1673 q0 -41 28.5 -70 q28.5 -29 70.5 -29 q42 0 70.5 28.5 q28.5 28.5 28.5 70.5 q0 42 -28 70.5 q-28 28.5 -71 28.5 q-42 0 -70.5 -28.5 q-28.5 -28.5 -28.5 -70.5 ZM374 1365 l0 -877 q0 -150 87.5 -236.5 q87.5 -86.5 235.5 -86.5 q148 0 235.5 86.5 q87.5 86.5 87.5 236.5 l0 877 l206 0 l0 -891 q0 -226 -145.5 -364 q-145.5 -138 -383.5 -138 q-238 0 -383.5 139 q-145.5 139 -145.5 366 l0 888 l206 0 Z" /><glyph glyph-name="uring" unicode="&#x16f;" d="M1046 1056 l0 -1056 l-199 0 l0 176 l-11 0 q-26 -76 -106 -134.5 q-80 -58.5 -206 -58.5 q-167 0 -263 85 q-96 85 -96 263 l0 725 l202 0 l0 -668 q0 -118 60.5 -169 q60.5 -51 159.5 -51 q109 0 183.5 68 q74.5 68 74.5 168 l0 652 l201 0 ZM610 1224 q-84 0 -141 56.5 q-57 56.5 -57 140.5 q0 84 57 139.5 q57 55.5 141 55.5 q83 0 140 -55.5 q57 -55.5 57 -139.5 q0 -84 -57 -140.5 q-57 -56.5 -140 -56.5 ZM510 1420 q0 -41 28.5 -70 q28.5 -29 70.5 -29 q42 0 70.5 28.5 q28.5 28.5 28.5 70.5 q0 42 -28 70.5 q-28 28.5 -71 28.5 q-42 0 -70.5 -28.5 q-28.5 -28.5 -28.5 -70.5 Z" /><glyph glyph-name="Uhungarumlaut" unicode="&#x170;" d="M374 1365 l0 -877 q0 -150 87.5 -236.5 q87.5 -86.5 235.5 -86.5 q148 0 235.5 86.5 q87.5 86.5 87.5 236.5 l0 877 l206 0 l0 -891 q0 -226 -145.5 -364 q-145.5 -138 -383.5 -138 q-238 0 -383.5 139 q-145.5 139 -145.5 366 l0 888 l206 0 ZM431 1509 l248 329 l188 0 l-290 -329 l-146 0 ZM772 1509 l248 329 l188 0 l-290 -329 l-146 0 Z" /><glyph glyph-name="uhungarumlaut" unicode="&#x171;" d="M490 1228 l-143 0 l244 362 l189 0 l-290 -362 ZM823 1228 l-142 0 l245 362 l188 0 l-291 -362 ZM1046 1056 l0 -1056 l-199 0 l0 176 l-11 0 q-26 -76 -106 -134.5 q-80 -58.5 -206 -58.5 q-167 0 -263 85 q-96 85 -96 263 l0 725 l202 0 l0 -668 q0 -118 60.5 -169 q60.5 -51 159.5 -51 q109 0 183.5 68 q74.5 68 74.5 168 l0 652 l201 0 Z" /><glyph glyph-name="Uogonek" unicode="&#x172;" d="M995 -387 q-97 0 -164 52 q-67 52 -67 146 q0 118 97 194 l-4 6 q-82 -39 -172 -39 q-226 0 -371.5 140 q-145.5 140 -145.5 365 l0 888 l206 0 l0 -877 q0 -150 87.5 -236.5 q87.5 -86.5 235.5 -86.5 q148 0 235.5 86.5 q87.5 86.5 87.5 236.5 l0 877 l206 0 l0 -891 q0 -228 -151 -388 q-15 -16 -43.5 -44.5 q-28.5 -28.5 -43 -44.5 q-14.5 -16 -32 -40 q-17.5 -24 -25.5 -47.5 q-8 -23.5 -8 -49.5 q0 -52 32 -76.5 q32 -24.5 85 -24.5 q42 0 75 10 l0 -136 q-49 -20 -120 -20 Z" /><glyph glyph-name="uogonek" unicode="&#x173;" d="M1059 -367 q-49 -20 -129 -20 q-95 0 -161 49.5 q-66 49.5 -66 146.5 q0 34 11 65.5 q11 31.5 23.5 52 q12.5 20.5 37.5 44.5 q25 24 37.5 33.5 q12.5 9.5 38.5 29.5 l0 142 l-11 0 q-26 -76 -106.5 -134.5 q-80.5 -58.5 -208.5 -58.5 q-166 0 -263 85.5 q-97 85.5 -97 262.5 l0 725 l202 0 l0 -670 q0 -118 60.5 -169 q60.5 -51 158.5 -51 q109 0 184 68 q75 68 75 168 l0 654 l201 0 l0 -1029 q-73 -29 -127 -75 q-54 -46 -54 -102 q0 -44 31.5 -67.5 q31.5 -23.5 82.5 -23.5 q47 0 80 9 l0 -135 Z" /><glyph glyph-name="Wcircumflex" unicode="&#x174;" d="M944 1743 l268 -246 l-185 0 l-148 135 l-7 0 l-157 -135 l-181 0 l278 246 l132 0 ZM595 0 l-187 0 l-370 1365 l232 0 l237 -1045 l10 0 l260 1045 l198 0 l258 -1045 l11 0 l237 1045 l232 0 l-371 -1365 l-188 0 l-274 1018 l-10 0 l-275 -1018 Z" /><glyph glyph-name="wcircumflex" unicode="&#x175;" d="M456 1222 l249 368 l137 0 l249 -368 l-166 0 l-148 238 l-7 0 l-148 -238 l-166 0 ZM1492 1056 l-279 -1056 l-203 0 l-229 783 l-6 0 l-223 -783 l-205 0 l-292 1056 l220 0 l178 -808 l8 0 l222 808 l190 0 l227 -808 l9 0 l181 808 l202 0 Z" /><glyph glyph-name="Ycircumflex" unicode="&#x176;" d="M684 0 l-206 0 l0 554 l-456 811 l232 0 l323 -592 l10 0 l325 592 l228 0 l-456 -808 l0 -557 ZM649 1743 l268 -246 l-185 0 l-148 135 l-7 0 l-157 -135 l-181 0 l278 246 l132 0 Z" /><glyph glyph-name="ycircumflex" unicode="&#x177;" d="M1035 1056 q-364 -1038 -366 -1044 l-27 -73 q-21 -58 -41 -100.5 q-20 -42.5 -51.5 -86.5 q-31.5 -44 -69.5 -71 q-38 -27 -93.5 -44.5 q-55.5 -17.5 -124.5 -17.5 q-66 0 -120 10 l0 165 q25 -6 81 -6 q91 0 136 38.5 q45 38.5 66 117.5 l14 47 l-381 1065 l223 0 l265 -857 l9 0 l266 857 l214 0 ZM236 1222 l249 368 l137 0 l249 -368 l-166 0 l-148 238 l-7 0 l-148 -238 l-166 0 Z" /><glyph glyph-name="Ydieresis" unicode="&#x178;" d="M684 0 l-206 0 l0 554 l-456 811 l232 0 l323 -592 l10 0 l325 592 l228 0 l-456 -808 l0 -557 ZM760 1473 q-47 0 -78.5 30.5 q-31.5 30.5 -31.5 76.5 q0 48 31 78 q31 30 79 30 q50 0 81.5 -30 q31.5 -30 31.5 -78 q0 -47 -31.5 -77 q-31.5 -30 -81.5 -30 ZM397 1473 q-47 0 -78.5 30.5 q-31.5 30.5 -31.5 76.5 q0 48 31 78 q31 30 79 30 q50 0 81 -30 q31 -30 31 -78 q0 -47 -31.5 -77 q-31.5 -30 -80.5 -30 Z" /><glyph glyph-name="Zacute" unicode="&#x179;" d="M511 1509 l238 345 l190 0 l-280 -345 l-148 0 ZM110 0 l0 149 l707 1016 l0 12 l-684 0 l0 188 l937 0 l0 -149 l-703 -1016 l0 -12 l721 0 l0 -188 l-978 0 Z" /><glyph glyph-name="zacute" unicode="&#x17a;" d="M421 1226 l239 354 l192 0 l-279 -354 l-152 0 ZM119 0 l0 133 l544 734 l0 11 l-544 0 l0 178 l792 0 l0 -141 l-538 -726 l0 -11 l545 0 l0 -178 l-799 0 Z" /><glyph glyph-name="Zdotaccent" unicode="&#x17b;" d="M492 1604 q0 50 32.5 83.5 q32.5 33.5 78.5 33.5 q49 0 82 -33.5 q33 -33.5 33 -83.5 q0 -49 -33 -82.5 q-33 -33.5 -82 -33.5 q-46 0 -78.5 33.5 q-32.5 33.5 -32.5 82.5 ZM110 0 l0 149 l707 1016 l0 12 l-684 0 l0 188 l937 0 l0 -149 l-703 -1016 l0 -12 l721 0 l0 -188 l-978 0 Z" /><glyph glyph-name="zdotaccent" unicode="&#x17c;" d="M402 1364 q0 50 32.5 83.5 q32.5 33.5 78.5 33.5 q49 0 82 -33.5 q33 -33.5 33 -83.5 q0 -49 -33 -82.5 q-33 -33.5 -82 -33.5 q-46 0 -78.5 33.5 q-32.5 33.5 -32.5 82.5 ZM119 0 l0 133 l544 734 l0 11 l-544 0 l0 178 l792 0 l0 -141 l-538 -726 l0 -11 l545 0 l0 -178 l-799 0 Z" /><glyph glyph-name="Zcaron" unicode="&#x17d;" d="M110 0 l0 149 l707 1016 l0 12 l-684 0 l0 188 l937 0 l0 -149 l-703 -1016 l0 -12 l721 0 l0 -188 l-978 0 ZM260 1717 l190 0 l152 -120 l8 0 l139 120 l194 0 l-237 -214 l-194 0 l-252 214 Z" /><glyph glyph-name="zcaron" unicode="&#x17e;" d="M198 1587 l166 0 l149 -245 l6 0 l141 245 l166 0 l-239 -368 l-138 0 l-251 368 ZM119 0 l0 133 l544 734 l0 11 l-544 0 l0 178 l792 0 l0 -141 l-538 -726 l0 -11 l545 0 l0 -178 l-799 0 Z" /><glyph glyph-name="florin" unicode="&#x192;" d="M168 -186 l168 907 l-208 0 l29 176 l209 0 l30 174 q53 321 379 321 q86 0 148.5 -27 q62.5 -27 94.5 -71 q32 -44 45 -91.5 q13 -47.5 10 -96.5 l-187 0 q2 52 -33.5 83.5 q-35.5 31.5 -90.5 31.5 q-130 0 -158 -163 l-28 -161 l294 0 l-29 -176 l-294 0 l-168 -907 l-211 0 Z" /><glyph glyph-name="Ohorn" unicode="&#x1a0;" d="M1248 583 q0 -287 -151.5 -449 q-151.5 -162 -410.5 -162 q-258 0 -407 161.5 q-149 161.5 -149 449.5 l0 188 q0 289 151 455 q151 166 409 166 q83 0 158 -21 q75 -21 136 -41.5 q61 -20.5 110 -20.5 q78 0 107 38.5 q29 38.5 29 110.5 l0 104 l172 0 l0 -118 q0 -135 -66.5 -208.5 q-66.5 -73.5 -190.5 -73.5 l-4 -5 q44 -65 75.5 -170 q31.5 -105 31.5 -216 l0 -188 ZM338 772 l0 -191 q0 -206 96.5 -312 q96.5 -106 253.5 -106 q158 0 255 106 q97 106 97 312 l0 191 q0 207 -97.5 318.5 q-97.5 111.5 -254.5 111.5 q-156 0 -253 -111.5 q-97 -111.5 -97 -318.5 Z" /><glyph glyph-name="ohorn" unicode="&#x1a1;" d="M585 -18 q-209 0 -336 126 q-127 126 -127 352 l0 139 q0 214 129.5 344.5 q129.5 130.5 333.5 130.5 q60 0 140.5 -20.5 q80.5 -20.5 134.5 -20.5 q71 0 99 35.5 q28 35.5 28 107.5 l0 156 l172 0 l0 -162 q0 -259 -206 -275 l0 -9 q38 -52 66 -129 q28 -77 28 -158 l0 -139 q0 -224 -128 -351 q-128 -127 -334 -127 ZM775 812 q-69 87 -189 87 q-120 0 -190.5 -87 q-70.5 -87 -70.5 -224 l0 -119 q0 -139 68.5 -224.5 q68.5 -85.5 192.5 -85.5 q123 0 190.5 85.5 q67.5 85.5 67.5 224.5 l0 119 q0 137 -69 224 Z" /><glyph glyph-name="Uhorn" unicode="&#x1af;" d="M1080.5 110.5 q-145.5 -137.5 -383.5 -137.5 q-238 0 -383.5 139 q-145.5 139 -145.5 365 l0 888 l206 0 l0 -877 q0 -150 87 -236 q87 -86 236 -86 q148 0 235.5 86.5 q87.5 86.5 87.5 235.5 l0 877 l207 0 q71 0 99 36.5 q28 36.5 28 106.5 l0 111 l170 0 l0 -126 q0 -126 -63.5 -204 q-63.5 -78 -188.5 -78 l-46 0 l0 -737 q0 -226 -145.5 -363.5 Z" /><glyph glyph-name="uhorn" unicode="&#x1b0;" d="M836 176 q-26 -76 -106 -134.5 q-80 -58.5 -206 -58.5 q-167 0 -263 85 q-96 85 -96 263 l0 725 l202 0 l0 -670 q0 -118 60.5 -169 q60.5 -51 159.5 -51 q109 0 183.5 68 q74.5 68 74.5 168 l0 654 l181 0 q70 0 96.5 36 q26.5 36 26.5 106 l0 134 l172 0 l0 -148 q0 -126 -63.5 -203.5 q-63.5 -77.5 -190.5 -77.5 l-21 0 l0 -903 l-199 0 l0 176 l-11 0 Z" /><glyph glyph-name="Acaron" unicode="&#x1cd;" d="M257 0 l-208 0 l476 1365 l223 0 l475 -1365 l-220 0 l-128 381 l-490 0 l-128 -381 ZM635 1132 l-8 0 l-192 -581 l392 0 l-192 581 ZM291 1717 l190 0 l152 -120 l8 0 l139 120 l194 0 l-237 -214 l-194 0 l-252 214 Z" /><glyph glyph-name="acaron" unicode="&#x1ce;" d="M459 -17 q-154 0 -249.5 88.5 q-95.5 88.5 -95.5 235.5 q0 143 97 227.5 q97 84.5 275 84.5 l271 0 l0 100 q0 90 -55 135 q-55 45 -154 45 q-168 0 -201 -120 l-193 0 q11 135 114 214 q103 79 286 79 q87 0 157.5 -19 q70.5 -19 127.5 -59.5 q57 -40.5 88.5 -111 q31.5 -70.5 31.5 -166.5 l0 -716 l-193 0 l0 137 l-9 0 q-41 -68 -115 -111 q-74 -43 -183 -43 ZM519 153 q101 0 169.5 58.5 q68.5 58.5 68.5 146.5 l0 114 l-246 0 q-97 0 -145 -42 q-48 -42 -48 -112 q0 -80 58 -122.5 q58 -42.5 143 -42.5 ZM246 1587 l166 0 l149 -245 l6 0 l141 245 l166 0 l-239 -368 l-138 0 l-251 368 Z" /><glyph glyph-name="Icaron" unicode="&#x1cf;" d="M390 0 l-206 0 l0 1365 l206 0 l0 -1365 ZM-57 1717 l190 0 l152 -120 l8 0 l139 120 l194 0 l-237 -214 l-194 0 l-252 214 Z" /><glyph glyph-name="icaron" unicode="&#x1d0;" d="M-17 1587 l166 0 l149 -245 l6 0 l141 245 l166 0 l-239 -368 l-138 0 l-251 368 ZM196 0 l0 1056 l202 0 l0 -1056 l-202 0 Z" /><glyph glyph-name="Ocaron" unicode="&#x1d1;" d="M344 1717 l190 0 l152 -120 l8 0 l139 120 l194 0 l-237 -214 l-194 0 l-252 214 ZM338 772 l0 -190 q0 -206 96.5 -312.5 q96.5 -106.5 253.5 -106.5 q158 0 255 106.5 q97 106.5 97 312.5 l0 190 q0 207 -97.5 318.5 q-97.5 111.5 -254.5 111.5 q-156 0 -253 -111.5 q-97 -111.5 -97 -318.5 ZM130 583 l0 188 q0 289 151 455 q151 166 409 166 q258 0 408 -166 q150 -166 150 -455 l0 -188 q0 -287 -151.5 -449 q-151.5 -162 -410.5 -162 q-258 0 -407 161.5 q-149 161.5 -149 449.5 Z" /><glyph glyph-name="ocaron" unicode="&#x1d2;" d="M267 1587 l166 0 l149 -245 l6 0 l141 245 l166 0 l-239 -368 l-138 0 l-251 368 ZM585 1074 q205 0 333.5 -128 q128.5 -128 128.5 -347 l0 -139 q0 -224 -128 -351 q-128 -127 -334 -127 q-209 0 -336 126 q-127 126 -127 352 l0 139 q0 214 129.5 344.5 q129.5 130.5 333.5 130.5 ZM775 811.5 q-69 86.5 -189 86.5 q-120 0 -190.5 -87 q-70.5 -87 -70.5 -223 l0 -120 q0 -138 68.5 -224 q68.5 -86 192.5 -86 q123 0 190.5 85.5 q67.5 85.5 67.5 224.5 l0 120 q0 137 -69 223.5 Z" /><glyph glyph-name="Ucaron" unicode="&#x1d3;" d="M352 1717 l190 0 l152 -120 l8 0 l139 120 l194 0 l-237 -214 l-194 0 l-252 214 ZM374 1365 l0 -877 q0 -150 87.5 -236.5 q87.5 -86.5 235.5 -86.5 q148 0 235.5 86.5 q87.5 86.5 87.5 236.5 l0 877 l206 0 l0 -891 q0 -226 -145.5 -364 q-145.5 -138 -383.5 -138 q-238 0 -383.5 139 q-145.5 139 -145.5 366 l0 888 l206 0 Z" /><glyph glyph-name="ucaron" unicode="&#x1d4;" d="M292 1587 l166 0 l149 -245 l6 0 l141 245 l166 0 l-239 -368 l-138 0 l-251 368 ZM1046 1056 l0 -1056 l-199 0 l0 176 l-11 0 q-26 -76 -106 -134.5 q-80 -58.5 -206 -58.5 q-167 0 -263 85 q-96 85 -96 263 l0 725 l202 0 l0 -668 q0 -118 60.5 -169 q60.5 -51 159.5 -51 q109 0 183.5 68 q74.5 68 74.5 168 l0 652 l201 0 Z" /><glyph glyph-name="Udieresismacron" unicode="&#x1d5;" d="M374 1365 l0 -877 q0 -150 87.5 -236.5 q87.5 -86.5 235.5 -86.5 q148 0 235.5 86.5 q87.5 86.5 87.5 236.5 l0 877 l206 0 l0 -891 q0 -226 -145.5 -364 q-145.5 -138 -383.5 -138 q-238 0 -383.5 139 q-145.5 139 -145.5 366 l0 888 l206 0 ZM877 1473 q-47 0 -78.5 30.5 q-31.5 30.5 -31.5 76.5 q0 48 31 78 q31 30 79 30 q50 0 81.5 -30 q31.5 -30 31.5 -78 q0 -47 -31.5 -77 q-31.5 -30 -81.5 -30 ZM514 1473 q-47 0 -78.5 30.5 q-31.5 30.5 -31.5 76.5 q0 48 31 78 q31 30 79 30 q50 0 81 -30 q31 -30 31 -78 q0 -47 -31.5 -77 q-31.5 -30 -80.5 -30 ZM996 1781 l-598 0 l0 120 l598 0 l0 -120 Z" /><glyph glyph-name="udieresismacron" unicode="&#x1d6;" d="M1046 1056 l0 -1056 l-199 0 l0 176 l-11 0 q-26 -76 -106 -134.5 q-80 -58.5 -206 -58.5 q-167 0 -263 85 q-96 85 -96 263 l0 725 l202 0 l0 -668 q0 -118 60.5 -169 q60.5 -51 159.5 -51 q109 0 183.5 68 q74.5 68 74.5 168 l0 652 l201 0 ZM794 1218 q-47 0 -79.5 32 q-32.5 32 -32.5 80 q0 49 32.5 81 q32.5 32 79.5 32 q52 0 85.5 -32 q33.5 -32 33.5 -81 q0 -48 -33.5 -80 q-33.5 -32 -85.5 -32 ZM421 1218 q-49 0 -82 32 q-33 32 -33 80 q0 49 32.5 81 q32.5 32 82.5 32 q50 0 83 -32 q33 -32 33 -81 q0 -48 -33 -80 q-33 -32 -83 -32 ZM912 1596 l-605 0 l0 127 l605 0 l0 -127 Z" /><glyph glyph-name="Udieresisacute" unicode="&#x1d7;" d="M603 1739 l233 195 l208 0 l-275 -195 l-166 0 ZM877 1473 q-47 0 -78.5 30.5 q-31.5 30.5 -31.5 76.5 q0 48 31 78 q31 30 79 30 q50 0 81.5 -30 q31.5 -30 31.5 -78 q0 -47 -31.5 -77 q-31.5 -30 -81.5 -30 ZM514 1473 q-47 0 -78.5 30.5 q-31.5 30.5 -31.5 76.5 q0 48 31 78 q31 30 79 30 q50 0 81 -30 q31 -30 31 -78 q0 -47 -31.5 -77 q-31.5 -30 -80.5 -30 ZM374 1365 l0 -877 q0 -150 87.5 -236.5 q87.5 -86.5 235.5 -86.5 q148 0 235.5 86.5 q87.5 86.5 87.5 236.5 l0 877 l206 0 l0 -891 q0 -226 -145.5 -364 q-145.5 -138 -383.5 -138 q-238 0 -383.5 139 q-145.5 139 -145.5 366 l0 888 l206 0 Z" /><glyph glyph-name="udieresisacute" unicode="&#x1d8;" d="M518 1546 l239 354 l192 0 l-279 -354 l-152 0 ZM794 1218 q-47 0 -79.5 32 q-32.5 32 -32.5 80 q0 49 32.5 81 q32.5 32 79.5 32 q52 0 85.5 -32 q33.5 -32 33.5 -81 q0 -48 -33.5 -80 q-33.5 -32 -85.5 -32 ZM421 1218 q-49 0 -82 32 q-33 32 -33 80 q0 49 32.5 81 q32.5 32 82.5 32 q50 0 83 -32 q33 -32 33 -81 q0 -48 -33 -80 q-33 -32 -83 -32 ZM1046 1056 l0 -1056 l-199 0 l0 176 l-11 0 q-26 -76 -106 -134.5 q-80 -58.5 -206 -58.5 q-167 0 -263 85 q-96 85 -96 263 l0 725 l202 0 l0 -668 q0 -118 60.5 -169 q60.5 -51 159.5 -51 q109 0 183.5 68 q74.5 68 74.5 168 l0 652 l201 0 Z" /><glyph glyph-name="Udieresiscaron" unicode="&#x1d9;" d="M516 1475 q-45 0 -75.5 30 q-30.5 30 -30.5 76 q0 46 30.5 76.5 q30.5 30.5 75.5 30.5 q47 0 79 -30.5 q32 -30.5 32 -76.5 q0 -46 -32 -76 q-32 -30 -79 -30 ZM874 1475 q-45 0 -76 30.5 q-31 30.5 -31 75.5 q0 46 31 76.5 q31 30.5 76 30.5 q48 0 79.5 -30.5 q31.5 -30.5 31.5 -76.5 q0 -46 -31.5 -76 q-31.5 -30 -79.5 -30 ZM362 1926 l186 0 l147 -108 l4 0 l147 108 l186 0 l-279 -202 l-112 0 l-279 202 ZM374 1365 l0 -877 q0 -150 87.5 -236.5 q87.5 -86.5 235.5 -86.5 q148 0 235.5 86.5 q87.5 86.5 87.5 236.5 l0 877 l206 0 l0 -891 q0 -226 -145.5 -364 q-145.5 -138 -383.5 -138 q-238 0 -383.5 139 q-145.5 139 -145.5 366 l0 888 l206 0 Z" /><glyph glyph-name="udieresiscaron" unicode="&#x1da;" d="M292 1910 l166 0 l149 -245 l6 0 l141 245 l166 0 l-239 -368 l-138 0 l-251 368 ZM794 1218 q-47 0 -79.5 32 q-32.5 32 -32.5 80 q0 49 32.5 81 q32.5 32 79.5 32 q52 0 85.5 -32 q33.5 -32 33.5 -81 q0 -48 -33.5 -80 q-33.5 -32 -85.5 -32 ZM421 1218 q-49 0 -82 32 q-33 32 -33 80 q0 49 32.5 81 q32.5 32 82.5 32 q50 0 83 -32 q33 -32 33 -81 q0 -48 -33 -80 q-33 -32 -83 -32 ZM1046 1056 l0 -1056 l-199 0 l0 176 l-11 0 q-26 -76 -106 -134.5 q-80 -58.5 -206 -58.5 q-167 0 -263 85 q-96 85 -96 263 l0 725 l202 0 l0 -668 q0 -118 60.5 -169 q60.5 -51 159.5 -51 q109 0 183.5 68 q74.5 68 74.5 168 l0 652 l201 0 Z" /><glyph glyph-name="Udieresisgrave" unicode="&#x1db;" d="M791 1739 l-166 0 l-275 195 l208 0 l233 -195 ZM877 1473 q-47 0 -78.5 30.5 q-31.5 30.5 -31.5 76.5 q0 48 31 78 q31 30 79 30 q50 0 81.5 -30 q31.5 -30 31.5 -78 q0 -47 -31.5 -77 q-31.5 -30 -81.5 -30 ZM514 1473 q-47 0 -78.5 30.5 q-31.5 30.5 -31.5 76.5 q0 48 31 78 q31 30 79 30 q50 0 81 -30 q31 -30 31 -78 q0 -47 -31.5 -77 q-31.5 -30 -80.5 -30 ZM374 1365 l0 -877 q0 -150 87.5 -236.5 q87.5 -86.5 235.5 -86.5 q148 0 235.5 86.5 q87.5 86.5 87.5 236.5 l0 877 l206 0 l0 -891 q0 -226 -145.5 -364 q-145.5 -138 -383.5 -138 q-238 0 -383.5 139 q-145.5 139 -145.5 366 l0 888 l206 0 Z" /><glyph glyph-name="udieresisgrave" unicode="&#x1dc;" d="M706 1546 l-151 0 l-279 354 l192 0 l238 -354 ZM794 1218 q-47 0 -79.5 32 q-32.5 32 -32.5 80 q0 49 32.5 81 q32.5 32 79.5 32 q52 0 85.5 -32 q33.5 -32 33.5 -81 q0 -48 -33.5 -80 q-33.5 -32 -85.5 -32 ZM421 1218 q-49 0 -82 32 q-33 32 -33 80 q0 49 32.5 81 q32.5 32 82.5 32 q50 0 83 -32 q33 -32 33 -81 q0 -48 -33 -80 q-33 -32 -83 -32 ZM1046 1056 l0 -1056 l-199 0 l0 176 l-11 0 q-26 -76 -106 -134.5 q-80 -58.5 -206 -58.5 q-167 0 -263 85 q-96 85 -96 263 l0 725 l202 0 l0 -668 q0 -118 60.5 -169 q60.5 -51 159.5 -51 q109 0 183.5 68 q74.5 68 74.5 168 l0 652 l201 0 Z" /><glyph glyph-name="Adieresismacron" unicode="&#x1de;" d="M257 0 l-208 0 l476 1365 l223 0 l475 -1365 l-220 0 l-128 381 l-490 0 l-128 -381 ZM635 1132 l-8 0 l-192 -581 l392 0 l-192 581 ZM816 1473 q-47 0 -78.5 30.5 q-31.5 30.5 -31.5 76.5 q0 48 31 78 q31 30 79 30 q50 0 81.5 -30 q31.5 -30 31.5 -78 q0 -47 -31.5 -77 q-31.5 -30 -81.5 -30 ZM453 1473 q-47 0 -78.5 30.5 q-31.5 30.5 -31.5 76.5 q0 48 31 78 q31 30 79 30 q50 0 81 -30 q31 -30 31 -78 q0 -47 -31.5 -77 q-31.5 -30 -80.5 -30 ZM935 1781 l-598 0 l0 120 l598 0 l0 -120 Z" /><glyph glyph-name="adieresismacron" unicode="&#x1df;" d="M459 -17 q-154 0 -249.5 88.5 q-95.5 88.5 -95.5 235.5 q0 143 97 227.5 q97 84.5 275 84.5 l271 0 l0 100 q0 90 -55 135 q-55 45 -154 45 q-168 0 -201 -120 l-193 0 q11 135 114 214 q103 79 286 79 q87 0 157.5 -19 q70.5 -19 127.5 -59.5 q57 -40.5 88.5 -111 q31.5 -70.5 31.5 -166.5 l0 -716 l-193 0 l0 137 l-9 0 q-41 -68 -115 -111 q-74 -43 -183 -43 ZM519 153 q101 0 169.5 58.5 q68.5 58.5 68.5 146.5 l0 114 l-246 0 q-97 0 -145 -42 q-48 -42 -48 -112 q0 -80 58 -122.5 q58 -42.5 143 -42.5 ZM748 1218 q-47 0 -79.5 32 q-32.5 32 -32.5 80 q0 49 32.5 81 q32.5 32 79.5 32 q52 0 85.5 -32 q33.5 -32 33.5 -81 q0 -48 -33.5 -80 q-33.5 -32 -85.5 -32 ZM375 1218 q-49 0 -82 32 q-33 32 -33 80 q0 49 32.5 81 q32.5 32 82.5 32 q50 0 83 -32 q33 -32 33 -81 q0 -48 -33 -80 q-33 -32 -83 -32 ZM866 1596 l-605 0 l0 127 l605 0 l0 -127 Z" /><glyph glyph-name="Adotmacron" unicode="&#x1e0;" d="M257 0 l-208 0 l476 1365 l223 0 l475 -1365 l-220 0 l-128 381 l-490 0 l-128 -381 ZM635 1132 l-8 0 l-192 -581 l392 0 l-192 581 ZM525 1581 q0 48 32 80.5 q32 32.5 77 32.5 q48 0 80.5 -32 q32.5 -32 32.5 -81 q0 -47 -32.5 -78.5 q-32.5 -31.5 -80.5 -31.5 q-45 0 -77 31.5 q-32 31.5 -32 78.5 ZM935 1773 l-598 0 l0 120 l598 0 l0 -120 Z" /><glyph glyph-name="adotmacron" unicode="&#x1e1;" d="M459 -17 q-154 0 -249.5 88.5 q-95.5 88.5 -95.5 235.5 q0 143 97 227.5 q97 84.5 275 84.5 l271 0 l0 100 q0 90 -55 135 q-55 45 -154 45 q-168 0 -201 -120 l-193 0 q11 135 114 214 q103 79 286 79 q87 0 157.5 -19 q70.5 -19 127.5 -59.5 q57 -40.5 88.5 -111 q31.5 -70.5 31.5 -166.5 l0 -716 l-193 0 l0 137 l-9 0 q-41 -68 -115 -111 q-74 -43 -183 -43 ZM519 153 q101 0 169.5 58.5 q68.5 58.5 68.5 146.5 l0 114 l-246 0 q-97 0 -145 -42 q-48 -42 -48 -112 q0 -80 58 -122.5 q58 -42.5 143 -42.5 ZM449 1345 q0 50 32.5 83.5 q32.5 33.5 78.5 33.5 q49 0 82 -33.5 q33 -33.5 33 -83.5 q0 -49 -33 -82.5 q-33 -33.5 -82 -33.5 q-46 0 -78.5 33.5 q-32.5 33.5 -32.5 82.5 ZM866 1596 l-605 0 l0 127 l605 0 l0 -127 Z" /><glyph glyph-name="AEmacron" unicode="&#x1e2;" d="M877 1178 l-323 -629 l394 1 l0 628 l-71 0 ZM948 375 l-473 0 l-206 -375 l-230 0 l719 1365 l1021 0 l0 -187 l-626 0 l0 -394 l590 0 l0 -180 l-590 0 l0 -416 l626 0 l0 -188 l-831 0 l0 375 ZM1667 1507 l-598 0 l0 120 l598 0 l0 -120 Z" /><glyph glyph-name="aemacron" unicode="&#x1e3;" d="M1224 -18 q-149 0 -247.5 56.5 q-98.5 56.5 -135.5 144.5 l-14 0 q-42 -85 -132.5 -143 q-90.5 -58 -223.5 -58 q-162 0 -260.5 86.5 q-98.5 86.5 -98.5 235.5 q0 146 99 230.5 q99 84.5 280 84.5 l268 0 l0 100 q0 90 -55 134 q-55 44 -154 44 q-174 0 -206 -118 l-193 0 q11 135 116.5 214.5 q105.5 79.5 289.5 79.5 q106 0 192.5 -34.5 q86.5 -34.5 129.5 -100.5 l14 0 q45 64 130.5 99.5 q85.5 35.5 187.5 35.5 q197 0 317 -128 q120 -128 120 -344 l0 -125 l-681 0 l0 -74 q0 -107 70 -175.5 q70 -68.5 186 -68.5 q86 0 141.5 34.5 q55.5 34.5 68.5 85.5 l202 0 q-6 -49 -32.5 -98 q-26.5 -49 -74 -95 q-47.5 -46 -127 -74.5 q-79.5 -28.5 -177.5 -28.5 ZM1212 903 q-106 0 -175.5 -71.5 q-69.5 -71.5 -69.5 -182.5 l0 -30 l482 0 l0 21 q0 121 -63.5 192 q-63.5 71 -173.5 71 ZM520 151 q101 0 170 59 q69 59 69 146 l0 116 l-243 0 q-99 0 -151 -42.5 q-52 -42.5 -52 -111.5 q0 -80 61 -123.5 q61 -43.5 146 -43.5 ZM1187 1246 l-605 0 l0 127 l605 0 l0 -127 Z" /><glyph glyph-name="Gcaron" unicode="&#x1e6;" d="M340 1717 l190 0 l152 -120 l8 0 l139 120 l194 0 l-237 -214 l-194 0 l-252 214 ZM1203 939 l-202 0 q-17 127 -104.5 194.5 q-87.5 67.5 -211.5 67.5 q-155 0 -251.5 -106.5 q-96.5 -106.5 -96.5 -319.5 l0 -178 q0 -203 87.5 -318.5 q87.5 -115.5 258.5 -115.5 q143 0 234 77.5 q91 77.5 91 196.5 l0 110 l-329 0 l0 176 l528 0 l0 -277 q0 -62 -16 -124.5 q-16 -62.5 -55.5 -126.5 q-39.5 -64 -97.5 -113 q-58 -49 -150 -79.5 q-92 -30.5 -205 -30.5 q-182 0 -308 79.5 q-126 79.5 -185.5 217.5 q-59.5 138 -59.5 327 l0 181 q0 286 151 450.5 q151 164.5 408 164.5 q119 0 216 -37.5 q97 -37.5 159.5 -101 q62.5 -63.5 98 -144 q35.5 -80.5 40.5 -170.5 Z" /><glyph glyph-name="gcaron" unicode="&#x1e7;" d="M277 1587 l166 0 l149 -245 l6 0 l141 245 l166 0 l-239 -368 l-138 0 l-251 368 ZM565 -223 q131 0 198 65.5 q67 65.5 67 185.5 l0 157 l-11 0 q-32 -72 -111 -119 q-79 -47 -185 -47 q-180 0 -296 122 q-116 122 -116 332 l0 143 q0 210 115.5 332.5 q115.5 122.5 295.5 122.5 q112 0 194.5 -51.5 q82.5 -51.5 110.5 -123.5 l9 0 l0 160 l195 0 l0 -1036 q0 -108 -35.5 -189 q-35.5 -81 -100.5 -129.5 q-65 -48.5 -149.5 -72 q-84.5 -23.5 -188.5 -23.5 q-200 0 -306 84 q-106 84 -117 213 l202 0 q12 -56 72.5 -91 q60.5 -35 156.5 -35 ZM580 892 q-122 0 -193 -83 q-71 -83 -71 -222 l0 -92 q0 -137 74 -220.5 q74 -83.5 192 -83.5 q115 0 181.5 80 q66.5 80 66.5 197 l0 143 q0 118 -68.5 199.5 q-68.5 81.5 -181.5 81.5 Z" /><glyph glyph-name="Kcaron" unicode="&#x1e8;" d="M1203 1365 l-501 -584 l526 -781 l-255 0 l-424 631 l-159 -171 l0 -460 l-206 0 l0 1365 l206 0 l0 -636 l9 0 l569 636 l235 0 ZM266 1717 l190 0 l152 -120 l8 0 l139 120 l194 0 l-237 -214 l-194 0 l-252 214 Z" /><glyph glyph-name="kcaron" unicode="&#x1e9;" d="M377 379 l0 -379 l-202 0 l0 1467 l202 0 l0 -871 l8 0 l406 460 l232 0 l-405 -457 l432 -599 l-239 0 l-344 470 l-90 -91 ZM-72 1819 l190 0 l152 -120 l8 0 l139 120 l194 0 l-237 -214 l-194 0 l-252 214 Z" /><glyph glyph-name="Oogonek" unicode="&#x1ea;" d="M338 772 l0 -190 q0 -206 96.5 -312.5 q96.5 -106.5 253.5 -106.5 q158 0 255 106.5 q97 106.5 97 312.5 l0 190 q0 207 -97.5 318.5 q-97.5 111.5 -254.5 111.5 q-156 0 -253 -111.5 q-97 -111.5 -97 -318.5 ZM666 -26 q-239 0 -387.5 164 q-148.5 164 -148.5 445 l0 188 q0 289 151 455 q151 166 409 166 q258 0 408 -166 q150 -166 150 -455 l0 -188 q0 -174 -48 -286 q-48 -112 -128 -203 q-19 -21 -57.5 -60 q-38.5 -39 -55.5 -58.5 q-17 -19.5 -32.5 -51.5 q-15.5 -32 -15.5 -63 q0 -51 32 -75.5 q32 -24.5 86 -24.5 q41 0 75 9 l0 -138 q-57 -19 -121 -19 q-99 1 -165.5 52.5 q-66.5 51.5 -66.5 144.5 q0 115 102 196 l-4 12 q-79 -44 -183 -44 Z" /><glyph glyph-name="oogonek" unicode="&#x1eb;" d="M586 899 q-120 0 -190.5 -87 q-70.5 -87 -70.5 -223 l0 -120 q0 -139 68 -224.5 q68 -85.5 193 -85.5 q123 0 190.5 85.5 q67.5 85.5 67.5 224.5 l0 120 q0 137 -69.5 223.5 q-69.5 86.5 -188.5 86.5 ZM695 17 q-68 -32 -147 -32 q-184 0 -305 126.5 q-121 126.5 -121 340.5 l0 147 q0 214 130 344.5 q130 130.5 336 130.5 q202 0 330.5 -128 q128.5 -128 128.5 -347 l0 -139 q0 -72 -12.5 -132.5 q-12.5 -60.5 -37 -108 q-24.5 -47.5 -47.5 -79 q-23 -31.5 -57 -68.5 q-9 -10 -40 -41 q-31 -31 -40.5 -43 q-9.5 -12 -27 -35.5 q-17.5 -23.5 -23.5 -43.5 q-6 -20 -6 -43 q0 -51 32.5 -78.5 q32.5 -27.5 87.5 -27.5 q41 0 73 8 l0 -136 q-46 -19 -121 -19 q-95 0 -163 49 q-68 49 -68 147 q0 118 105 198 l-7 10 Z" /><glyph glyph-name="Oogonekmacron" unicode="&#x1ec;" d="M338 772 l0 -190 q0 -206 96.5 -312.5 q96.5 -106.5 253.5 -106.5 q158 0 255 106.5 q97 106.5 97 312.5 l0 190 q0 207 -97.5 318.5 q-97.5 111.5 -254.5 111.5 q-156 0 -253 -111.5 q-97 -111.5 -97 -318.5 ZM666 -26 q-239 0 -387.5 164 q-148.5 164 -148.5 445 l0 188 q0 289 151 455 q151 166 409 166 q258 0 408 -166 q150 -166 150 -455 l0 -188 q0 -174 -48 -286 q-48 -112 -128 -203 q-19 -21 -57.5 -60 q-38.5 -39 -55.5 -58.5 q-17 -19.5 -32.5 -51.5 q-15.5 -32 -15.5 -63 q0 -51 32 -75.5 q32 -24.5 86 -24.5 q41 0 75 9 l0 -138 q-57 -19 -121 -19 q-99 1 -165.5 52.5 q-66.5 51.5 -66.5 144.5 q0 115 102 196 l-4 12 q-79 -44 -183 -44 ZM988 1507 l-598 0 l0 120 l598 0 l0 -120 Z" /><glyph glyph-name="oogonekmacron" unicode="&#x1ed;" d="M586 899 q-120 0 -190.5 -87 q-70.5 -87 -70.5 -223 l0 -120 q0 -139 68 -224.5 q68 -85.5 193 -85.5 q123 0 190.5 85.5 q67.5 85.5 67.5 224.5 l0 120 q0 137 -69.5 223.5 q-69.5 86.5 -188.5 86.5 ZM695 17 q-68 -32 -147 -32 q-184 0 -305 126.5 q-121 126.5 -121 340.5 l0 147 q0 214 130 344.5 q130 130.5 336 130.5 q202 0 330.5 -128 q128.5 -128 128.5 -347 l0 -139 q0 -72 -12.5 -132.5 q-12.5 -60.5 -37 -108 q-24.5 -47.5 -47.5 -79 q-23 -31.5 -57 -68.5 q-9 -10 -40 -41 q-31 -31 -40.5 -43 q-9.5 -12 -27 -35.5 q-17.5 -23.5 -23.5 -43.5 q-6 -20 -6 -43 q0 -51 32.5 -78.5 q32.5 -27.5 87.5 -27.5 q41 0 73 8 l0 -136 q-46 -19 -121 -19 q-95 0 -163 49 q-68 49 -68 147 q0 118 105 198 l-7 10 ZM887 1246 l-605 0 l0 127 l605 0 l0 -127 Z" /><glyph glyph-name="Gacute" unicode="&#x1f4;" d="M591 1509 l238 345 l190 0 l-280 -345 l-148 0 ZM1203 939 l-202 0 q-17 127 -104.5 194.5 q-87.5 67.5 -211.5 67.5 q-155 0 -251.5 -106.5 q-96.5 -106.5 -96.5 -319.5 l0 -178 q0 -203 87.5 -318.5 q87.5 -115.5 258.5 -115.5 q143 0 234 77.5 q91 77.5 91 196.5 l0 110 l-329 0 l0 176 l528 0 l0 -277 q0 -62 -16 -124.5 q-16 -62.5 -55.5 -126.5 q-39.5 -64 -97.5 -113 q-58 -49 -150 -79.5 q-92 -30.5 -205 -30.5 q-182 0 -308 79.5 q-126 79.5 -185.5 217.5 q-59.5 138 -59.5 327 l0 181 q0 286 151 450.5 q151 164.5 408 164.5 q119 0 216 -37.5 q97 -37.5 159.5 -101 q62.5 -63.5 98 -144 q35.5 -80.5 40.5 -170.5 Z" /><glyph glyph-name="gacute" unicode="&#x1f5;" d="M500 1226 l239 354 l192 0 l-279 -354 l-152 0 ZM565 -223 q131 0 198 65.5 q67 65.5 67 185.5 l0 157 l-11 0 q-32 -72 -111 -119 q-79 -47 -185 -47 q-180 0 -296 122 q-116 122 -116 332 l0 143 q0 210 115.5 332.5 q115.5 122.5 295.5 122.5 q112 0 194.5 -51.5 q82.5 -51.5 110.5 -123.5 l9 0 l0 160 l195 0 l0 -1036 q0 -108 -35.5 -189 q-35.5 -81 -100.5 -129.5 q-65 -48.5 -149.5 -72 q-84.5 -23.5 -188.5 -23.5 q-200 0 -306 84 q-106 84 -117 213 l202 0 q12 -56 72.5 -91 q60.5 -35 156.5 -35 ZM580 892 q-122 0 -193 -83 q-71 -83 -71 -222 l0 -92 q0 -137 74 -220.5 q74 -83.5 192 -83.5 q115 0 181.5 80 q66.5 80 66.5 197 l0 143 q0 118 -68.5 199.5 q-68.5 81.5 -181.5 81.5 Z" /><glyph glyph-name="Ngrave" unicode="&#x1f8;" d="M804 1509 l-148 0 l-280 345 l190 0 l238 -345 ZM384 0 l-200 0 l0 1365 l187 0 l656 -988 l10 0 l0 988 l200 0 l0 -1365 l-187 0 l-657 991 l-9 0 l0 -991 Z" /><glyph glyph-name="ngrave" unicode="&#x1f9;" d="M709 1226 l-151 0 l-279 354 l192 0 l238 -354 ZM172 0 l0 1056 l200 0 l0 -189 l10 0 q12 36 31.5 67.5 q19.5 31.5 55 65 q35.5 33.5 95 53 q59.5 19.5 136.5 19.5 q165 0 261 -91 q96 -91 96 -266 l0 -715 l-202 0 l0 651 q0 118 -57.5 177 q-57.5 59 -160.5 59 q-127 0 -195 -83 q-68 -83 -68 -217 l0 -587 l-202 0 Z" /><glyph glyph-name="Aringacute" unicode="&#x1fa;" d="M257 0 l-208 0 l476 1365 l223 0 l475 -1365 l-220 0 l-128 381 l-490 0 l-128 -381 ZM635 1132 l-8 0 l-192 -581 l392 0 l-192 581 ZM554 1811 l100 133 l205 0 l-142 -133 l-163 0 ZM761.5 1471.5 q-51.5 -49.5 -125.5 -49.5 q-74 0 -125 49.5 q-51 49.5 -51 123.5 q0 74 51 123 q51 49 125 49 q74 0 125.5 -49 q51.5 -49 51.5 -123 q0 -74 -51.5 -123.5 ZM551 1595 q0 -35 24.5 -60 q24.5 -25 61.5 -25 q36 0 60.5 24.5 q24.5 24.5 24.5 60.5 q0 36 -24 60.5 q-24 24.5 -61 24.5 q-37 0 -61.5 -24.5 q-24.5 -24.5 -24.5 -60.5 Z" /><glyph glyph-name="aringacute" unicode="&#x1fb;" d="M459 -17 q-154 0 -249.5 88.5 q-95.5 88.5 -95.5 235.5 q0 143 97 227.5 q97 84.5 275 84.5 l271 0 l0 100 q0 90 -55 135 q-55 45 -154 45 q-168 0 -201 -120 l-193 0 q11 135 114 214 q103 79 286 79 q87 0 157.5 -19 q70.5 -19 127.5 -59.5 q57 -40.5 88.5 -111 q31.5 -70.5 31.5 -166.5 l0 -716 l-193 0 l0 137 l-9 0 q-41 -68 -115 -111 q-74 -43 -183 -43 ZM519 153 q101 0 169.5 58.5 q68.5 58.5 68.5 146.5 l0 114 l-246 0 q-97 0 -145 -42 q-48 -42 -48 -112 q0 -80 58 -122.5 q58 -42.5 143 -42.5 ZM643 1708 l-150 0 l136 189 l194 0 l-180 -189 ZM702.5 1280.5 q-57.5 -56.5 -140.5 -56.5 q-83 0 -140.5 56.5 q-57.5 56.5 -57.5 140.5 q0 84 57 139.5 q57 55.5 141 55.5 q83 0 140.5 -55.5 q57.5 -55.5 57.5 -139.5 q0 -84 -57.5 -140.5 ZM463 1420 q0 -41 28.5 -70 q28.5 -29 70.5 -29 q42 0 70 28.5 q28 28.5 28 70.5 q0 42 -28 70.5 q-28 28.5 -70 28.5 q-42 0 -70.5 -28.5 q-28.5 -28.5 -28.5 -70.5 Z" /><glyph glyph-name="AEacute" unicode="&#x1fc;" d="M1274 1509 l238 345 l190 0 l-280 -345 l-148 0 ZM877 1178 l-323 -629 l394 1 l0 628 l-71 0 ZM948 375 l-473 0 l-206 -375 l-230 0 l719 1365 l1021 0 l0 -187 l-626 0 l0 -394 l590 0 l0 -180 l-590 0 l0 -416 l626 0 l0 -188 l-831 0 l0 375 Z" /><glyph glyph-name="aeacute" unicode="&#x1fd;" d="M790 1226 l239 354 l192 0 l-279 -354 l-152 0 ZM1224 -18 q-149 0 -247.5 56.5 q-98.5 56.5 -135.5 144.5 l-14 0 q-42 -85 -132.5 -143 q-90.5 -58 -223.5 -58 q-162 0 -260.5 86.5 q-98.5 86.5 -98.5 235.5 q0 146 99 230.5 q99 84.5 280 84.5 l268 0 l0 100 q0 90 -55 134 q-55 44 -154 44 q-174 0 -206 -118 l-193 0 q11 135 116.5 214.5 q105.5 79.5 289.5 79.5 q106 0 192.5 -34.5 q86.5 -34.5 129.5 -100.5 l14 0 q45 64 130.5 99.5 q85.5 35.5 187.5 35.5 q197 0 317 -128 q120 -128 120 -344 l0 -125 l-681 0 l0 -74 q0 -107 70 -175.5 q70 -68.5 186 -68.5 q86 0 141.5 34.5 q55.5 34.5 68.5 85.5 l202 0 q-6 -49 -32.5 -98 q-26.5 -49 -74 -95 q-47.5 -46 -127 -74.5 q-79.5 -28.5 -177.5 -28.5 ZM1212 903 q-106 0 -175.5 -71.5 q-69.5 -71.5 -69.5 -182.5 l0 -30 l482 0 l0 21 q0 121 -63.5 192 q-63.5 71 -173.5 71 ZM520 151 q101 0 170 59 q69 59 69 146 l0 116 l-243 0 q-99 0 -151 -42.5 q-52 -42.5 -52 -111.5 q0 -80 61 -123.5 q61 -43.5 146 -43.5 Z" /><glyph glyph-name="Oslashacute" unicode="&#x1fe;" d="M686 -28 q-235 0 -379 133 l-100 -124 l-106 90 l117 143 q-88 150 -88 369 l0 188 q0 289 151 455 q151 166 409 166 q228 0 372 -129 l95 116 l110 -83 l-116 -140 q97 -156 97 -385 l0 -188 q0 -287 -151.5 -449 q-151.5 -162 -410.5 -162 ZM334 581 q0 -100 28 -176 l577 696 q-96 104 -251 104 q-158 0 -256 -112.5 q-98 -112.5 -98 -320.5 l0 -191 ZM688 159 q159 0 256.5 107.5 q97.5 107.5 97.5 314.5 l0 191 q0 111 -34 193 l-578 -699 q94 -107 258 -107 ZM595 1509 l238 345 l190 0 l-280 -345 l-148 0 Z" /><glyph glyph-name="oslashacute" unicode="&#x1ff;" d="M417 212 q66 -58 168 -58 q124 0 193.5 88 q69.5 88 69.5 227 l0 143 q0 74 -29 129 l-402 -529 ZM319 446 q0 -76 29 -132 l403 532 q-65 59 -166 59 q-121 0 -193.5 -89 q-72.5 -89 -72.5 -226 l0 -144 ZM585 -18 q-155 0 -272 80 l-102 -135 l-99 78 l109 144 q-99 126 -99 311 l0 139 q0 214 129.5 344.5 q129.5 130.5 333.5 130.5 q152 0 269 -81 l100 133 l99 -79 l-107 -143 q101 -127 101 -305 l0 -139 q0 -224 -128 -351 q-128 -127 -334 -127 ZM490 1226 l239 354 l192 0 l-279 -354 l-152 0 Z" /><glyph glyph-name="Adblgrave" unicode="&#x200;" d="M257 0 l-208 0 l476 1365 l223 0 l475 -1365 l-220 0 l-128 381 l-490 0 l-128 -381 ZM635 1132 l-8 0 l-192 -581 l392 0 l-192 581 ZM561 1509 l-146 0 l-290 329 l188 0 l248 -329 ZM902 1509 l-146 0 l-290 329 l188 0 l248 -329 Z" /><glyph glyph-name="adblgrave" unicode="&#x201;" d="M459 -17 q-154 0 -249.5 88.5 q-95.5 88.5 -95.5 235.5 q0 143 97 227.5 q97 84.5 275 84.5 l271 0 l0 100 q0 90 -55 135 q-55 45 -154 45 q-168 0 -201 -120 l-193 0 q11 135 114 214 q103 79 286 79 q87 0 157.5 -19 q70.5 -19 127.5 -59.5 q57 -40.5 88.5 -111 q31.5 -70.5 31.5 -166.5 l0 -716 l-193 0 l0 137 l-9 0 q-41 -68 -115 -111 q-74 -43 -183 -43 ZM519 153 q101 0 169.5 58.5 q68.5 58.5 68.5 146.5 l0 114 l-246 0 q-97 0 -145 -42 q-48 -42 -48 -112 q0 -80 58 -122.5 q58 -42.5 143 -42.5 ZM350 1226 l-290 363 l188 0 l244 -363 l-142 0 ZM680 1226 l-290 363 l189 0 l244 -363 l-143 0 Z" /><glyph glyph-name="Ainvertedbreve" unicode="&#x202;" d="M257 0 l-208 0 l476 1365 l223 0 l475 -1365 l-220 0 l-128 381 l-490 0 l-128 -381 ZM635 1132 l-8 0 l-192 -581 l392 0 l-192 581 ZM775 1597 q-51 43 -139 43 q-88 0 -139 -43 q-51 -43 -51 -105 l-132 0 q0 112 85.5 191 q85.5 79 236.5 79 q151 0 236.5 -79 q85.5 -79 85.5 -191 l-132 0 q0 62 -51 105 Z" /><glyph glyph-name="ainvertedbreve" unicode="&#x203;" d="M459 -17 q-154 0 -249.5 88.5 q-95.5 88.5 -95.5 235.5 q0 143 97 227.5 q97 84.5 275 84.5 l271 0 l0 100 q0 90 -55 135 q-55 45 -154 45 q-168 0 -201 -120 l-193 0 q11 135 114 214 q103 79 286 79 q87 0 157.5 -19 q70.5 -19 127.5 -59.5 q57 -40.5 88.5 -111 q31.5 -70.5 31.5 -166.5 l0 -716 l-193 0 l0 137 l-9 0 q-41 -68 -115 -111 q-74 -43 -183 -43 ZM519 153 q101 0 169.5 58.5 q68.5 58.5 68.5 146.5 l0 114 l-246 0 q-97 0 -145 -42 q-48 -42 -48 -112 q0 -80 58 -122.5 q58 -42.5 143 -42.5 ZM265 1225 q0 54 18 104 q18 50 53 92 q35 42 94 67.5 q59 25.5 133 25.5 q74 0 133 -25.5 q59 -25.5 94 -67.5 q35 -42 52.5 -92 q17.5 -50 17.5 -104 l-131 0 q0 69 -42 116.5 q-42 47.5 -124 47.5 q-82 0 -124 -47.5 q-42 -47.5 -42 -116.5 l-132 0 Z" /><glyph glyph-name="Edblgrave" unicode="&#x204;" d="M524 1509 l-146 0 l-290 329 l188 0 l248 -329 ZM865 1509 l-146 0 l-290 329 l188 0 l248 -329 ZM1023 188 l0 -188 l-839 0 l0 1365 l839 0 l0 -188 l-634 0 l0 -393 l598 0 l0 -180 l-598 0 l0 -416 l634 0 Z" /><glyph glyph-name="edblgrave" unicode="&#x205;" d="M581 -18 q-215 0 -337 126 q-122 126 -122 348 l0 145 q0 219 124.5 346 q124.5 127 320.5 127 q197 0 321 -129 q124 -129 124 -344 l0 -125 l-690 0 l0 -52 q0 -118 68 -192.5 q68 -74.5 189 -74.5 q87 0 146 35 q59 35 72 86 l202 0 q-5 -38 -22.5 -77.5 q-17.5 -39.5 -52 -79 q-34.5 -39.5 -81.5 -70 q-47 -30.5 -115 -50 q-68 -19.5 -147 -19.5 ZM322 619 l491 0 l0 15 q0 121 -67 194.5 q-67 73.5 -178 73.5 q-111 0 -178.5 -73.5 q-67.5 -73.5 -67.5 -194.5 l0 -15 ZM351 1226 l-290 363 l188 0 l244 -363 l-142 0 ZM681 1226 l-290 363 l189 0 l244 -363 l-143 0 Z" /><glyph glyph-name="Einvertedbreve" unicode="&#x206;" d="M1023 188 l0 -188 l-839 0 l0 1365 l839 0 l0 -188 l-634 0 l0 -393 l598 0 l0 -180 l-598 0 l0 -416 l634 0 ZM738 1597 q-51 43 -139 43 q-88 0 -139 -43 q-51 -43 -51 -105 l-132 0 q0 112 85.5 191 q85.5 79 236.5 79 q151 0 236.5 -79 q85.5 -79 85.5 -191 l-132 0 q0 62 -51 105 Z" /><glyph glyph-name="einvertedbreve" unicode="&#x207;" d="M581 -18 q-215 0 -337 126 q-122 126 -122 348 l0 145 q0 219 124.5 346 q124.5 127 320.5 127 q197 0 321 -129 q124 -129 124 -344 l0 -125 l-690 0 l0 -52 q0 -118 68 -192.5 q68 -74.5 189 -74.5 q87 0 146 35 q59 35 72 86 l202 0 q-5 -38 -22.5 -77.5 q-17.5 -39.5 -52 -79 q-34.5 -39.5 -81.5 -70 q-47 -30.5 -115 -50 q-68 -19.5 -147 -19.5 ZM322 619 l491 0 l0 15 q0 121 -67 194.5 q-67 73.5 -178 73.5 q-111 0 -178.5 -73.5 q-67.5 -73.5 -67.5 -194.5 l0 -15 ZM266 1225 q0 54 18 104 q18 50 53 92 q35 42 94 67.5 q59 25.5 133 25.5 q74 0 133 -25.5 q59 -25.5 94 -67.5 q35 -42 52.5 -92 q17.5 -50 17.5 -104 l-131 0 q0 69 -42 116.5 q-42 47.5 -124 47.5 q-82 0 -124 -47.5 q-42 -47.5 -42 -116.5 l-132 0 Z" /><glyph glyph-name="Idblgrave" unicode="&#x208;" d="M390 0 l-206 0 l0 1365 l206 0 l0 -1365 ZM213 1509 l-146 0 l-290 329 l188 0 l248 -329 ZM554 1509 l-146 0 l-290 329 l188 0 l248 -329 Z" /><glyph glyph-name="idblgrave" unicode="&#x209;" d="M196 0 l0 1056 l202 0 l0 -1056 l-202 0 ZM84 1226 l-290 363 l188 0 l244 -363 l-142 0 ZM414 1226 l-290 363 l189 0 l244 -363 l-143 0 Z" /><glyph glyph-name="Iinvertedbreve" unicode="&#x20a;" d="M390 0 l-206 0 l0 1365 l206 0 l0 -1365 ZM427 1597 q-51 43 -139 43 q-88 0 -139 -43 q-51 -43 -51 -105 l-132 0 q0 112 85.5 191 q85.5 79 236.5 79 q151 0 236.5 -79 q85.5 -79 85.5 -191 l-132 0 q0 62 -51 105 Z" /><glyph glyph-name="iinvertedbreve" unicode="&#x20b;" d="M196 0 l0 1056 l202 0 l0 -1056 l-202 0 ZM-1 1225 q0 54 18 104 q18 50 53 92 q35 42 94 67.5 q59 25.5 133 25.5 q74 0 133 -25.5 q59 -25.5 94 -67.5 q35 -42 52.5 -92 q17.5 -50 17.5 -104 l-131 0 q0 69 -42 116.5 q-42 47.5 -124 47.5 q-82 0 -124 -47.5 q-42 -47.5 -42 -116.5 l-132 0 Z" /><glyph glyph-name="Odblgrave" unicode="&#x20c;" d="M614 1509 l-146 0 l-290 329 l188 0 l248 -329 ZM955 1509 l-146 0 l-290 329 l188 0 l248 -329 ZM338 772 l0 -190 q0 -206 96.5 -312.5 q96.5 -106.5 253.5 -106.5 q158 0 255 106.5 q97 106.5 97 312.5 l0 190 q0 207 -97.5 318.5 q-97.5 111.5 -254.5 111.5 q-156 0 -253 -111.5 q-97 -111.5 -97 -318.5 ZM130 583 l0 188 q0 289 151 455 q151 166 409 166 q258 0 408 -166 q150 -166 150 -455 l0 -188 q0 -287 -151.5 -449 q-151.5 -162 -410.5 -162 q-258 0 -407 161.5 q-149 161.5 -149 449.5 Z" /><glyph glyph-name="odblgrave" unicode="&#x20d;" d="M585 1074 q205 0 333.5 -128 q128.5 -128 128.5 -347 l0 -139 q0 -224 -128 -351 q-128 -127 -334 -127 q-209 0 -336 126 q-127 126 -127 352 l0 139 q0 214 129.5 344.5 q129.5 130.5 333.5 130.5 ZM775 811.5 q-69 86.5 -189 86.5 q-120 0 -190.5 -87 q-70.5 -87 -70.5 -223 l0 -120 q0 -138 68.5 -224 q68.5 -86 192.5 -86 q123 0 190.5 85.5 q67.5 85.5 67.5 224.5 l0 120 q0 137 -69 223.5 ZM371 1226 l-290 363 l188 0 l244 -363 l-142 0 ZM701 1226 l-290 363 l189 0 l244 -363 l-143 0 Z" /><glyph glyph-name="Oinvertedbreve" unicode="&#x20e;" d="M828 1597 q-51 43 -139 43 q-88 0 -139 -43 q-51 -43 -51 -105 l-132 0 q0 112 85.5 191 q85.5 79 236.5 79 q151 0 236.5 -79 q85.5 -79 85.5 -191 l-132 0 q0 62 -51 105 ZM338 772 l0 -190 q0 -206 96.5 -312.5 q96.5 -106.5 253.5 -106.5 q158 0 255 106.5 q97 106.5 97 312.5 l0 190 q0 207 -97.5 318.5 q-97.5 111.5 -254.5 111.5 q-156 0 -253 -111.5 q-97 -111.5 -97 -318.5 ZM130 583 l0 188 q0 289 151 455 q151 166 409 166 q258 0 408 -166 q150 -166 150 -455 l0 -188 q0 -287 -151.5 -449 q-151.5 -162 -410.5 -162 q-258 0 -407 161.5 q-149 161.5 -149 449.5 Z" /><glyph glyph-name="oinvertedbreve" unicode="&#x20f;" d="M585 1074 q205 0 333.5 -128 q128.5 -128 128.5 -347 l0 -139 q0 -224 -128 -351 q-128 -127 -334 -127 q-209 0 -336 126 q-127 126 -127 352 l0 139 q0 214 129.5 344.5 q129.5 130.5 333.5 130.5 ZM775 811.5 q-69 86.5 -189 86.5 q-120 0 -190.5 -87 q-70.5 -87 -70.5 -223 l0 -120 q0 -138 68.5 -224 q68.5 -86 192.5 -86 q123 0 190.5 85.5 q67.5 85.5 67.5 224.5 l0 120 q0 137 -69 223.5 ZM286 1225 q0 54 18 104 q18 50 53 92 q35 42 94 67.5 q59 25.5 133 25.5 q74 0 133 -25.5 q59 -25.5 94 -67.5 q35 -42 52.5 -92 q17.5 -50 17.5 -104 l-131 0 q0 69 -42 116.5 q-42 47.5 -124 47.5 q-82 0 -124 -47.5 q-42 -47.5 -42 -116.5 l-132 0 Z" /><glyph glyph-name="Rdblgrave" unicode="&#x210;" d="M533 1509 l-146 0 l-290 329 l188 0 l248 -329 ZM874 1509 l-146 0 l-290 329 l188 0 l248 -329 ZM695 1365 q113 0 201 -33 q88 -33 141.5 -91.5 q53.5 -58.5 81 -133 q27.5 -74.5 27.5 -161.5 q0 -80 -22.5 -147.5 q-22.5 -67.5 -61 -113 q-38.5 -45.5 -80 -75 q-41.5 -29.5 -88.5 -46.5 l277 -564 l-233 0 l-248 526 l-301 0 l0 -526 l-205 0 l0 1365 l511 0 ZM389 704 l271 0 q133 0 203.5 60.5 q70.5 60.5 70.5 173.5 q0 119 -72 182 q-72 63 -195 63 l-278 0 l0 -479 Z" /><glyph glyph-name="rdblgrave" unicode="&#x211;" d="M187 0 l0 1056 l202 0 l0 -164 l10 0 q11 30 30.5 58.5 q19.5 28.5 52 57.5 q32.5 29 84.5 46.5 q52 17.5 116 17.5 q30 0 70 -6 l0 -192 q-25 7 -90 7 q-131 0 -200.5 -69 q-69.5 -69 -69.5 -180 l0 -632 l-205 0 ZM235 1226 l-290 363 l188 0 l244 -363 l-142 0 ZM565 1226 l-290 363 l189 0 l244 -363 l-143 0 Z" /><glyph glyph-name="Rinvertedbreve" unicode="&#x212;" d="M695 1365 q113 0 201 -33 q88 -33 141.5 -91.5 q53.5 -58.5 81 -133 q27.5 -74.5 27.5 -161.5 q0 -80 -22.5 -147.5 q-22.5 -67.5 -61 -113 q-38.5 -45.5 -80 -75 q-41.5 -29.5 -88.5 -46.5 l277 -564 l-233 0 l-248 526 l-301 0 l0 -526 l-205 0 l0 1365 l511 0 ZM389 704 l271 0 q133 0 203.5 60.5 q70.5 60.5 70.5 173.5 q0 119 -72 182 q-72 63 -195 63 l-278 0 l0 -479 ZM747 1597 q-51 43 -139 43 q-88 0 -139 -43 q-51 -43 -51 -105 l-132 0 q0 112 85.5 191 q85.5 79 236.5 79 q151 0 236.5 -79 q85.5 -79 85.5 -191 l-132 0 q0 62 -51 105 Z" /><glyph glyph-name="rinvertedbreve" unicode="&#x213;" d="M187 0 l0 1056 l202 0 l0 -164 l10 0 q11 30 30.5 58.5 q19.5 28.5 52 57.5 q32.5 29 84.5 46.5 q52 17.5 116 17.5 q30 0 70 -6 l0 -192 q-25 7 -90 7 q-131 0 -200.5 -69 q-69.5 -69 -69.5 -180 l0 -632 l-205 0 ZM150 1225 q0 54 18 104 q18 50 53 92 q35 42 94 67.5 q59 25.5 133 25.5 q74 0 133 -25.5 q59 -25.5 94 -67.5 q35 -42 52.5 -92 q17.5 -50 17.5 -104 l-131 0 q0 69 -42 116.5 q-42 47.5 -124 47.5 q-82 0 -124 -47.5 q-42 -47.5 -42 -116.5 l-132 0 Z" /><glyph glyph-name="Udblgrave" unicode="&#x214;" d="M622 1509 l-146 0 l-290 329 l188 0 l248 -329 ZM963 1509 l-146 0 l-290 329 l188 0 l248 -329 ZM374 1365 l0 -877 q0 -150 87.5 -236.5 q87.5 -86.5 235.5 -86.5 q148 0 235.5 86.5 q87.5 86.5 87.5 236.5 l0 877 l206 0 l0 -891 q0 -226 -145.5 -364 q-145.5 -138 -383.5 -138 q-238 0 -383.5 139 q-145.5 139 -145.5 366 l0 888 l206 0 Z" /><glyph glyph-name="udblgrave" unicode="&#x215;" d="M1046 1056 l0 -1056 l-199 0 l0 176 l-11 0 q-26 -76 -106 -134.5 q-80 -58.5 -206 -58.5 q-167 0 -263 85 q-96 85 -96 263 l0 725 l202 0 l0 -668 q0 -118 60.5 -169 q60.5 -51 159.5 -51 q109 0 183.5 68 q74.5 68 74.5 168 l0 652 l201 0 ZM396 1226 l-290 363 l188 0 l244 -363 l-142 0 ZM726 1226 l-290 363 l189 0 l244 -363 l-143 0 Z" /><glyph glyph-name="Uinvertedbreve" unicode="&#x216;" d="M374 1365 l0 -877 q0 -150 87.5 -236.5 q87.5 -86.5 235.5 -86.5 q148 0 235.5 86.5 q87.5 86.5 87.5 236.5 l0 877 l206 0 l0 -891 q0 -226 -145.5 -364 q-145.5 -138 -383.5 -138 q-238 0 -383.5 139 q-145.5 139 -145.5 366 l0 888 l206 0 ZM836 1597 q-51 43 -139 43 q-88 0 -139 -43 q-51 -43 -51 -105 l-132 0 q0 112 85.5 191 q85.5 79 236.5 79 q151 0 236.5 -79 q85.5 -79 85.5 -191 l-132 0 q0 62 -51 105 Z" /><glyph glyph-name="uinvertedbreve" unicode="&#x217;" d="M1046 1056 l0 -1056 l-199 0 l0 176 l-11 0 q-26 -76 -106 -134.5 q-80 -58.5 -206 -58.5 q-167 0 -263 85 q-96 85 -96 263 l0 725 l202 0 l0 -668 q0 -118 60.5 -169 q60.5 -51 159.5 -51 q109 0 183.5 68 q74.5 68 74.5 168 l0 652 l201 0 ZM311 1225 q0 54 18 104 q18 50 53 92 q35 42 94 67.5 q59 25.5 133 25.5 q74 0 133 -25.5 q59 -25.5 94 -67.5 q35 -42 52.5 -92 q17.5 -50 17.5 -104 l-131 0 q0 69 -42 116.5 q-42 47.5 -124 47.5 q-82 0 -124 -47.5 q-42 -47.5 -42 -116.5 l-132 0 Z" /><glyph glyph-name="Scommaaccent" unicode="&#x218;" d="M87 378 l203 0 q10 -95 93 -158 q83 -63 226 -63 q136 0 215 57.5 q79 57.5 79 156.5 q0 77 -53 123.5 q-53 46.5 -166 74.5 l-231 56 q-68 17 -124 45 q-56 28 -103.5 71 q-47.5 43 -74 107 q-26.5 64 -26.5 144 q0 95 39.5 172.5 q39.5 77.5 107 127 q67.5 49.5 154.5 76.5 q87 27 184 27 q129 0 236.5 -45 q107.5 -45 176.5 -136.5 q69 -91.5 71 -215.5 l-200 0 q-9 93 -82.5 153.5 q-73.5 60.5 -204.5 60.5 q-123 0 -198.5 -54 q-75.5 -54 -75.5 -149 q0 -139 190 -184 l229 -56 q171 -41 264.5 -128.5 q93.5 -87.5 93.5 -249.5 q0 -131 -68 -227 q-68 -96 -184 -144 q-116 -48 -267 -48 q-90 0 -166 17 q-76 17 -129.5 47.5 q-53.5 30.5 -94 69.5 q-40.5 39 -64.5 85.5 q-24 46.5 -36.5 92.5 q-12.5 46 -13.5 94 ZM580 -472 l-143 0 l82 316 l169 0 l-108 -316 Z" /><glyph glyph-name="scommaaccent" unicode="&#x219;" d="M125 750 q0 83 32.5 146.5 q32.5 63.5 89.5 101.5 q57 38 127.5 57 q70.5 19 151.5 19 q173 0 278.5 -82 q105.5 -82 105.5 -220 l-184 0 q-6 58 -59 100 q-53 42 -147 42 q-90 0 -145.5 -38.5 q-55.5 -38.5 -55.5 -106.5 q0 -39 18.5 -66 q18.5 -27 61 -43.5 q42.5 -16.5 70.5 -23.5 q28 -7 87 -17 q19 -3 28 -5 q81 -14 139 -33 q58 -19 110 -52 q52 -33 78.5 -86 q26.5 -53 26.5 -125 q0 -158 -116 -247 q-116 -89 -313 -89 q-184 0 -294 80.5 q-110 80.5 -110 220.5 l197 0 q21 -142 217 -142 q112 0 167 42 q55 42 55 110 q0 38 -18 64.5 q-18 26.5 -55 42.5 q-37 16 -76 26 q-39 10 -97 21 q-12 2 -18 3 q-66 13 -112 26 q-46 13 -95 36.5 q-49 23.5 -78 53.5 q-29 30 -48 76.5 q-19 46.5 -19 107.5 ZM515 -472 l-143 0 l82 316 l169 0 l-108 -316 Z" /><glyph glyph-name="Tcommaaccent" unicode="&#x21a;" d="M543 -472 l-143 0 l82 316 l169 0 l-108 -316 ZM657 0 l-206 0 l0 1175 l-405 0 l0 190 l1016 0 l0 -190 l-405 0 l0 -1175 Z" /><glyph glyph-name="tcommaaccent" unicode="&#x21b;" d="M432 -472 l-143 0 l82 316 l169 0 l-108 -316 ZM237 1050 l0 264 l199 0 l0 -264 l237 0 l0 -171 l-237 0 l0 -566 q0 -86 35.5 -117 q35.5 -31 129.5 -31 q51 0 85 4 l0 -167 q-40 -10 -135 -10 q-95 0 -156.5 17 q-61.5 17 -97 56.5 q-35.5 39.5 -49 94 q-13.5 54.5 -13.5 137.5 l0 582 l-161 0 l0 171 l163 0 Z" /><glyph glyph-name="Hcaron" unicode="&#x21e;" d="M1246 0 l-206 0 l0 607 l-650 0 l0 -607 l-206 0 l0 1365 l206 0 l0 -568 l650 0 l0 568 l206 0 l0 -1365 ZM370 1717 l190 0 l152 -120 l8 0 l139 120 l194 0 l-237 -214 l-194 0 l-252 214 Z" /><glyph glyph-name="hcaron" unicode="&#x21f;" d="M176 0 l0 1467 l201 0 l0 -600 l11 0 q9 32 30 64 q21 32 57.5 65.5 q36.5 33.5 98 54.5 q61.5 21 137.5 21 q159 0 256 -92 q97 -92 97 -267 l0 -713 l-202 0 l0 649 q0 118 -60 178 q-60 60 -163 60 q-124 0 -193 -83 q-69 -83 -69 -217 l0 -587 l-201 0 ZM-71 1819 l190 0 l152 -120 l8 0 l139 120 l194 0 l-237 -214 l-194 0 l-252 214 Z" /><glyph glyph-name="Adotaccent" unicode="&#x226;" d="M257 0 l-208 0 l476 1365 l223 0 l475 -1365 l-220 0 l-128 381 l-490 0 l-128 -381 ZM635 1132 l-8 0 l-192 -581 l392 0 l-192 581 ZM523 1604 q0 50 32.5 83.5 q32.5 33.5 78.5 33.5 q49 0 82 -33.5 q33 -33.5 33 -83.5 q0 -49 -33 -82.5 q-33 -33.5 -82 -33.5 q-46 0 -78.5 33.5 q-32.5 33.5 -32.5 82.5 Z" /><glyph glyph-name="adotaccent" unicode="&#x227;" d="M459 -17 q-154 0 -249.5 88.5 q-95.5 88.5 -95.5 235.5 q0 143 97 227.5 q97 84.5 275 84.5 l271 0 l0 100 q0 90 -55 135 q-55 45 -154 45 q-168 0 -201 -120 l-193 0 q11 135 114 214 q103 79 286 79 q87 0 157.5 -19 q70.5 -19 127.5 -59.5 q57 -40.5 88.5 -111 q31.5 -70.5 31.5 -166.5 l0 -716 l-193 0 l0 137 l-9 0 q-41 -68 -115 -111 q-74 -43 -183 -43 ZM519 153 q101 0 169.5 58.5 q68.5 58.5 68.5 146.5 l0 114 l-246 0 q-97 0 -145 -42 q-48 -42 -48 -112 q0 -80 58 -122.5 q58 -42.5 143 -42.5 ZM450 1364 q0 50 32.5 83.5 q32.5 33.5 78.5 33.5 q49 0 82 -33.5 q33 -33.5 33 -83.5 q0 -49 -33 -82.5 q-33 -33.5 -82 -33.5 q-46 0 -78.5 33.5 q-32.5 33.5 -32.5 82.5 Z" /><glyph glyph-name="Ecedilla" unicode="&#x228;" d="M527 0 l-343 0 l0 1365 l839 0 l0 -188 l-634 0 l0 -393 l598 0 l0 -180 l-598 0 l0 -416 l634 0 l0 -188 l-365 0 l-49 -129 q95 0 151 -42.5 q56 -42.5 56 -121.5 q0 -93 -63 -140.5 q-63 -47.5 -166 -51.5 q-85 -3 -150 16 l0 113 q47 -14 115 -14 q48 0 82 16.5 q34 16.5 34 54.5 q0 22 -10.5 35.5 q-10.5 13.5 -33.5 19.5 q-23 6 -43.5 7.5 q-20.5 1.5 -55.5 1.5 l-53 0 l0 89 l55 146 Z" /><glyph glyph-name="ecedilla" unicode="&#x229;" d="M322 619 l491 0 l0 15 q0 121 -67 195 q-67 74 -178 74 q-111 0 -178.5 -74 q-67.5 -74 -67.5 -195 l0 -15 ZM575 -485 q-86 -3 -149 16 l0 113 q47 -14 115 -14 q48 0 81.5 16.5 q33.5 16.5 33.5 54.5 q0 22 -10.5 35.5 q-10.5 13.5 -33.5 19.5 q-23 6 -43.5 7.5 q-20.5 1.5 -55.5 1.5 l-53 0 l0 89 l51 132 q-184 20 -286.5 143.5 q-102.5 123.5 -102.5 326.5 l0 145 q0 219 124.5 346 q124.5 127 320.5 127 q197 0 321 -129 q124 -129 124 -344 l0 -125 l-690 0 l0 -51 q0 -118 68 -192.5 q68 -74.5 189 -74.5 q87 0 146 34.5 q59 34.5 72 85.5 l202 0 q-6 -44 -30 -89.5 q-24 -45.5 -65.5 -88.5 q-41.5 -43 -110 -74 q-68.5 -31 -151.5 -40 l-44 -115 q95 0 151 -42.5 q56 -42.5 56 -121.5 q0 -93 -63 -140.5 q-63 -47.5 -167 -51.5 Z" /><glyph glyph-name="Odieresismacron" unicode="&#x22a;" d="M338 772 l0 -190 q0 -206 96.5 -312.5 q96.5 -106.5 253.5 -106.5 q158 0 255 106.5 q97 106.5 97 312.5 l0 190 q0 207 -97.5 318.5 q-97.5 111.5 -254.5 111.5 q-156 0 -253 -111.5 q-97 -111.5 -97 -318.5 ZM130 583 l0 188 q0 289 151 455 q151 166 409 166 q258 0 408 -166 q150 -166 150 -455 l0 -188 q0 -287 -151.5 -449 q-151.5 -162 -410.5 -162 q-258 0 -407 161.5 q-149 161.5 -149 449.5 ZM869 1473 q-47 0 -78.5 30.5 q-31.5 30.5 -31.5 76.5 q0 48 31 78 q31 30 79 30 q50 0 81.5 -30 q31.5 -30 31.5 -78 q0 -47 -31.5 -77 q-31.5 -30 -81.5 -30 ZM506 1473 q-47 0 -78.5 30.5 q-31.5 30.5 -31.5 76.5 q0 48 31 78 q31 30 79 30 q50 0 81 -30 q31 -30 31 -78 q0 -47 -31.5 -77 q-31.5 -30 -80.5 -30 ZM988 1781 l-598 0 l0 120 l598 0 l0 -120 Z" /><glyph glyph-name="odieresismacron" unicode="&#x22b;" d="M769 1218 q-47 0 -79.5 32 q-32.5 32 -32.5 80 q0 49 32.5 81 q32.5 32 79.5 32 q52 0 85.5 -32 q33.5 -32 33.5 -81 q0 -48 -33.5 -80 q-33.5 -32 -85.5 -32 ZM396 1218 q-49 0 -82 32 q-33 32 -33 80 q0 49 32.5 81 q32.5 32 82.5 32 q50 0 83 -32 q33 -32 33 -81 q0 -48 -33 -80 q-33 -32 -83 -32 ZM887 1596 l-605 0 l0 127 l605 0 l0 -127 ZM585 1074 q205 0 333.5 -128 q128.5 -128 128.5 -347 l0 -139 q0 -224 -128 -351 q-128 -127 -334 -127 q-209 0 -336 126 q-127 126 -127 352 l0 139 q0 214 129.5 344.5 q129.5 130.5 333.5 130.5 ZM775 811.5 q-69 86.5 -189 86.5 q-120 0 -190.5 -87 q-70.5 -87 -70.5 -223 l0 -120 q0 -138 68.5 -224 q68.5 -86 192.5 -86 q123 0 190.5 85.5 q67.5 85.5 67.5 224.5 l0 120 q0 137 -69 223.5 Z" /><glyph glyph-name="Otildemacron" unicode="&#x22c;" d="M988 1781 l-598 0 l0 120 l598 0 l0 -120 ZM812 1461 q-44 0 -82 18.5 q-38 18.5 -59.5 40 q-21.5 21.5 -48.5 40 q-27 18.5 -51 18.5 q-36 0 -52.5 -31.5 q-16.5 -31.5 -18.5 -70.5 l-118 0 q0 88 47.5 152.5 q47.5 64.5 134.5 64.5 q44 0 82.5 -18.5 q38.5 -18.5 61.5 -40 q23 -21.5 51 -40 q28 -18.5 52 -18.5 q36 0 55 30.5 q19 30.5 20 70.5 l118 0 q0 -88 -51.5 -152 q-51.5 -64 -140.5 -64 ZM338 772 l0 -190 q0 -206 96.5 -312.5 q96.5 -106.5 253.5 -106.5 q158 0 255 106.5 q97 106.5 97 312.5 l0 190 q0 207 -97.5 318.5 q-97.5 111.5 -254.5 111.5 q-156 0 -253 -111.5 q-97 -111.5 -97 -318.5 ZM130 583 l0 188 q0 289 151 455 q151 166 409 166 q258 0 408 -166 q150 -166 150 -455 l0 -188 q0 -287 -151.5 -449 q-151.5 -162 -410.5 -162 q-258 0 -407 161.5 q-149 161.5 -149 449.5 Z" /><glyph glyph-name="otildemacron" unicode="&#x22d;" d="M710 1203 q-38 0 -68.5 14.5 q-30.5 14.5 -50 35.5 q-19.5 21 -37 41.5 q-17.5 20.5 -38 35 q-20.5 14.5 -43.5 14.5 q-67 0 -73 -124 l-125 0 q0 113 49 185.5 q49 72.5 143 72.5 q40 0 72.5 -14.5 q32.5 -14.5 53.5 -35 q21 -20.5 38 -41.5 q17 -21 36 -35.5 q19 -14.5 39 -14.5 q62 0 70 124 l125 0 q0 -68 -19.5 -125 q-19.5 -57 -64 -95 q-44.5 -38 -107.5 -38 ZM886 1596 l-604 0 l0 127 l604 0 l0 -127 ZM585 1074 q205 0 333.5 -128 q128.5 -128 128.5 -347 l0 -139 q0 -224 -128 -351 q-128 -127 -334 -127 q-209 0 -336 126 q-127 126 -127 352 l0 139 q0 214 129.5 344.5 q129.5 130.5 333.5 130.5 ZM775 811.5 q-69 86.5 -189 86.5 q-120 0 -190.5 -87 q-70.5 -87 -70.5 -223 l0 -120 q0 -138 68.5 -224 q68.5 -86 192.5 -86 q123 0 190.5 85.5 q67.5 85.5 67.5 224.5 l0 120 q0 137 -69 223.5 Z" /><glyph glyph-name="Odotaccent" unicode="&#x22e;" d="M576 1604 q0 50 32.5 83.5 q32.5 33.5 78.5 33.5 q49 0 82 -33.5 q33 -33.5 33 -83.5 q0 -49 -33 -82.5 q-33 -33.5 -82 -33.5 q-46 0 -78.5 33.5 q-32.5 33.5 -32.5 82.5 ZM338 772 l0 -190 q0 -206 96.5 -312.5 q96.5 -106.5 253.5 -106.5 q158 0 255 106.5 q97 106.5 97 312.5 l0 190 q0 207 -97.5 318.5 q-97.5 111.5 -254.5 111.5 q-156 0 -253 -111.5 q-97 -111.5 -97 -318.5 ZM130 583 l0 188 q0 289 151 455 q151 166 409 166 q258 0 408 -166 q150 -166 150 -455 l0 -188 q0 -287 -151.5 -449 q-151.5 -162 -410.5 -162 q-258 0 -407 161.5 q-149 161.5 -149 449.5 Z" /><glyph glyph-name="odotaccent" unicode="&#x22f;" d="M471 1364 q0 50 32.5 83.5 q32.5 33.5 78.5 33.5 q49 0 82 -33.5 q33 -33.5 33 -83.5 q0 -49 -33 -82.5 q-33 -33.5 -82 -33.5 q-46 0 -78.5 33.5 q-32.5 33.5 -32.5 82.5 ZM585 1074 q205 0 333.5 -128 q128.5 -128 128.5 -347 l0 -139 q0 -224 -128 -351 q-128 -127 -334 -127 q-209 0 -336 126 q-127 126 -127 352 l0 139 q0 214 129.5 344.5 q129.5 130.5 333.5 130.5 ZM775 811.5 q-69 86.5 -189 86.5 q-120 0 -190.5 -87 q-70.5 -87 -70.5 -223 l0 -120 q0 -138 68.5 -224 q68.5 -86 192.5 -86 q123 0 190.5 85.5 q67.5 85.5 67.5 224.5 l0 120 q0 137 -69 223.5 Z" /><glyph glyph-name="Odotaccentmacron" unicode="&#x230;" d="M578 1581 q0 48 32 80.5 q32 32.5 77 32.5 q48 0 80.5 -32 q32.5 -32 32.5 -81 q0 -47 -32.5 -78.5 q-32.5 -31.5 -80.5 -31.5 q-45 0 -77 31.5 q-32 31.5 -32 78.5 ZM988 1773 l-598 0 l0 120 l598 0 l0 -120 ZM338 772 l0 -190 q0 -206 96.5 -312.5 q96.5 -106.5 253.5 -106.5 q158 0 255 106.5 q97 106.5 97 312.5 l0 190 q0 207 -97.5 318.5 q-97.5 111.5 -254.5 111.5 q-156 0 -253 -111.5 q-97 -111.5 -97 -318.5 ZM130 583 l0 188 q0 289 151 455 q151 166 409 166 q258 0 408 -166 q150 -166 150 -455 l0 -188 q0 -287 -151.5 -449 q-151.5 -162 -410.5 -162 q-258 0 -407 161.5 q-149 161.5 -149 449.5 Z" /><glyph glyph-name="odotaccentmacron" unicode="&#x231;" d="M585 1074 q205 0 333.5 -128 q128.5 -128 128.5 -347 l0 -139 q0 -224 -128 -351 q-128 -127 -334 -127 q-209 0 -336 126 q-127 126 -127 352 l0 139 q0 214 129.5 344.5 q129.5 130.5 333.5 130.5 ZM775 811.5 q-69 86.5 -189 86.5 q-120 0 -190.5 -87 q-70.5 -87 -70.5 -223 l0 -120 q0 -138 68.5 -224 q68.5 -86 192.5 -86 q123 0 190.5 85.5 q67.5 85.5 67.5 224.5 l0 120 q0 137 -69 223.5 ZM470 1345 q0 50 32.5 83.5 q32.5 33.5 78.5 33.5 q49 0 82 -33.5 q33 -33.5 33 -83.5 q0 -49 -33 -82.5 q-33 -33.5 -82 -33.5 q-46 0 -78.5 33.5 q-32.5 33.5 -32.5 82.5 ZM887 1596 l-605 0 l0 127 l605 0 l0 -127 Z" /><glyph glyph-name="Ymacron" unicode="&#x232;" d="M684 0 l-206 0 l0 554 l-456 811 l232 0 l323 -592 l10 0 l325 592 l228 0 l-456 -808 l0 -557 ZM880 1507 l-598 0 l0 120 l598 0 l0 -120 Z" /><glyph glyph-name="ymacron" unicode="&#x233;" d="M1035 1056 q-364 -1038 -366 -1044 l-27 -73 q-21 -58 -41 -100.5 q-20 -42.5 -51.5 -86.5 q-31.5 -44 -69.5 -71 q-38 -27 -93.5 -44.5 q-55.5 -17.5 -124.5 -17.5 q-66 0 -120 10 l0 165 q25 -6 81 -6 q91 0 136 38.5 q45 38.5 66 117.5 l14 47 l-381 1065 l223 0 l265 -857 l9 0 l266 857 l214 0 ZM856 1246 l-605 0 l0 127 l605 0 l0 -127 Z" /><glyph glyph-name="circumflex" unicode="&#x2c6;" d="M184 1222 l249 368 l137 0 l249 -368 l-166 0 l-148 238 l-7 0 l-148 -238 l-166 0 Z" /><glyph glyph-name="caron" unicode="&#x2c7;" d="M178 1587 l166 0 l149 -245 l6 0 l141 245 l166 0 l-239 -368 l-138 0 l-251 368 Z" /><glyph glyph-name="breve" unicode="&#x2d8;" d="M205 1506 l132 0 q0 -69 42 -116.5 q42 -47.5 124 -47.5 q82 0 124.5 47.5 q42.5 47.5 42.5 116.5 l130 0 q0 -54 -18 -104 q-18 -50 -52.5 -92 q-34.5 -42 -93.5 -67.5 q-59 -25.5 -133 -25.5 q-74 0 -133 25.5 q-59 25.5 -94 67.5 q-35 42 -53 92 q-18 50 -18 104 Z" /><glyph glyph-name="dotaccent" unicode="&#x2d9;" d="M387 1364 q0 50 32.5 83.5 q32.5 33.5 78.5 33.5 q49 0 82 -33.5 q33 -33.5 33 -83.5 q0 -49 -33 -82.5 q-33 -33.5 -82 -33.5 q-46 0 -78.5 33.5 q-32.5 33.5 -32.5 82.5 Z" /><glyph glyph-name="ring" unicode="&#x2da;" d="M490 1224 q-84 0 -141 56.5 q-57 56.5 -57 140.5 q0 84 57 139.5 q57 55.5 141 55.5 q83 0 140 -55.5 q57 -55.5 57 -139.5 q0 -84 -57 -140.5 q-57 -56.5 -140 -56.5 ZM390 1420 q0 -41 28.5 -70 q28.5 -29 70.5 -29 q42 0 70.5 28.5 q28.5 28.5 28.5 70.5 q0 42 -28 70.5 q-28 28.5 -71 28.5 q-42 0 -70.5 -28.5 q-28.5 -28.5 -28.5 -70.5 Z" /><glyph glyph-name="ogonek" unicode="&#x2db;" d="M679 -231 l0 -134 q-44 -22 -135 -22 q-93 0 -153.5 49 q-60.5 49 -60.5 140 q0 59 28.5 112.5 q28.5 53.5 86 117.5 q57.5 64 60.5 68 l128 0 q-41 -44 -64.5 -71.5 q-23.5 -27.5 -52.5 -80 q-29 -52.5 -29 -94.5 q0 -46 30.5 -70.5 q30.5 -24.5 77.5 -24.5 q41 0 84 10 Z" /><glyph glyph-name="tilde" unicode="&#x2dc;" d="M615 1218 q-38 0 -68.5 14.5 q-30.5 14.5 -50 35 q-19.5 20.5 -37 41.5 q-17.5 21 -38 35.5 q-20.5 14.5 -43.5 14.5 q-39 0 -54 -33.5 q-15 -33.5 -19 -90.5 l-125 0 q0 112 49.5 185 q49.5 73 143.5 73 q40 0 72.5 -14.5 q32.5 -14.5 53 -35.5 q20.5 -21 37.5 -41.5 q17 -20.5 36 -35 q19 -14.5 39 -14.5 q62 0 70 124 l125 0 q0 -68 -19.5 -125 q-19.5 -57 -64 -95 q-44.5 -38 -107.5 -38 Z" /><glyph glyph-name="hungarumlaut" unicode="&#x2dd;" d="M278 1228 l-143 0 l244 362 l189 0 l-290 -362 ZM611 1228 l-142 0 l245 362 l188 0 l-291 -362 Z" /><glyph glyph-name="gravecmb" unicode="&#x300;" d="M97 1226 l-151 0 l-279 354 l192 0 l238 -354 Z" /><glyph glyph-name="acutecmb" unicode="&#x301;" d="M-94 1226 l239 354 l192 0 l-279 -354 l-152 0 Z" /><glyph glyph-name="circumflexcmb" unicode="&#x302;" d="M-317 1222 l249 368 l137 0 l249 -368 l-166 0 l-148 238 l-7 0 l-148 -238 l-166 0 Z" /><glyph glyph-name="tildecmb" unicode="&#x303;" d="M126 1218 q-38 0 -68.5 14.5 q-30.5 14.5 -50 35 q-19.5 20.5 -37 41.5 q-17.5 21 -38 35.5 q-20.5 14.5 -43.5 14.5 q-39 0 -54 -33.5 q-15 -33.5 -19 -90.5 l-125 0 q0 112 49.5 185 q49.5 73 143.5 73 q40 0 72.5 -14.5 q32.5 -14.5 53 -35.5 q20.5 -21 37.5 -41.5 q17 -20.5 36 -35 q19 -14.5 39 -14.5 q62 0 70 124 l125 0 q0 -68 -19.5 -125 q-19.5 -57 -64 -95 q-44.5 -38 -107.5 -38 Z" /><glyph glyph-name="macroncmb" unicode="&#x304;" d="M303 1246 l-605 0 l0 127 l605 0 l0 -127 Z" /><glyph glyph-name="brevecmb" unicode="&#x306;" d="M-298 1506 l132 0 q0 -69 42 -116.5 q42 -47.5 124 -47.5 q82 0 124.5 47.5 q42.5 47.5 42.5 116.5 l130 0 q0 -54 -18 -104 q-18 -50 -52.5 -92 q-34.5 -42 -93.5 -67.5 q-59 -25.5 -133 -25.5 q-74 0 -133 25.5 q-59 25.5 -94 67.5 q-35 42 -53 92 q-18 50 -18 104 Z" /><glyph glyph-name="dotaccentcmb" unicode="&#x307;" d="M-113 1364 q0 50 32.5 83.5 q32.5 33.5 78.5 33.5 q49 0 82 -33.5 q33 -33.5 33 -83.5 q0 -49 -33 -82.5 q-33 -33.5 -82 -33.5 q-46 0 -78.5 33.5 q-32.5 33.5 -32.5 82.5 Z" /><glyph glyph-name="dieresiscmb" unicode="&#x308;" d="M185 1218 q-47 0 -79.5 32 q-32.5 32 -32.5 80 q0 49 32.5 81 q32.5 32 79.5 32 q52 0 85.5 -32 q33.5 -32 33.5 -81 q0 -48 -33.5 -80 q-33.5 -32 -85.5 -32 ZM-188 1218 q-49 0 -82 32 q-33 32 -33 80 q0 49 32.5 81 q32.5 32 82.5 32 q50 0 83 -32 q33 -32 33 -81 q0 -48 -33 -80 q-33 -32 -83 -32 Z" /><glyph glyph-name="hookabovecmb" unicode="&#x309;" d="M-142 1446 l0 112 q45 18 110 18 q99 0 159 -49 q60 -49 60 -136 q0 -74 -41.5 -120.5 q-41.5 -46.5 -118.5 -87.5 l-69 90 q53 30 75 54.5 q22 24.5 22 54.5 q0 35 -28.5 56.5 q-28.5 21.5 -73.5 21.5 q-51 0 -95 -14 Z" /><glyph glyph-name="ringcmb" unicode="&#x30a;" d="M1 1224 q-84 0 -141 56.5 q-57 56.5 -57 140.5 q0 84 57 139.5 q57 55.5 141 55.5 q83 0 140 -55.5 q57 -55.5 57 -139.5 q0 -84 -57 -140.5 q-57 -56.5 -140 -56.5 ZM-99 1420 q0 -41 28.5 -70 q28.5 -29 70.5 -29 q42 0 70.5 28.5 q28.5 28.5 28.5 70.5 q0 42 -28 70.5 q-28 28.5 -71 28.5 q-42 0 -70.5 -28.5 q-28.5 -28.5 -28.5 -70.5 Z" /><glyph glyph-name="hungarumlautcmb" unicode="&#x30b;" d="M-119 1228 l-143 0 l244 362 l189 0 l-290 -362 ZM214 1228 l-142 0 l245 362 l188 0 l-291 -362 Z" /><glyph glyph-name="caroncmb" unicode="&#x30c;" d="M-317 1587 l166 0 l149 -245 l6 0 l141 245 l166 0 l-239 -368 l-138 0 l-251 368 Z" /><glyph glyph-name="dblgravecmb" unicode="&#x30f;" d="M-213 1226 l-290 363 l188 0 l244 -363 l-142 0 ZM117 1226 l-290 363 l189 0 l244 -363 l-143 0 Z" /><glyph glyph-name="invertedbrevecmb" unicode="&#x311;" d="M-298 1225 q0 54 18 104 q18 50 53 92 q35 42 94 67.5 q59 25.5 133 25.5 q74 0 133 -25.5 q59 -25.5 94 -67.5 q35 -42 52.5 -92 q17.5 -50 17.5 -104 l-131 0 q0 69 -42 116.5 q-42 47.5 -124 47.5 q-82 0 -124 -47.5 q-42 -47.5 -42 -116.5 l-132 0 Z" /><glyph glyph-name="horncmb" unicode="&#x31b;" d="M-88 929 l0 174 q37 -32 92 -31 q67 1 93.5 37.5 q26.5 36.5 26.5 104.5 l0 157 l172 0 l0 -171 q0 -61 -14 -113 q-14 -52 -42.5 -95 q-28.5 -43 -78 -68 q-49.5 -25 -114.5 -25 q-91 0 -135 30 Z" /><glyph glyph-name="dotbelowcmb" unicode="&#x323;" d="M-80.5 -329 q-31.5 31 -31.5 80 q0 49 31.5 81 q31.5 32 80.5 32 q49 0 80.5 -32 q31.5 -32 31.5 -81 q0 -49 -31.5 -80 q-31.5 -31 -80.5 -31 q-49 0 -80.5 31 Z" /><glyph glyph-name="dieresisbelowcmb" unicode="&#x324;" d="M185 -394 q-47 0 -79.5 32 q-32.5 32 -32.5 80 q0 49 32.5 81 q32.5 32 79.5 32 q52 0 85.5 -32 q33.5 -32 33.5 -81 q0 -48 -33.5 -80 q-33.5 -32 -85.5 -32 ZM-188 -394 q-49 0 -82 32 q-33 32 -33 80 q0 49 32.5 81 q32.5 32 82.5 32 q50 0 83 -32 q33 -32 33 -81 q0 -48 -33 -80 q-33 -32 -83 -32 Z" /><glyph glyph-name="ringbelowcmb" unicode="&#x325;" d="M1 -483 q-84 0 -141 56.5 q-57 56.5 -57 140.5 q0 84 57 139.5 q57 55.5 141 55.5 q83 0 140 -55.5 q57 -55.5 57 -139.5 q0 -84 -57 -140.5 q-57 -56.5 -140 -56.5 ZM-99 -287 q0 -41 28.5 -70 q28.5 -29 70.5 -29 q42 0 70.5 28.5 q28.5 28.5 28.5 70.5 q0 42 -28 70.5 q-28 28.5 -71 28.5 q-42 0 -70.5 -28.5 q-28.5 -28.5 -28.5 -70.5 Z" /><glyph glyph-name="commabelowcmb" unicode="&#x326;" d="M-11 -472 l-143 0 l82 316 l169 0 l-108 -316 Z" /><glyph glyph-name="cedillacmb" unicode="&#x327;" d="M-112 -235 l0 89 l59 154 l131 0 l-52 -137 q95 0 150.5 -42.5 q55.5 -42.5 55.5 -121.5 q0 -93 -63 -140.5 q-63 -47.5 -166 -51.5 q-86 -3 -149 16 l0 113 q47 -14 115 -14 q48 0 81.5 16.5 q33.5 16.5 33.5 54.5 q0 22 -10.5 35.5 q-10.5 13.5 -33.5 19.5 q-23 6 -43.5 7.5 q-20.5 1.5 -55.5 1.5 l-53 0 Z" /><glyph glyph-name="ogonekcmb" unicode="&#x328;" d="M155 -231 l0 -134 q-44 -22 -135 -22 q-93 0 -153.5 49 q-60.5 49 -60.5 140 q0 59 28.5 112.5 q28.5 53.5 86 117.5 q57.5 64 60.5 68 l128 0 q-41 -44 -64.5 -71.5 q-23.5 -27.5 -52.5 -80 q-29 -52.5 -29 -94.5 q0 -46 30.5 -70.5 q30.5 -24.5 77.5 -24.5 q41 0 84 10 Z" /><glyph glyph-name="circumflexbelowcmb" unicode="&#x32d;" d="M-342 -389 l278 246 l132 0 l269 -246 l-185 0 l-149 136 l-7 0 l-156 -136 l-182 0 Z" /><glyph glyph-name="brevebelowcmb" unicode="&#x32e;" d="M-313 -135 q0 -55 19 -105.5 q19 -50.5 55.5 -92.5 q36.5 -42 98 -67 q61.5 -25 140.5 -25 q63 0 115 17 q52 17 86.5 45 q34.5 28 58.5 65.5 q24 37.5 34.5 78.5 q10.5 41 10.5 84 l-131 0 q0 -68 -45 -116 q-45 -48 -129 -48 q-84 0 -129 48 q-45 48 -45 116 l-139 0 Z" /><glyph glyph-name="tildebelowcmb" unicode="&#x330;" d="M124 -378 q-37 0 -68.5 12.5 q-31.5 12.5 -53.5 30 q-22 17.5 -41 34.5 q-19 17 -39.5 29.5 q-20.5 12.5 -40.5 12.5 q-37 0 -53 -32 q-16 -32 -18 -70 l-123 0 q0 92 49 157 q49 65 136 65 q44 0 82.5 -18.5 q38.5 -18.5 62 -41 q23.5 -22.5 51.5 -41 q28 -18.5 52 -18.5 q35 0 55 30.5 q20 30.5 22 72.5 l123 0 q0 -90 -53 -156.5 q-53 -66.5 -143 -66.5 Z" /><glyph glyph-name="macronbelowcmb" unicode="&#x331;" d="M303 -332 l-605 0 l0 127 l605 0 l0 -127 Z" /><glyph glyph-name="Delta" unicode="&#x394;" d="M49 0 l476 1365 l223 0 l475 -1365 l-1174 0 ZM627 1132 l-314 -936 l634 0 l-312 936 l-8 0 Z" /><glyph glyph-name="Omega" unicode="&#x3a9;" d="M790 0 l0 221 q108 33 180 152.5 q72 119.5 72 285.5 l0 151 q0 201 -95 296.5 q-95 95.5 -256 95.5 q-161 0 -256.5 -95.5 q-95.5 -95.5 -95.5 -296.5 l0 -151 q0 -161 69 -280 q69 -119 172 -154 l0 -225 l-468 0 l0 188 l236 0 l0 19 q-94 44 -154.5 170 q-60.5 126 -60.5 285 l0 151 q0 284 148.5 431.5 q148.5 147.5 410.5 147.5 q263 0 410.5 -147 q147.5 -147 147.5 -432 l0 -151 q0 -157 -65 -284 q-65 -127 -160 -171 l0 -22 l247 0 l0 -185 l-482 0 Z" /><glyph glyph-name="mu" unicode="&#x3bc;" d="M348 53 l-11 0 l17 -389 l-189 0 l0 1392 l202 0 l0 -670 q0 -118 60.5 -169 q60.5 -51 158.5 -51 q109 0 184 68 q75 68 75 168 l0 654 l201 0 l0 -802 q0 -98 94 -98 q35 0 55 5 l0 -162 q-58 -14 -131 -14 q-82 0 -140 45 q-58 45 -63 126 l-1 22 l-11 0 q-23 -76 -101.5 -135 q-78.5 -59 -201.5 -59 q-60 0 -116.5 19 q-56.5 19 -81.5 50 Z" /><glyph glyph-name="pi" unicode="&#x3c0;" d="M1212 0 q-60 -13 -125 -13 q-103 0 -164.5 57 q-61.5 57 -61.5 152 l0 687 l-361 0 l0 -883 l-201 0 l0 883 l-225 0 l0 173 l1199 0 l0 -173 l-210 0 l0 -630 q0 -43 23 -67 q23 -24 66 -24 q36 0 60 6 l0 -168 Z" /><glyph glyph-name="Aringbelow" unicode="&#x1e00;" d="M257 0 l-208 0 l476 1365 l223 0 l475 -1365 l-220 0 l-128 381 l-490 0 l-128 -381 ZM635 1132 l-8 0 l-192 -581 l392 0 l-192 581 ZM637 -483 q-84 0 -141 56.5 q-57 56.5 -57 140.5 q0 84 57 139.5 q57 55.5 141 55.5 q83 0 140 -55.5 q57 -55.5 57 -139.5 q0 -84 -57 -140.5 q-57 -56.5 -140 -56.5 ZM537 -287 q0 -41 28.5 -70 q28.5 -29 70.5 -29 q42 0 70.5 28.5 q28.5 28.5 28.5 70.5 q0 42 -28 70.5 q-28 28.5 -71 28.5 q-42 0 -70.5 -28.5 q-28.5 -28.5 -28.5 -70.5 Z" /><glyph glyph-name="aringbelow" unicode="&#x1e01;" d="M459 -17 q-154 0 -249.5 88.5 q-95.5 88.5 -95.5 235.5 q0 143 97 227.5 q97 84.5 275 84.5 l271 0 l0 100 q0 90 -55 135 q-55 45 -154 45 q-168 0 -201 -120 l-193 0 q11 135 114 214 q103 79 286 79 q87 0 157.5 -19 q70.5 -19 127.5 -59.5 q57 -40.5 88.5 -111 q31.5 -70.5 31.5 -166.5 l0 -716 l-193 0 l0 137 l-9 0 q-41 -68 -115 -111 q-74 -43 -183 -43 ZM519 153 q101 0 169.5 58.5 q68.5 58.5 68.5 146.5 l0 114 l-246 0 q-97 0 -145 -42 q-48 -42 -48 -112 q0 -80 58 -122.5 q58 -42.5 143 -42.5 ZM564 -483 q-84 0 -141 56.5 q-57 56.5 -57 140.5 q0 84 57 139.5 q57 55.5 141 55.5 q83 0 140 -55.5 q57 -55.5 57 -139.5 q0 -84 -57 -140.5 q-57 -56.5 -140 -56.5 ZM464 -287 q0 -41 28.5 -70 q28.5 -29 70.5 -29 q42 0 70.5 28.5 q28.5 28.5 28.5 70.5 q0 42 -28 70.5 q-28 28.5 -71 28.5 q-42 0 -70.5 -28.5 q-28.5 -28.5 -28.5 -70.5 Z" /><glyph glyph-name="Bdotaccent" unicode="&#x1e02;" d="M494 1604 q0 50 32.5 83.5 q32.5 33.5 78.5 33.5 q49 0 82 -33.5 q33 -33.5 33 -83.5 q0 -49 -33 -82.5 q-33 -33.5 -82 -33.5 q-46 0 -78.5 33.5 q-32.5 33.5 -32.5 82.5 ZM184 0 l0 1365 l531 0 q175 0 281 -89.5 q106 -89.5 106 -246.5 q0 -121 -60.5 -196.5 q-60.5 -75.5 -162.5 -103.5 l0 -10 q139 -16 219 -104.5 q80 -88.5 80 -230.5 q0 -183 -131.5 -283.5 q-131.5 -100.5 -345.5 -100.5 l-517 0 ZM389 1188 l0 -401 l199 0 q155 0 232 49.5 q77 49.5 77 154.5 q0 97 -61 147 q-61 50 -160 50 l-287 0 ZM389 618 l0 -441 l225 0 q82 0 143 9.5 q61 9.5 110 33 q49 23.5 74.5 66.5 q25.5 43 25.5 105 q0 111 -73.5 169 q-73.5 58 -199.5 58 l-305 0 Z" /><glyph glyph-name="bdotaccent" unicode="&#x1e03;" d="M160 1707 q0 50 32.5 83.5 q32.5 33.5 78.5 33.5 q49 0 82 -33.5 q33 -33.5 33 -83.5 q0 -49 -33 -82.5 q-33 -33.5 -82 -33.5 q-46 0 -78.5 33.5 q-32.5 33.5 -32.5 82.5 ZM690 -15 q-120 0 -199.5 49 q-79.5 49 -110.5 125 l-10 0 l0 -159 l-196 0 l0 1467 l202 0 l0 -578 l10 0 q23 76 103.5 129 q80.5 53 205.5 53 q184 0 292.5 -121.5 q108.5 -121.5 108.5 -338.5 l0 -165 q0 -217 -110 -339 q-110 -122 -296 -122 ZM642 164 q115 0 182.5 78.5 q67.5 78.5 67.5 231.5 l0 103 q0 152 -67.5 233.5 q-67.5 81.5 -186.5 81.5 q-121 0 -191.5 -79.5 q-70.5 -79.5 -70.5 -215.5 l0 -156 q0 -122 74 -199.5 q74 -77.5 192 -77.5 Z" /><glyph glyph-name="Bdotbelow" unicode="&#x1e04;" d="M526.5 -329 q-31.5 31 -31.5 80 q0 49 31.5 81 q31.5 32 80.5 32 q49 0 80.5 -32 q31.5 -32 31.5 -81 q0 -49 -31.5 -80 q-31.5 -31 -80.5 -31 q-49 0 -80.5 31 ZM184 0 l0 1365 l531 0 q175 0 281 -89.5 q106 -89.5 106 -246.5 q0 -121 -60.5 -196.5 q-60.5 -75.5 -162.5 -103.5 l0 -10 q139 -16 219 -104.5 q80 -88.5 80 -230.5 q0 -183 -131.5 -283.5 q-131.5 -100.5 -345.5 -100.5 l-517 0 ZM389 1188 l0 -401 l199 0 q155 0 232 49.5 q77 49.5 77 154.5 q0 97 -61 147 q-61 50 -160 50 l-287 0 ZM389 618 l0 -441 l225 0 q82 0 143 9.5 q61 9.5 110 33 q49 23.5 74.5 66.5 q25.5 43 25.5 105 q0 111 -73.5 169 q-73.5 58 -199.5 58 l-305 0 Z" /><glyph glyph-name="bdotbelow" unicode="&#x1e05;" d="M529.5 -329 q-31.5 31 -31.5 80 q0 49 31.5 81 q31.5 32 80.5 32 q49 0 80.5 -32 q31.5 -32 31.5 -81 q0 -49 -31.5 -80 q-31.5 -31 -80.5 -31 q-49 0 -80.5 31 ZM690 -15 q-120 0 -199.5 49 q-79.5 49 -110.5 125 l-10 0 l0 -159 l-196 0 l0 1467 l202 0 l0 -578 l10 0 q23 76 103.5 129 q80.5 53 205.5 53 q184 0 292.5 -121.5 q108.5 -121.5 108.5 -338.5 l0 -165 q0 -217 -110 -339 q-110 -122 -296 -122 ZM642 164 q115 0 182.5 78.5 q67.5 78.5 67.5 231.5 l0 103 q0 152 -67.5 233.5 q-67.5 81.5 -186.5 81.5 q-121 0 -191.5 -79.5 q-70.5 -79.5 -70.5 -215.5 l0 -156 q0 -122 74 -199.5 q74 -77.5 192 -77.5 Z" /><glyph glyph-name="Blinebelow" unicode="&#x1e06;" d="M184 0 l0 1365 l531 0 q175 0 281 -89.5 q106 -89.5 106 -246.5 q0 -121 -60.5 -196.5 q-60.5 -75.5 -162.5 -103.5 l0 -10 q139 -16 219 -104.5 q80 -88.5 80 -230.5 q0 -183 -131.5 -283.5 q-131.5 -100.5 -345.5 -100.5 l-517 0 ZM389 1188 l0 -401 l199 0 q155 0 232 49.5 q77 49.5 77 154.5 q0 97 -61 147 q-61 50 -160 50 l-287 0 ZM389 618 l0 -441 l225 0 q82 0 143 9.5 q61 9.5 110 33 q49 23.5 74.5 66.5 q25.5 43 25.5 105 q0 111 -73.5 169 q-73.5 58 -199.5 58 l-305 0 ZM910 -332 l-605 0 l0 127 l605 0 l0 -127 Z" /><glyph glyph-name="blinebelow" unicode="&#x1e07;" d="M913 -332 l-605 0 l0 127 l605 0 l0 -127 ZM690 -15 q-120 0 -199.5 49 q-79.5 49 -110.5 125 l-10 0 l0 -159 l-196 0 l0 1467 l202 0 l0 -578 l10 0 q23 76 103.5 129 q80.5 53 205.5 53 q184 0 292.5 -121.5 q108.5 -121.5 108.5 -338.5 l0 -165 q0 -217 -110 -339 q-110 -122 -296 -122 ZM642 164 q115 0 182.5 78.5 q67.5 78.5 67.5 231.5 l0 103 q0 152 -67.5 233.5 q-67.5 81.5 -186.5 81.5 q-121 0 -191.5 -79.5 q-70.5 -79.5 -70.5 -215.5 l0 -156 q0 -122 74 -199.5 q74 -77.5 192 -77.5 Z" /><glyph glyph-name="Ccedillaacute" unicode="&#x1e08;" d="M579 1509 l238 345 l190 0 l-280 -345 l-148 0 ZM666 -485 q-85 -3 -150 16 l0 113 q47 -14 115 -14 q48 0 82 16.5 q34 16.5 34 54.5 q0 22 -10.5 35.5 q-10.5 13.5 -33.5 19.5 q-23 6 -43.5 7.5 q-20.5 1.5 -55.5 1.5 l-53 0 l0 89 l47 123 q-220 24 -344 181.5 q-124 157.5 -124 428.5 l0 185 q0 291 147 455.5 q147 164.5 400 164.5 q121 0 220.5 -39.5 q99.5 -39.5 162.5 -105.5 q63 -66 97 -149.5 q34 -83.5 34 -174.5 l0 -15 l-201 0 q0 118 -84 205.5 q-84 87.5 -228 87.5 q-156 0 -248 -111 q-92 -111 -92 -320 l0 -182 q0 -211 91.5 -317 q91.5 -106 252.5 -106 q146 0 227 78.5 q81 78.5 81 194.5 l201 0 l0 -15 q0 -78 -29 -152.5 q-29 -74.5 -84 -138.5 q-55 -64 -145.5 -106.5 q-90.5 -42.5 -204.5 -50.5 l-40 -104 q95 0 151 -42.5 q56 -42.5 56 -121.5 q0 -93 -63 -140.5 q-63 -47.5 -166 -51.5 Z" /><glyph glyph-name="ccedillaacute" unicode="&#x1e09;" d="M453 1226 l239 354 l192 0 l-279 -354 l-152 0 ZM577 -485 q-84 -3 -149 16 l0 113 q47 -14 115 -14 q48 0 81.5 16.5 q33.5 16.5 33.5 54.5 q0 22 -10.5 35.5 q-10.5 13.5 -33.5 19.5 q-23 6 -43.5 7.5 q-20.5 1.5 -54.5 1.5 l-54 0 l0 89 l50 131 q-182 18 -286 141.5 q-104 123.5 -104 326.5 l0 155 q0 212 120.5 339 q120.5 127 327.5 127 q190 0 299.5 -100.5 q109.5 -100.5 112.5 -241.5 l-193 0 q-4 28 -16.5 54 q-12.5 26 -36 52.5 q-23.5 26.5 -65.5 42.5 q-42 16 -97 16 q-121 0 -186 -79 q-65 -79 -65 -215 l0 -150 q0 -134 67 -210.5 q67 -76.5 184 -76.5 q190 0 221 147 l194 0 q-5 -129 -93.5 -219 q-88.5 -90 -251.5 -108 l-44 -115 q95 0 151 -42.5 q56 -42.5 56 -121.5 q0 -93 -63 -140.5 q-63 -47.5 -167 -51.5 Z" /><glyph glyph-name="Ddotaccent" unicode="&#x1e0a;" d="M513 1604 q0 50 32.5 83.5 q32.5 33.5 78.5 33.5 q49 0 82 -33.5 q33 -33.5 33 -83.5 q0 -49 -33 -82.5 q-33 -33.5 -82 -33.5 q-46 0 -78.5 33.5 q-32.5 33.5 -32.5 82.5 ZM184 1365 l458 0 q161 0 279 -49.5 q118 -49.5 188 -142 q70 -92.5 103 -213.5 q33 -121 33 -276 q0 -122 -19.5 -223 q-19.5 -101 -64.5 -187.5 q-45 -86.5 -114 -146.5 q-69 -60 -171.5 -93.5 q-102.5 -33.5 -233.5 -33.5 l-458 0 l0 1365 ZM390 1178 l0 -990 l233 0 q209 0 309.5 120 q100.5 120 100.5 373 q0 497 -410 497 l-233 0 Z" /><glyph glyph-name="ddotaccent" unicode="&#x1e0b;" d="M833 1706 q0 50 32.5 83.5 q32.5 33.5 78.5 33.5 q49 0 82 -33.5 q33 -33.5 33 -83.5 q0 -49 -33 -82.5 q-33 -33.5 -82 -33.5 q-46 0 -78.5 33.5 q-32.5 33.5 -32.5 82.5 ZM529 1072 q120 0 197.5 -49 q77.5 -49 106.5 -124 l10 0 l0 568 l202 0 l0 -1467 l-195 0 l0 168 l-10 0 q-22 -75 -105.5 -128.5 q-83.5 -53.5 -209.5 -53.5 q-183 0 -292.5 121 q-109.5 121 -109.5 329 l0 185 q0 206 110 328.5 q110 122.5 296 122.5 ZM769 816.5 q-74 76.5 -191 76.5 q-117 0 -184 -80 q-67 -80 -67 -224 l0 -119 q0 -146 68.5 -226 q68.5 -80 187.5 -80 q119 0 189.5 78.5 q70.5 78.5 70.5 213.5 l0 163 q0 121 -74 197.5 Z" /><glyph glyph-name="Ddotbelow" unicode="&#x1e0c;" d="M545.5 -329 q-31.5 31 -31.5 80 q0 49 31.5 81 q31.5 32 80.5 32 q49 0 80.5 -32 q31.5 -32 31.5 -81 q0 -49 -31.5 -80 q-31.5 -31 -80.5 -31 q-49 0 -80.5 31 ZM184 1365 l458 0 q161 0 279 -49.5 q118 -49.5 188 -142 q70 -92.5 103 -213.5 q33 -121 33 -276 q0 -122 -19.5 -223 q-19.5 -101 -64.5 -187.5 q-45 -86.5 -114 -146.5 q-69 -60 -171.5 -93.5 q-102.5 -33.5 -233.5 -33.5 l-458 0 l0 1365 ZM390 1178 l0 -990 l233 0 q209 0 309.5 120 q100.5 120 100.5 373 q0 497 -410 497 l-233 0 Z" /><glyph glyph-name="ddotbelow" unicode="&#x1e0d;" d="M529.5 -329 q-31.5 31 -31.5 80 q0 49 31.5 81 q31.5 32 80.5 32 q49 0 80.5 -32 q31.5 -32 31.5 -81 q0 -49 -31.5 -80 q-31.5 -31 -80.5 -31 q-49 0 -80.5 31 ZM529 1072 q120 0 197.5 -49 q77.5 -49 106.5 -124 l10 0 l0 568 l202 0 l0 -1467 l-195 0 l0 168 l-10 0 q-22 -75 -105.5 -128.5 q-83.5 -53.5 -209.5 -53.5 q-183 0 -292.5 121 q-109.5 121 -109.5 329 l0 185 q0 206 110 328.5 q110 122.5 296 122.5 ZM769 816.5 q-74 76.5 -191 76.5 q-117 0 -184 -80 q-67 -80 -67 -224 l0 -119 q0 -146 68.5 -226 q68.5 -80 187.5 -80 q119 0 189.5 78.5 q70.5 78.5 70.5 213.5 l0 163 q0 121 -74 197.5 Z" /><glyph glyph-name="Dlinebelow" unicode="&#x1e0e;" d="M929 -332 l-605 0 l0 127 l605 0 l0 -127 ZM184 1365 l458 0 q161 0 279 -49.5 q118 -49.5 188 -142 q70 -92.5 103 -213.5 q33 -121 33 -276 q0 -122 -19.5 -223 q-19.5 -101 -64.5 -187.5 q-45 -86.5 -114 -146.5 q-69 -60 -171.5 -93.5 q-102.5 -33.5 -233.5 -33.5 l-458 0 l0 1365 ZM390 1178 l0 -990 l233 0 q209 0 309.5 120 q100.5 120 100.5 373 q0 497 -410 497 l-233 0 Z" /><glyph glyph-name="dlinebelow" unicode="&#x1e0f;" d="M913 -332 l-605 0 l0 127 l605 0 l0 -127 ZM529 1072 q120 0 197.5 -49 q77.5 -49 106.5 -124 l10 0 l0 568 l202 0 l0 -1467 l-195 0 l0 168 l-10 0 q-22 -75 -105.5 -128.5 q-83.5 -53.5 -209.5 -53.5 q-183 0 -292.5 121 q-109.5 121 -109.5 329 l0 185 q0 206 110 328.5 q110 122.5 296 122.5 ZM769 816.5 q-74 76.5 -191 76.5 q-117 0 -184 -80 q-67 -80 -67 -224 l0 -119 q0 -146 68.5 -226 q68.5 -80 187.5 -80 q119 0 189.5 78.5 q70.5 78.5 70.5 213.5 l0 163 q0 121 -74 197.5 Z" /><glyph glyph-name="Dcommaaccent" unicode="&#x1e10;" d="M615 -472 l-143 0 l82 316 l169 0 l-108 -316 ZM184 1365 l458 0 q161 0 279 -49.5 q118 -49.5 188 -142 q70 -92.5 103 -213.5 q33 -121 33 -276 q0 -122 -19.5 -223 q-19.5 -101 -64.5 -187.5 q-45 -86.5 -114 -146.5 q-69 -60 -171.5 -93.5 q-102.5 -33.5 -233.5 -33.5 l-458 0 l0 1365 ZM390 1178 l0 -990 l233 0 q209 0 309.5 120 q100.5 120 100.5 373 q0 497 -410 497 l-233 0 Z" /><glyph glyph-name="dcommaaccent" unicode="&#x1e11;" d="M599 -472 l-143 0 l82 316 l169 0 l-108 -316 ZM529 1072 q120 0 197.5 -49 q77.5 -49 106.5 -124 l10 0 l0 568 l202 0 l0 -1467 l-195 0 l0 168 l-10 0 q-22 -75 -105.5 -128.5 q-83.5 -53.5 -209.5 -53.5 q-183 0 -292.5 121 q-109.5 121 -109.5 329 l0 185 q0 206 110 328.5 q110 122.5 296 122.5 ZM769 816.5 q-74 76.5 -191 76.5 q-117 0 -184 -80 q-67 -80 -67 -224 l0 -119 q0 -146 68.5 -226 q68.5 -80 187.5 -80 q119 0 189.5 78.5 q70.5 78.5 70.5 213.5 l0 163 q0 121 -74 197.5 Z" /><glyph glyph-name="Dcircumflexbelow" unicode="&#x1e12;" d="M184 1365 l458 0 q161 0 279 -49.5 q118 -49.5 188 -142 q70 -92.5 103 -213.5 q33 -121 33 -276 q0 -122 -19.5 -223 q-19.5 -101 -64.5 -187.5 q-45 -86.5 -114 -146.5 q-69 -60 -171.5 -93.5 q-102.5 -33.5 -233.5 -33.5 l-458 0 l0 1365 ZM390 1178 l0 -990 l233 0 q209 0 309.5 120 q100.5 120 100.5 373 q0 497 -410 497 l-233 0 ZM284 -389 l278 246 l132 0 l269 -246 l-185 0 l-149 136 l-7 0 l-156 -136 l-182 0 Z" /><glyph glyph-name="dcircumflexbelow" unicode="&#x1e13;" d="M529 1072 q120 0 197.5 -49 q77.5 -49 106.5 -124 l10 0 l0 568 l202 0 l0 -1467 l-195 0 l0 168 l-10 0 q-22 -75 -105.5 -128.5 q-83.5 -53.5 -209.5 -53.5 q-183 0 -292.5 121 q-109.5 121 -109.5 329 l0 185 q0 206 110 328.5 q110 122.5 296 122.5 ZM769 816.5 q-74 76.5 -191 76.5 q-117 0 -184 -80 q-67 -80 -67 -224 l0 -119 q0 -146 68.5 -226 q68.5 -80 187.5 -80 q119 0 189.5 78.5 q70.5 78.5 70.5 213.5 l0 163 q0 121 -74 197.5 ZM268 -389 l278 246 l132 0 l269 -246 l-185 0 l-149 136 l-7 0 l-156 -136 l-182 0 Z" /><glyph glyph-name="Emacrongrave" unicode="&#x1e14;" d="M693 1739 l-166 0 l-275 195 l208 0 l233 -195 ZM898 1507 l-598 0 l0 120 l598 0 l0 -120 ZM1023 188 l0 -188 l-839 0 l0 1365 l839 0 l0 -188 l-634 0 l0 -393 l598 0 l0 -180 l-598 0 l0 -416 l634 0 Z" /><glyph glyph-name="emacrongrave" unicode="&#x1e15;" d="M581 -18 q-215 0 -337 126 q-122 126 -122 348 l0 145 q0 219 124.5 346 q124.5 127 320.5 127 q197 0 321 -129 q124 -129 124 -344 l0 -125 l-690 0 l0 -52 q0 -118 68 -192.5 q68 -74.5 189 -74.5 q87 0 146 35 q59 35 72 86 l202 0 q-5 -38 -22.5 -77.5 q-17.5 -39.5 -52 -79 q-34.5 -39.5 -81.5 -70 q-47 -30.5 -115 -50 q-68 -19.5 -147 -19.5 ZM322 619 l491 0 l0 15 q0 121 -67 194.5 q-67 73.5 -178 73.5 q-111 0 -178.5 -73.5 q-67.5 -73.5 -67.5 -194.5 l0 -15 ZM661 1544 l-151 0 l-279 354 l192 0 l238 -354 ZM867 1246 l-605 0 l0 127 l605 0 l0 -127 Z" /><glyph glyph-name="Emacronacute" unicode="&#x1e16;" d="M505 1739 l233 195 l208 0 l-275 -195 l-166 0 ZM898 1507 l-598 0 l0 120 l598 0 l0 -120 ZM1023 188 l0 -188 l-839 0 l0 1365 l839 0 l0 -188 l-634 0 l0 -393 l598 0 l0 -180 l-598 0 l0 -416 l634 0 Z" /><glyph glyph-name="emacronacute" unicode="&#x1e17;" d="M581 -18 q-215 0 -337 126 q-122 126 -122 348 l0 145 q0 219 124.5 346 q124.5 127 320.5 127 q197 0 321 -129 q124 -129 124 -344 l0 -125 l-690 0 l0 -52 q0 -118 68 -192.5 q68 -74.5 189 -74.5 q87 0 146 35 q59 35 72 86 l202 0 q-5 -38 -22.5 -77.5 q-17.5 -39.5 -52 -79 q-34.5 -39.5 -81.5 -70 q-47 -30.5 -115 -50 q-68 -19.5 -147 -19.5 ZM322 619 l491 0 l0 15 q0 121 -67 194.5 q-67 73.5 -178 73.5 q-111 0 -178.5 -73.5 q-67.5 -73.5 -67.5 -194.5 l0 -15 ZM473 1546 l239 354 l192 0 l-279 -354 l-152 0 ZM867 1246 l-605 0 l0 127 l605 0 l0 -127 Z" /><glyph glyph-name="Ecircumflexbelow" unicode="&#x1e18;" d="M1023 188 l0 -188 l-839 0 l0 1365 l839 0 l0 -188 l-634 0 l0 -393 l598 0 l0 -180 l-598 0 l0 -416 l634 0 ZM257 -389 l278 246 l132 0 l269 -246 l-185 0 l-149 136 l-7 0 l-156 -136 l-182 0 Z" /><glyph glyph-name="ecircumflexbelow" unicode="&#x1e19;" d="M581 -18 q-215 0 -337 126 q-122 126 -122 348 l0 145 q0 219 124.5 346 q124.5 127 320.5 127 q197 0 321 -129 q124 -129 124 -344 l0 -125 l-690 0 l0 -52 q0 -118 68 -192.5 q68 -74.5 189 -74.5 q87 0 146 35 q59 35 72 86 l202 0 q-5 -38 -22.5 -77.5 q-17.5 -39.5 -52 -79 q-34.5 -39.5 -81.5 -70 q-47 -30.5 -115 -50 q-68 -19.5 -147 -19.5 ZM322 619 l491 0 l0 15 q0 121 -67 194.5 q-67 73.5 -178 73.5 q-111 0 -178.5 -73.5 q-67.5 -73.5 -67.5 -194.5 l0 -15 ZM222 -389 l278 246 l132 0 l269 -246 l-185 0 l-149 136 l-7 0 l-156 -136 l-182 0 Z" /><glyph glyph-name="Etildebelow" unicode="&#x1e1a;" d="M723 -378 q-37 0 -68.5 12.5 q-31.5 12.5 -53.5 30 q-22 17.5 -41 34.5 q-19 17 -39.5 29.5 q-20.5 12.5 -40.5 12.5 q-37 0 -53 -32 q-16 -32 -18 -70 l-123 0 q0 92 49 157 q49 65 136 65 q44 0 82.5 -18.5 q38.5 -18.5 62 -41 q23.5 -22.5 51.5 -41 q28 -18.5 52 -18.5 q35 0 55 30.5 q20 30.5 22 72.5 l123 0 q0 -90 -53 -156.5 q-53 -66.5 -143 -66.5 ZM1023 188 l0 -188 l-839 0 l0 1365 l839 0 l0 -188 l-634 0 l0 -393 l598 0 l0 -180 l-598 0 l0 -416 l634 0 Z" /><glyph glyph-name="etildebelow" unicode="&#x1e1b;" d="M688 -378 q-37 0 -68.5 12.5 q-31.5 12.5 -53.5 30 q-22 17.5 -41 34.5 q-19 17 -39.5 29.5 q-20.5 12.5 -40.5 12.5 q-37 0 -53 -32 q-16 -32 -18 -70 l-123 0 q0 92 49 157 q49 65 136 65 q44 0 82.5 -18.5 q38.5 -18.5 62 -41 q23.5 -22.5 51.5 -41 q28 -18.5 52 -18.5 q35 0 55 30.5 q20 30.5 22 72.5 l123 0 q0 -90 -53 -156.5 q-53 -66.5 -143 -66.5 ZM581 -18 q-215 0 -337 126 q-122 126 -122 348 l0 145 q0 219 124.5 346 q124.5 127 320.5 127 q197 0 321 -129 q124 -129 124 -344 l0 -125 l-690 0 l0 -52 q0 -118 68 -192.5 q68 -74.5 189 -74.5 q87 0 146 35 q59 35 72 86 l202 0 q-5 -38 -22.5 -77.5 q-17.5 -39.5 -52 -79 q-34.5 -39.5 -81.5 -70 q-47 -30.5 -115 -50 q-68 -19.5 -147 -19.5 ZM322 619 l491 0 l0 15 q0 121 -67 194.5 q-67 73.5 -178 73.5 q-111 0 -178.5 -73.5 q-67.5 -73.5 -67.5 -194.5 l0 -15 Z" /><glyph glyph-name="Ecedillabreve" unicode="&#x1e1c;" d="M527 0 l-343 0 l0 1365 l839 0 l0 -188 l-634 0 l0 -393 l598 0 l0 -180 l-598 0 l0 -416 l634 0 l0 -188 l-365 0 l-49 -129 q95 0 151 -42.5 q56 -42.5 56 -121.5 q0 -93 -63 -140.5 q-63 -47.5 -166 -51.5 q-85 -3 -150 16 l0 113 q47 -14 115 -14 q48 0 82 16.5 q34 16.5 34 54.5 q0 22 -10.5 35.5 q-10.5 13.5 -33.5 19.5 q-23 6 -43.5 7.5 q-20.5 1.5 -55.5 1.5 l-53 0 l0 89 l55 146 ZM272 1755 l134 0 q0 -72 49 -114.5 q49 -42.5 144 -42.5 q95 0 144 42.5 q49 42.5 49 114.5 l133 0 q0 -122 -84.5 -199 q-84.5 -77 -241.5 -77 q-158 0 -242.5 77 q-84.5 77 -84.5 199 Z" /><glyph glyph-name="ecedillabreve" unicode="&#x1e1d;" d="M266 1506 l132 0 q0 -69 42 -116.5 q42 -47.5 124 -47.5 q82 0 124.5 47.5 q42.5 47.5 42.5 116.5 l130 0 q0 -54 -18 -104 q-18 -50 -52.5 -92 q-34.5 -42 -93.5 -67.5 q-59 -25.5 -133 -25.5 q-74 0 -133 25.5 q-59 25.5 -94 67.5 q-35 42 -53 92 q-18 50 -18 104 ZM322 619 l491 0 l0 15 q0 121 -67 195 q-67 74 -178 74 q-111 0 -178.5 -74 q-67.5 -74 -67.5 -195 l0 -15 ZM575 -485 q-86 -3 -149 16 l0 113 q47 -14 115 -14 q48 0 81.5 16.5 q33.5 16.5 33.5 54.5 q0 22 -10.5 35.5 q-10.5 13.5 -33.5 19.5 q-23 6 -43.5 7.5 q-20.5 1.5 -55.5 1.5 l-53 0 l0 89 l51 132 q-184 20 -286.5 143.5 q-102.5 123.5 -102.5 326.5 l0 145 q0 219 124.5 346 q124.5 127 320.5 127 q197 0 321 -129 q124 -129 124 -344 l0 -125 l-690 0 l0 -51 q0 -118 68 -192.5 q68 -74.5 189 -74.5 q87 0 146 34.5 q59 34.5 72 85.5 l202 0 q-6 -44 -30 -89.5 q-24 -45.5 -65.5 -88.5 q-41.5 -43 -110 -74 q-68.5 -31 -151.5 -40 l-44 -115 q95 0 151 -42.5 q56 -42.5 56 -121.5 q0 -93 -63 -140.5 q-63 -47.5 -167 -51.5 Z" /><glyph glyph-name="Fdotaccent" unicode="&#x1e1e;" d="M482 1604 q0 50 32.5 83.5 q32.5 33.5 78.5 33.5 q49 0 82 -33.5 q33 -33.5 33 -83.5 q0 -49 -33 -82.5 q-33 -33.5 -82 -33.5 q-46 0 -78.5 33.5 q-32.5 33.5 -32.5 82.5 ZM390 0 l-206 0 l0 1365 l828 0 l0 -189 l-622 0 l0 -423 l569 0 l0 -186 l-569 0 l0 -567 Z" /><glyph glyph-name="fdotaccent" unicode="&#x1e1f;" d="M293 1691 q0 50 32.5 83.5 q32.5 33.5 78.5 33.5 q49 0 82 -33.5 q33 -33.5 33 -83.5 q0 -49 -33 -82.5 q-33 -33.5 -82 -33.5 q-46 0 -78.5 33.5 q-32.5 33.5 -32.5 82.5 ZM263 0 l0 879 l-176 0 l0 171 l176 0 l0 105 q0 156 80 226.5 q80 70.5 259 70.5 q64 0 127 -7 l0 -164 q-37 5 -95 5 q-92 0 -132 -32.5 q-40 -32.5 -40 -115.5 l0 -88 l243 0 l0 -171 l-240 0 l0 -879 l-202 0 Z" /><glyph glyph-name="Gmacron" unicode="&#x1e20;" d="M1203 939 l-202 0 q-17 127 -104.5 194.5 q-87.5 67.5 -211.5 67.5 q-155 0 -251.5 -106.5 q-96.5 -106.5 -96.5 -319.5 l0 -178 q0 -203 87.5 -318.5 q87.5 -115.5 258.5 -115.5 q143 0 234 77.5 q91 77.5 91 196.5 l0 110 l-329 0 l0 176 l528 0 l0 -277 q0 -62 -16 -124.5 q-16 -62.5 -55.5 -126.5 q-39.5 -64 -97.5 -113 q-58 -49 -150 -79.5 q-92 -30.5 -205 -30.5 q-182 0 -308 79.5 q-126 79.5 -185.5 217.5 q-59.5 138 -59.5 327 l0 181 q0 286 151 450.5 q151 164.5 408 164.5 q119 0 216 -37.5 q97 -37.5 159.5 -101 q62.5 -63.5 98 -144 q35.5 -80.5 40.5 -170.5 ZM984 1507 l-598 0 l0 120 l598 0 l0 -120 Z" /><glyph glyph-name="gmacron" unicode="&#x1e21;" d="M897 1246 l-605 0 l0 127 l605 0 l0 -127 ZM565 -223 q131 0 198 65.5 q67 65.5 67 185.5 l0 157 l-11 0 q-32 -72 -111 -119 q-79 -47 -185 -47 q-180 0 -296 122 q-116 122 -116 332 l0 143 q0 210 115.5 332.5 q115.5 122.5 295.5 122.5 q112 0 194.5 -51.5 q82.5 -51.5 110.5 -123.5 l9 0 l0 160 l195 0 l0 -1036 q0 -108 -35.5 -189 q-35.5 -81 -100.5 -129.5 q-65 -48.5 -149.5 -72 q-84.5 -23.5 -188.5 -23.5 q-200 0 -306 84 q-106 84 -117 213 l202 0 q12 -56 72.5 -91 q60.5 -35 156.5 -35 ZM580 892 q-122 0 -193 -83 q-71 -83 -71 -222 l0 -92 q0 -137 74 -220.5 q74 -83.5 192 -83.5 q115 0 181.5 80 q66.5 80 66.5 197 l0 143 q0 118 -68.5 199.5 q-68.5 81.5 -181.5 81.5 Z" /><glyph glyph-name="Hdotaccent" unicode="&#x1e22;" d="M1246 0 l-206 0 l0 607 l-650 0 l0 -607 l-206 0 l0 1365 l206 0 l0 -568 l650 0 l0 568 l206 0 l0 -1365 ZM602 1604 q0 50 32.5 83.5 q32.5 33.5 78.5 33.5 q49 0 82 -33.5 q33 -33.5 33 -83.5 q0 -49 -33 -82.5 q-33 -33.5 -82 -33.5 q-46 0 -78.5 33.5 q-32.5 33.5 -32.5 82.5 Z" /><glyph glyph-name="hdotaccent" unicode="&#x1e23;" d="M176 0 l0 1467 l201 0 l0 -600 l11 0 q9 32 30 64 q21 32 57.5 65.5 q36.5 33.5 98 54.5 q61.5 21 137.5 21 q159 0 256 -92 q97 -92 97 -267 l0 -713 l-202 0 l0 649 q0 118 -60 178 q-60 60 -163 60 q-124 0 -193 -83 q-69 -83 -69 -217 l0 -587 l-201 0 ZM161 1706 q0 50 32.5 83.5 q32.5 33.5 78.5 33.5 q49 0 82 -33.5 q33 -33.5 33 -83.5 q0 -49 -33 -82.5 q-33 -33.5 -82 -33.5 q-46 0 -78.5 33.5 q-32.5 33.5 -32.5 82.5 Z" /><glyph glyph-name="Hdotbelow" unicode="&#x1e24;" d="M1246 0 l-206 0 l0 607 l-650 0 l0 -607 l-206 0 l0 1365 l206 0 l0 -568 l650 0 l0 568 l206 0 l0 -1365 ZM634.5 -329 q-31.5 31 -31.5 80 q0 49 31.5 81 q31.5 32 80.5 32 q49 0 80.5 -32 q31.5 -32 31.5 -81 q0 -49 -31.5 -80 q-31.5 -31 -80.5 -31 q-49 0 -80.5 31 Z" /></font>
</defs>
</svg>
